<?xml version="1.0" encoding="utf-8" standalone="no"?>
<!DOCTYPE svg PUBLIC "-//W3C//DTD SVG 1.1//EN"
  "http://www.w3.org/Graphics/SVG/1.1/DTD/svg11.dtd">
<svg xmlns:xlink="http://www.w3.org/1999/xlink" width="515.732989pt" height="372.661219pt" viewBox="0 0 515.732989 372.661219" xmlns="http://www.w3.org/2000/svg" version="1.1">
 <metadata>
  <rdf:RDF xmlns:dc="http://purl.org/dc/elements/1.1/" xmlns:cc="http://creativecommons.org/ns#" xmlns:rdf="http://www.w3.org/1999/02/22-rdf-syntax-ns#">
   <cc:Work>
    <dc:type rdf:resource="http://purl.org/dc/dcmitype/StillImage"/>
    <dc:date>2026-06-26T13:50:38.313316</dc:date>
    <dc:format>image/svg+xml</dc:format>
    <dc:creator>
     <cc:Agent>
      <dc:title>Matplotlib v3.10.8, https://matplotlib.org/</dc:title>
     </cc:Agent>
    </dc:creator>
   </cc:Work>
  </rdf:RDF>
 </metadata>
 <defs>
  <style type="text/css">*{stroke-linejoin: round; stroke-linecap: butt}</style>
 </defs>
 <g id="figure_1">
  <g id="patch_1">
   <path d="M 0 372.661219 
L 515.732989 372.661219 
L 515.732989 0 
L 0 0 
z
" style="fill: #ffffff"/>
  </g>
  <g id="axes_1">
   <g id="patch_2">
    <path d="M 41.479813 131.074857 
L 503.90454 131.074857 
L 503.90454 38.352 
L 41.479813 38.352 
z
" style="fill: #ffffff"/>
   </g>
   <g id="matplotlib.axis_1">
    <g id="xtick_1">
     <g id="line2d_1">
      <path d="M 62.499118 131.074857 
L 62.499118 38.352 
" clip-path="url(#pd2f0c45155)" style="fill: none; stroke: #b0b0b0; stroke-opacity: 0.25; stroke-width: 0.3; stroke-linecap: square"/>
     </g>
     <g id="line2d_2">
      <defs>
       <path id="mc8828ea309" d="M 0 0 
L 0 3 
" style="stroke: #000000; stroke-width: 0.6"/>
      </defs>
      <g>
       <use xlink:href="#mc8828ea309" x="62.499118" y="131.074857" style="stroke: #000000; stroke-width: 0.6"/>
      </g>
     </g>
    </g>
    <g id="xtick_2">
     <g id="line2d_3">
      <path d="M 150.538096 131.074857 
L 150.538096 38.352 
" clip-path="url(#pd2f0c45155)" style="fill: none; stroke: #b0b0b0; stroke-opacity: 0.25; stroke-width: 0.3; stroke-linecap: square"/>
     </g>
     <g id="line2d_4">
      <g>
       <use xlink:href="#mc8828ea309" x="150.538096" y="131.074857" style="stroke: #000000; stroke-width: 0.6"/>
      </g>
     </g>
    </g>
    <g id="xtick_3">
     <g id="line2d_5">
      <path d="M 238.577073 131.074857 
L 238.577073 38.352 
" clip-path="url(#pd2f0c45155)" style="fill: none; stroke: #b0b0b0; stroke-opacity: 0.25; stroke-width: 0.3; stroke-linecap: square"/>
     </g>
     <g id="line2d_6">
      <g>
       <use xlink:href="#mc8828ea309" x="238.577073" y="131.074857" style="stroke: #000000; stroke-width: 0.6"/>
      </g>
     </g>
    </g>
    <g id="xtick_4">
     <g id="line2d_7">
      <path d="M 326.61605 131.074857 
L 326.61605 38.352 
" clip-path="url(#pd2f0c45155)" style="fill: none; stroke: #b0b0b0; stroke-opacity: 0.25; stroke-width: 0.3; stroke-linecap: square"/>
     </g>
     <g id="line2d_8">
      <g>
       <use xlink:href="#mc8828ea309" x="326.61605" y="131.074857" style="stroke: #000000; stroke-width: 0.6"/>
      </g>
     </g>
    </g>
    <g id="xtick_5">
     <g id="line2d_9">
      <path d="M 414.655027 131.074857 
L 414.655027 38.352 
" clip-path="url(#pd2f0c45155)" style="fill: none; stroke: #b0b0b0; stroke-opacity: 0.25; stroke-width: 0.3; stroke-linecap: square"/>
     </g>
     <g id="line2d_10">
      <g>
       <use xlink:href="#mc8828ea309" x="414.655027" y="131.074857" style="stroke: #000000; stroke-width: 0.6"/>
      </g>
     </g>
    </g>
    <g id="xtick_6">
     <g id="line2d_11">
      <path d="M 502.694004 131.074857 
L 502.694004 38.352 
" clip-path="url(#pd2f0c45155)" style="fill: none; stroke: #b0b0b0; stroke-opacity: 0.25; stroke-width: 0.3; stroke-linecap: square"/>
     </g>
     <g id="line2d_12">
      <g>
       <use xlink:href="#mc8828ea309" x="502.694004" y="131.074857" style="stroke: #000000; stroke-width: 0.6"/>
      </g>
     </g>
    </g>
   </g>
   <g id="matplotlib.axis_2">
    <g id="ytick_1">
     <g id="line2d_13">
      <path d="M 41.479813 121.99816 
L 503.90454 121.99816 
" clip-path="url(#pd2f0c45155)" style="fill: none; stroke: #b0b0b0; stroke-opacity: 0.25; stroke-width: 0.3; stroke-linecap: square"/>
     </g>
     <g id="line2d_14">
      <defs>
       <path id="m445eea771b" d="M 0 0 
L -3 0 
" style="stroke: #000000; stroke-width: 0.6"/>
      </defs>
      <g>
       <use xlink:href="#m445eea771b" x="41.479813" y="121.99816" style="stroke: #000000; stroke-width: 0.6"/>
      </g>
     </g>
     <g id="text_1">
      <!-- −20 -->
      <g transform="translate(23.106063 124.503394) scale(0.07 -0.07)">
       <defs>
        <path id="ArialMT-2212" d="M 3381 1997 
L 356 1997 
L 356 2522 
L 3381 2522 
L 3381 1997 
z
" transform="scale(0.015625)"/>
        <path id="ArialMT-32" d="M 3222 541 
L 3222 0 
L 194 0 
Q 188 203 259 391 
Q 375 700 629 1000 
Q 884 1300 1366 1694 
Q 2113 2306 2375 2664 
Q 2638 3022 2638 3341 
Q 2638 3675 2398 3904 
Q 2159 4134 1775 4134 
Q 1369 4134 1125 3890 
Q 881 3647 878 3216 
L 300 3275 
Q 359 3922 746 4261 
Q 1134 4600 1788 4600 
Q 2447 4600 2831 4234 
Q 3216 3869 3216 3328 
Q 3216 3053 3103 2787 
Q 2991 2522 2730 2228 
Q 2469 1934 1863 1422 
Q 1356 997 1212 845 
Q 1069 694 975 541 
L 3222 541 
z
" transform="scale(0.015625)"/>
        <path id="ArialMT-30" d="M 266 2259 
Q 266 3072 433 3567 
Q 600 4063 929 4331 
Q 1259 4600 1759 4600 
Q 2128 4600 2406 4451 
Q 2684 4303 2865 4023 
Q 3047 3744 3150 3342 
Q 3253 2941 3253 2259 
Q 3253 1453 3087 958 
Q 2922 463 2592 192 
Q 2263 -78 1759 -78 
Q 1097 -78 719 397 
Q 266 969 266 2259 
z
M 844 2259 
Q 844 1131 1108 757 
Q 1372 384 1759 384 
Q 2147 384 2411 759 
Q 2675 1134 2675 2259 
Q 2675 3391 2411 3762 
Q 2147 4134 1753 4134 
Q 1366 4134 1134 3806 
Q 844 3388 844 2259 
z
" transform="scale(0.015625)"/>
       </defs>
       <use xlink:href="#ArialMT-2212"/>
       <use xlink:href="#ArialMT-32" transform="translate(58.398438 0)"/>
       <use xlink:href="#ArialMT-30" transform="translate(114.013672 0)"/>
      </g>
     </g>
    </g>
    <g id="ytick_2">
     <g id="line2d_15">
      <path d="M 41.479813 106.487626 
L 503.90454 106.487626 
" clip-path="url(#pd2f0c45155)" style="fill: none; stroke: #b0b0b0; stroke-opacity: 0.25; stroke-width: 0.3; stroke-linecap: square"/>
     </g>
     <g id="line2d_16">
      <g>
       <use xlink:href="#m445eea771b" x="41.479813" y="106.487626" style="stroke: #000000; stroke-width: 0.6"/>
      </g>
     </g>
     <g id="text_2">
      <!-- −10 -->
      <g transform="translate(23.106063 108.992861) scale(0.07 -0.07)">
       <defs>
        <path id="ArialMT-31" d="M 2384 0 
L 1822 0 
L 1822 3584 
Q 1619 3391 1289 3197 
Q 959 3003 697 2906 
L 697 3450 
Q 1169 3672 1522 3987 
Q 1875 4303 2022 4600 
L 2384 4600 
L 2384 0 
z
" transform="scale(0.015625)"/>
       </defs>
       <use xlink:href="#ArialMT-2212"/>
       <use xlink:href="#ArialMT-31" transform="translate(58.398438 0)"/>
       <use xlink:href="#ArialMT-30" transform="translate(114.013672 0)"/>
      </g>
     </g>
    </g>
    <g id="ytick_3">
     <g id="line2d_17">
      <path d="M 41.479813 90.977093 
L 503.90454 90.977093 
" clip-path="url(#pd2f0c45155)" style="fill: none; stroke: #b0b0b0; stroke-opacity: 0.25; stroke-width: 0.3; stroke-linecap: square"/>
     </g>
     <g id="line2d_18">
      <g>
       <use xlink:href="#m445eea771b" x="41.479813" y="90.977093" style="stroke: #000000; stroke-width: 0.6"/>
      </g>
     </g>
     <g id="text_3">
      <!-- 0 -->
      <g transform="translate(31.087156 93.482327) scale(0.07 -0.07)">
       <use xlink:href="#ArialMT-30"/>
      </g>
     </g>
    </g>
    <g id="ytick_4">
     <g id="line2d_19">
      <path d="M 41.479813 75.466559 
L 503.90454 75.466559 
" clip-path="url(#pd2f0c45155)" style="fill: none; stroke: #b0b0b0; stroke-opacity: 0.25; stroke-width: 0.3; stroke-linecap: square"/>
     </g>
     <g id="line2d_20">
      <g>
       <use xlink:href="#m445eea771b" x="41.479813" y="75.466559" style="stroke: #000000; stroke-width: 0.6"/>
      </g>
     </g>
     <g id="text_4">
      <!-- 10 -->
      <g transform="translate(27.1945 77.971793) scale(0.07 -0.07)">
       <use xlink:href="#ArialMT-31"/>
       <use xlink:href="#ArialMT-30" transform="translate(55.615234 0)"/>
      </g>
     </g>
    </g>
    <g id="ytick_5">
     <g id="line2d_21">
      <path d="M 41.479813 59.956026 
L 503.90454 59.956026 
" clip-path="url(#pd2f0c45155)" style="fill: none; stroke: #b0b0b0; stroke-opacity: 0.25; stroke-width: 0.3; stroke-linecap: square"/>
     </g>
     <g id="line2d_22">
      <g>
       <use xlink:href="#m445eea771b" x="41.479813" y="59.956026" style="stroke: #000000; stroke-width: 0.6"/>
      </g>
     </g>
     <g id="text_5">
      <!-- 20 -->
      <g transform="translate(27.1945 62.46126) scale(0.07 -0.07)">
       <use xlink:href="#ArialMT-32"/>
       <use xlink:href="#ArialMT-30" transform="translate(55.615234 0)"/>
      </g>
     </g>
    </g>
    <g id="ytick_6">
     <g id="line2d_23">
      <path d="M 41.479813 44.445492 
L 503.90454 44.445492 
" clip-path="url(#pd2f0c45155)" style="fill: none; stroke: #b0b0b0; stroke-opacity: 0.25; stroke-width: 0.3; stroke-linecap: square"/>
     </g>
     <g id="line2d_24">
      <g>
       <use xlink:href="#m445eea771b" x="41.479813" y="44.445492" style="stroke: #000000; stroke-width: 0.6"/>
      </g>
     </g>
     <g id="text_6">
      <!-- 30 -->
      <g transform="translate(27.1945 46.950726) scale(0.07 -0.07)">
       <defs>
        <path id="ArialMT-33" d="M 269 1209 
L 831 1284 
Q 928 806 1161 595 
Q 1394 384 1728 384 
Q 2125 384 2398 659 
Q 2672 934 2672 1341 
Q 2672 1728 2419 1979 
Q 2166 2231 1775 2231 
Q 1616 2231 1378 2169 
L 1441 2663 
Q 1497 2656 1531 2656 
Q 1891 2656 2178 2843 
Q 2466 3031 2466 3422 
Q 2466 3731 2256 3934 
Q 2047 4138 1716 4138 
Q 1388 4138 1169 3931 
Q 950 3725 888 3313 
L 325 3413 
Q 428 3978 793 4289 
Q 1159 4600 1703 4600 
Q 2078 4600 2393 4439 
Q 2709 4278 2876 4000 
Q 3044 3722 3044 3409 
Q 3044 3113 2884 2869 
Q 2725 2625 2413 2481 
Q 2819 2388 3044 2092 
Q 3269 1797 3269 1353 
Q 3269 753 2831 336 
Q 2394 -81 1725 -81 
Q 1122 -81 723 278 
Q 325 638 269 1209 
z
" transform="scale(0.015625)"/>
       </defs>
       <use xlink:href="#ArialMT-33"/>
       <use xlink:href="#ArialMT-30" transform="translate(55.615234 0)"/>
      </g>
     </g>
    </g>
    <g id="text_7">
     <!-- Single-link OSNR (dB) -->
     <g transform="translate(17.422312 124.501554) rotate(-90) scale(0.08 -0.08)">
      <defs>
       <path id="ArialMT-53" d="M 288 1472 
L 859 1522 
Q 900 1178 1048 958 
Q 1197 738 1509 602 
Q 1822 466 2213 466 
Q 2559 466 2825 569 
Q 3091 672 3220 851 
Q 3350 1031 3350 1244 
Q 3350 1459 3225 1620 
Q 3100 1781 2813 1891 
Q 2628 1963 1997 2114 
Q 1366 2266 1113 2400 
Q 784 2572 623 2826 
Q 463 3081 463 3397 
Q 463 3744 659 4045 
Q 856 4347 1234 4503 
Q 1613 4659 2075 4659 
Q 2584 4659 2973 4495 
Q 3363 4331 3572 4012 
Q 3781 3694 3797 3291 
L 3216 3247 
Q 3169 3681 2898 3903 
Q 2628 4125 2100 4125 
Q 1550 4125 1298 3923 
Q 1047 3722 1047 3438 
Q 1047 3191 1225 3031 
Q 1400 2872 2139 2705 
Q 2878 2538 3153 2413 
Q 3553 2228 3743 1945 
Q 3934 1663 3934 1294 
Q 3934 928 3725 604 
Q 3516 281 3123 101 
Q 2731 -78 2241 -78 
Q 1619 -78 1198 103 
Q 778 284 539 648 
Q 300 1013 288 1472 
z
" transform="scale(0.015625)"/>
       <path id="ArialMT-69" d="M 425 3934 
L 425 4581 
L 988 4581 
L 988 3934 
L 425 3934 
z
M 425 0 
L 425 3319 
L 988 3319 
L 988 0 
L 425 0 
z
" transform="scale(0.015625)"/>
       <path id="ArialMT-6e" d="M 422 0 
L 422 3319 
L 928 3319 
L 928 2847 
Q 1294 3394 1984 3394 
Q 2284 3394 2536 3286 
Q 2788 3178 2913 3003 
Q 3038 2828 3088 2588 
Q 3119 2431 3119 2041 
L 3119 0 
L 2556 0 
L 2556 2019 
Q 2556 2363 2490 2533 
Q 2425 2703 2258 2804 
Q 2091 2906 1866 2906 
Q 1506 2906 1245 2678 
Q 984 2450 984 1813 
L 984 0 
L 422 0 
z
" transform="scale(0.015625)"/>
       <path id="ArialMT-67" d="M 319 -275 
L 866 -356 
Q 900 -609 1056 -725 
Q 1266 -881 1628 -881 
Q 2019 -881 2231 -725 
Q 2444 -569 2519 -288 
Q 2563 -116 2559 434 
Q 2191 0 1641 0 
Q 956 0 581 494 
Q 206 988 206 1678 
Q 206 2153 378 2554 
Q 550 2956 876 3175 
Q 1203 3394 1644 3394 
Q 2231 3394 2613 2919 
L 2613 3319 
L 3131 3319 
L 3131 450 
Q 3131 -325 2973 -648 
Q 2816 -972 2473 -1159 
Q 2131 -1347 1631 -1347 
Q 1038 -1347 672 -1080 
Q 306 -813 319 -275 
z
M 784 1719 
Q 784 1066 1043 766 
Q 1303 466 1694 466 
Q 2081 466 2343 764 
Q 2606 1063 2606 1700 
Q 2606 2309 2336 2618 
Q 2066 2928 1684 2928 
Q 1309 2928 1046 2623 
Q 784 2319 784 1719 
z
" transform="scale(0.015625)"/>
       <path id="ArialMT-6c" d="M 409 0 
L 409 4581 
L 972 4581 
L 972 0 
L 409 0 
z
" transform="scale(0.015625)"/>
       <path id="ArialMT-65" d="M 2694 1069 
L 3275 997 
Q 3138 488 2766 206 
Q 2394 -75 1816 -75 
Q 1088 -75 661 373 
Q 234 822 234 1631 
Q 234 2469 665 2931 
Q 1097 3394 1784 3394 
Q 2450 3394 2872 2941 
Q 3294 2488 3294 1666 
Q 3294 1616 3291 1516 
L 816 1516 
Q 847 969 1125 678 
Q 1403 388 1819 388 
Q 2128 388 2347 550 
Q 2566 713 2694 1069 
z
M 847 1978 
L 2700 1978 
Q 2663 2397 2488 2606 
Q 2219 2931 1791 2931 
Q 1403 2931 1139 2672 
Q 875 2413 847 1978 
z
" transform="scale(0.015625)"/>
       <path id="ArialMT-2d" d="M 203 1375 
L 203 1941 
L 1931 1941 
L 1931 1375 
L 203 1375 
z
" transform="scale(0.015625)"/>
       <path id="ArialMT-6b" d="M 425 0 
L 425 4581 
L 988 4581 
L 988 1969 
L 2319 3319 
L 3047 3319 
L 1778 2088 
L 3175 0 
L 2481 0 
L 1384 1697 
L 988 1316 
L 988 0 
L 425 0 
z
" transform="scale(0.015625)"/>
       <path id="ArialMT-20" transform="scale(0.015625)"/>
       <path id="ArialMT-4f" d="M 309 2231 
Q 309 3372 921 4017 
Q 1534 4663 2503 4663 
Q 3138 4663 3647 4359 
Q 4156 4056 4423 3514 
Q 4691 2972 4691 2284 
Q 4691 1588 4409 1038 
Q 4128 488 3612 205 
Q 3097 -78 2500 -78 
Q 1853 -78 1343 234 
Q 834 547 571 1087 
Q 309 1628 309 2231 
z
M 934 2222 
Q 934 1394 1379 917 
Q 1825 441 2497 441 
Q 3181 441 3623 922 
Q 4066 1403 4066 2288 
Q 4066 2847 3877 3264 
Q 3688 3681 3323 3911 
Q 2959 4141 2506 4141 
Q 1863 4141 1398 3698 
Q 934 3256 934 2222 
z
" transform="scale(0.015625)"/>
       <path id="ArialMT-4e" d="M 488 0 
L 488 4581 
L 1109 4581 
L 3516 984 
L 3516 4581 
L 4097 4581 
L 4097 0 
L 3475 0 
L 1069 3600 
L 1069 0 
L 488 0 
z
" transform="scale(0.015625)"/>
       <path id="ArialMT-52" d="M 503 0 
L 503 4581 
L 2534 4581 
Q 3147 4581 3465 4457 
Q 3784 4334 3975 4021 
Q 4166 3709 4166 3331 
Q 4166 2844 3850 2509 
Q 3534 2175 2875 2084 
Q 3116 1969 3241 1856 
Q 3506 1613 3744 1247 
L 4541 0 
L 3778 0 
L 3172 953 
Q 2906 1366 2734 1584 
Q 2563 1803 2427 1890 
Q 2291 1978 2150 2013 
Q 2047 2034 1813 2034 
L 1109 2034 
L 1109 0 
L 503 0 
z
M 1109 2559 
L 2413 2559 
Q 2828 2559 3062 2645 
Q 3297 2731 3419 2920 
Q 3541 3109 3541 3331 
Q 3541 3656 3305 3865 
Q 3069 4075 2559 4075 
L 1109 4075 
L 1109 2559 
z
" transform="scale(0.015625)"/>
       <path id="ArialMT-28" d="M 1497 -1347 
Q 1031 -759 709 28 
Q 388 816 388 1659 
Q 388 2403 628 3084 
Q 909 3875 1497 4659 
L 1900 4659 
Q 1522 4009 1400 3731 
Q 1209 3300 1100 2831 
Q 966 2247 966 1656 
Q 966 153 1900 -1347 
L 1497 -1347 
z
" transform="scale(0.015625)"/>
       <path id="ArialMT-64" d="M 2575 0 
L 2575 419 
Q 2259 -75 1647 -75 
Q 1250 -75 917 144 
Q 584 363 401 755 
Q 219 1147 219 1656 
Q 219 2153 384 2558 
Q 550 2963 881 3178 
Q 1213 3394 1622 3394 
Q 1922 3394 2156 3267 
Q 2391 3141 2538 2938 
L 2538 4581 
L 3097 4581 
L 3097 0 
L 2575 0 
z
M 797 1656 
Q 797 1019 1065 703 
Q 1334 388 1700 388 
Q 2069 388 2326 689 
Q 2584 991 2584 1609 
Q 2584 2291 2321 2609 
Q 2059 2928 1675 2928 
Q 1300 2928 1048 2622 
Q 797 2316 797 1656 
z
" transform="scale(0.015625)"/>
       <path id="ArialMT-42" d="M 469 0 
L 469 4581 
L 2188 4581 
Q 2713 4581 3030 4442 
Q 3347 4303 3526 4014 
Q 3706 3725 3706 3409 
Q 3706 3116 3547 2856 
Q 3388 2597 3066 2438 
Q 3481 2316 3704 2022 
Q 3928 1728 3928 1328 
Q 3928 1006 3792 729 
Q 3656 453 3456 303 
Q 3256 153 2954 76 
Q 2653 0 2216 0 
L 469 0 
z
M 1075 2656 
L 2066 2656 
Q 2469 2656 2644 2709 
Q 2875 2778 2992 2937 
Q 3109 3097 3109 3338 
Q 3109 3566 3000 3739 
Q 2891 3913 2687 3977 
Q 2484 4041 1991 4041 
L 1075 4041 
L 1075 2656 
z
M 1075 541 
L 2216 541 
Q 2509 541 2628 563 
Q 2838 600 2978 687 
Q 3119 775 3209 942 
Q 3300 1109 3300 1328 
Q 3300 1584 3169 1773 
Q 3038 1963 2805 2039 
Q 2572 2116 2134 2116 
L 1075 2116 
L 1075 541 
z
" transform="scale(0.015625)"/>
       <path id="ArialMT-29" d="M 791 -1347 
L 388 -1347 
Q 1322 153 1322 1656 
Q 1322 2244 1188 2822 
Q 1081 3291 891 3722 
Q 769 4003 388 4659 
L 791 4659 
Q 1378 3875 1659 3084 
Q 1900 2403 1900 1659 
Q 1900 816 1576 28 
Q 1253 -759 791 -1347 
z
" transform="scale(0.015625)"/>
      </defs>
      <use xlink:href="#ArialMT-53"/>
      <use xlink:href="#ArialMT-69" transform="translate(66.699219 0)"/>
      <use xlink:href="#ArialMT-6e" transform="translate(88.916016 0)"/>
      <use xlink:href="#ArialMT-67" transform="translate(144.53125 0)"/>
      <use xlink:href="#ArialMT-6c" transform="translate(200.146484 0)"/>
      <use xlink:href="#ArialMT-65" transform="translate(222.363281 0)"/>
      <use xlink:href="#ArialMT-2d" transform="translate(277.978516 0)"/>
      <use xlink:href="#ArialMT-6c" transform="translate(311.279297 0)"/>
      <use xlink:href="#ArialMT-69" transform="translate(333.496094 0)"/>
      <use xlink:href="#ArialMT-6e" transform="translate(355.712891 0)"/>
      <use xlink:href="#ArialMT-6b" transform="translate(411.328125 0)"/>
      <use xlink:href="#ArialMT-20" transform="translate(461.328125 0)"/>
      <use xlink:href="#ArialMT-4f" transform="translate(489.111328 0)"/>
      <use xlink:href="#ArialMT-53" transform="translate(566.894531 0)"/>
      <use xlink:href="#ArialMT-4e" transform="translate(633.59375 0)"/>
      <use xlink:href="#ArialMT-52" transform="translate(705.810547 0)"/>
      <use xlink:href="#ArialMT-20" transform="translate(778.027344 0)"/>
      <use xlink:href="#ArialMT-28" transform="translate(805.810547 0)"/>
      <use xlink:href="#ArialMT-64" transform="translate(839.111328 0)"/>
      <use xlink:href="#ArialMT-42" transform="translate(894.726562 0)"/>
      <use xlink:href="#ArialMT-29" transform="translate(961.425781 0)"/>
     </g>
    </g>
   </g>
   <g id="line2d_25">
    <path d="M 62.499118 47.20315 
L 73.50399 49.102751 
L 82.307888 50.40386 
L 91.111786 51.488377 
L 99.915684 52.357287 
L 108.719581 53.01781 
L 117.523479 53.477747 
L 126.327377 53.743112 
L 135.131274 53.81736 
L 143.935172 53.701362 
L 152.73907 53.393524 
L 161.542968 52.889769 
L 170.346865 52.183665 
L 179.150763 51.267376 
L 187.954661 50.134478 
L 196.758559 48.786741 
L 207.763431 46.843091 
L 223.170252 44.039552 
L 229.773175 43.122283 
L 234.175124 42.73146 
L 238.577073 42.569312 
L 242.979022 42.655551 
L 247.38097 42.979579 
L 251.782919 43.504223 
L 258.385843 44.552919 
L 289.199485 49.940951 
L 298.003382 51.108038 
L 306.80728 52.058816 
L 315.611178 52.799464 
L 324.415075 53.337873 
L 333.218973 53.679923 
L 342.022871 53.828395 
L 350.826769 53.783762 
L 359.630666 53.545405 
L 368.434564 53.111637 
L 377.238462 52.478534 
L 386.04236 51.63942 
L 394.846257 50.586766 
L 403.650155 49.317679 
L 412.454053 47.845667 
L 436.664771 43.540649 
L 441.06672 43.005681 
L 443.267695 43.217147 
L 445.468669 116.681961 
L 447.669644 126.79988 
L 452.071592 126.705053 
L 454.272567 110.420316 
L 456.473541 42.881741 
L 460.87549 43.356479 
L 467.478413 44.362091 
L 478.483286 46.382823 
L 482.885234 47.202016 
L 482.885234 47.202016 
" clip-path="url(#pd2f0c45155)" style="fill: none; stroke: #d55e00; stroke-width: 1.2; stroke-linecap: square"/>
   </g>
   <g id="line2d_26">
    <path d="M 62.499118 47.20315 
L 73.50399 49.102751 
L 82.307888 50.40386 
L 91.111786 51.488377 
L 99.915684 52.357287 
L 108.719581 53.01781 
L 117.523479 53.477747 
L 126.327377 53.743112 
L 135.131274 53.81736 
L 143.935172 53.701362 
L 152.73907 53.393524 
L 161.542968 52.889769 
L 170.346865 52.183665 
L 179.150763 51.267376 
L 187.954661 50.134478 
L 196.758559 48.786741 
L 207.763431 46.843091 
L 223.170252 44.039552 
L 229.773175 43.122283 
L 234.175124 42.73146 
L 238.577073 42.569312 
L 242.979022 42.655551 
L 247.38097 42.979579 
L 251.782919 43.504223 
L 258.385843 44.552919 
L 289.199485 49.940951 
L 298.003382 51.108038 
L 306.80728 52.058816 
L 315.611178 52.799464 
L 324.415075 53.337873 
L 333.218973 53.679923 
L 342.022871 53.828395 
L 350.826769 53.783762 
L 359.630666 53.545405 
L 368.434564 53.111637 
L 377.238462 52.478534 
L 386.04236 51.63942 
L 394.846257 50.586766 
L 403.650155 49.317679 
L 412.454053 47.845667 
L 436.664771 43.540649 
L 441.06672 43.005681 
L 445.468669 42.668463 
L 449.870618 42.567448 
L 454.272567 42.715076 
L 458.674516 43.093382 
L 463.076465 43.660231 
L 469.679388 44.746914 
L 482.885234 47.202016 
L 482.885234 47.202016 
" clip-path="url(#pd2f0c45155)" style="fill: none; stroke-dasharray: 2.96,1.28; stroke-dashoffset: 0; stroke: #d55e00; stroke-opacity: 0.55; stroke-width: 0.8"/>
   </g>
   <g id="line2d_27">
    <path d="M 62.499118 53.469678 
L 71.303016 53.768094 
L 80.106914 53.871233 
L 88.910811 53.775656 
L 97.714709 53.479591 
L 106.518607 52.983208 
L 115.322505 52.285365 
L 124.126402 51.381184 
L 132.9303 50.264209 
L 141.734198 48.934052 
L 152.73907 47.007733 
L 170.346865 43.831823 
L 174.748814 43.224653 
L 176.949789 42.9835 
L 179.150763 46.107735 
L 181.351738 119.33909 
L 183.552712 126.811564 
L 185.753686 126.802406 
L 187.954661 126.54242 
L 190.155635 105.623385 
L 192.35661 42.897202 
L 196.758559 43.385333 
L 203.361482 44.399919 
L 214.366354 46.424258 
L 225.371226 48.411762 
L 234.175124 49.811467 
L 242.979022 50.999497 
L 251.782919 51.969978 
L 260.586817 52.728082 
L 269.390715 53.281739 
L 278.194612 53.638147 
L 286.99851 53.802373 
L 295.802408 53.776831 
L 304.606306 53.561133 
L 313.410203 53.152108 
L 322.214101 52.544036 
L 331.017999 51.729328 
L 339.821896 50.70033 
L 348.625794 49.453752 
L 357.429692 48.001053 
L 372.836513 45.154723 
L 381.640411 43.667161 
L 386.04236 43.098651 
L 390.444308 42.71806 
L 394.846257 42.567727 
L 399.248206 42.665992 
L 403.650155 43.000803 
L 408.052104 43.533958 
L 414.655027 44.590489 
L 443.267695 49.648344 
L 452.071592 50.866066 
L 460.87549 51.870458 
L 469.679388 52.670387 
L 478.483286 53.278543 
L 482.885234 53.513636 
L 482.885234 53.513636 
" clip-path="url(#pd2f0c45155)" style="fill: none; stroke: #0072b2; stroke-width: 1.2; stroke-linecap: square"/>
   </g>
   <g id="line2d_28">
    <path d="M 62.499118 53.469678 
L 71.303016 53.768094 
L 80.106914 53.871233 
L 88.910811 53.775656 
L 97.714709 53.479591 
L 106.518607 52.983208 
L 115.322505 52.285365 
L 124.126402 51.381184 
L 132.9303 50.264209 
L 141.734198 48.934052 
L 152.73907 47.007733 
L 170.346865 43.831823 
L 174.748814 43.224653 
L 179.150763 42.79262 
L 183.552712 42.582126 
L 187.954661 42.618423 
L 192.35661 42.897034 
L 196.758559 43.385333 
L 203.361482 44.399919 
L 214.366354 46.424258 
L 225.371226 48.411762 
L 234.175124 49.811467 
L 242.979022 50.999497 
L 251.782919 51.969978 
L 260.586817 52.728082 
L 269.390715 53.281739 
L 278.194612 53.638147 
L 286.99851 53.802373 
L 295.802408 53.776831 
L 304.606306 53.561133 
L 313.410203 53.152108 
L 322.214101 52.544036 
L 331.017999 51.729328 
L 339.821896 50.70033 
L 348.625794 49.453752 
L 357.429692 48.001053 
L 372.836513 45.154723 
L 381.640411 43.667161 
L 386.04236 43.098651 
L 390.444308 42.71806 
L 394.846257 42.567727 
L 399.248206 42.665992 
L 403.650155 43.000803 
L 408.052104 43.533958 
L 414.655027 44.590489 
L 443.267695 49.648344 
L 452.071592 50.866066 
L 460.87549 51.870458 
L 469.679388 52.670387 
L 478.483286 53.278543 
L 482.885234 53.513636 
L 482.885234 53.513636 
" clip-path="url(#pd2f0c45155)" style="fill: none; stroke-dasharray: 2.96,1.28; stroke-dashoffset: 0; stroke: #0072b2; stroke-opacity: 0.55; stroke-width: 0.8"/>
   </g>
   <g id="line2d_29">
    <path d="M 62.499118 52.142403 
L 71.303016 52.857964 
L 80.106914 53.370665 
L 88.910811 53.687347 
L 97.714709 53.812574 
L 106.518607 53.748226 
L 115.322505 53.4934 
L 124.126402 53.044485 
L 132.9303 52.395472 
L 141.734198 51.53877 
L 150.538096 50.467327 
L 159.341993 49.179907 
L 170.346865 47.296511 
L 190.155635 43.762538 
L 194.557584 43.190021 
L 196.758559 42.970598 
L 198.959533 99.893271 
L 201.160507 126.296003 
L 203.361482 126.847714 
L 205.562456 126.860182 
L 207.763431 121.489431 
L 209.964405 54.839548 
L 212.16538 43.092324 
L 216.567328 43.644411 
L 223.170252 44.749265 
L 238.577073 47.766156 
L 247.38097 49.360441 
L 256.184868 50.712272 
L 264.988766 51.793425 
L 273.792664 52.617929 
L 282.596561 53.216315 
L 291.400459 53.616279 
L 302.405331 53.863357 
L 313.410203 53.842915 
L 324.415075 53.553166 
L 333.218973 53.117544 
L 342.022871 52.48891 
L 350.826769 51.655956 
L 359.630666 50.609272 
L 368.434564 49.345491 
L 377.238462 47.877764 
L 401.449181 43.566361 
L 405.851129 43.024277 
L 410.253078 42.677947 
L 414.655027 42.566675 
L 419.056976 42.704137 
L 423.458925 43.073572 
L 427.860874 43.633618 
L 434.463797 44.714304 
L 460.87549 49.418645 
L 469.679388 50.670722 
L 478.483286 51.70527 
L 482.885234 52.141691 
L 482.885234 52.141691 
" clip-path="url(#pd2f0c45155)" style="fill: none; stroke: #cc79a7; stroke-width: 1.2; stroke-linecap: square"/>
   </g>
   <g id="line2d_30">
    <path d="M 62.499118 52.142403 
L 71.303016 52.857964 
L 80.106914 53.370665 
L 88.910811 53.687347 
L 97.714709 53.812574 
L 106.518607 53.748226 
L 115.322505 53.4934 
L 124.126402 53.044485 
L 132.9303 52.395472 
L 141.734198 51.53877 
L 150.538096 50.467327 
L 159.341993 49.179907 
L 170.346865 47.296511 
L 190.155635 43.762538 
L 194.557584 43.190021 
L 198.959533 42.804236 
L 203.361482 42.649942 
L 207.763431 42.748858 
L 212.16538 43.092324 
L 216.567328 43.644411 
L 223.170252 44.749265 
L 238.577073 47.766156 
L 247.38097 49.360441 
L 256.184868 50.712272 
L 264.988766 51.793425 
L 273.792664 52.617929 
L 282.596561 53.216315 
L 291.400459 53.616279 
L 302.405331 53.863357 
L 313.410203 53.842915 
L 324.415075 53.553166 
L 333.218973 53.117544 
L 342.022871 52.48891 
L 350.826769 51.655956 
L 359.630666 50.609272 
L 368.434564 49.345491 
L 377.238462 47.877764 
L 401.449181 43.566361 
L 405.851129 43.024277 
L 410.253078 42.677947 
L 414.655027 42.566675 
L 419.056976 42.704137 
L 423.458925 43.073572 
L 427.860874 43.633618 
L 434.463797 44.714304 
L 460.87549 49.418645 
L 469.679388 50.670722 
L 478.483286 51.70527 
L 482.885234 52.141691 
L 482.885234 52.141691 
" clip-path="url(#pd2f0c45155)" style="fill: none; stroke-dasharray: 2.96,1.28; stroke-dashoffset: 0; stroke: #cc79a7; stroke-opacity: 0.55; stroke-width: 0.8"/>
   </g>
   <g id="patch_3">
    <path d="M 41.479813 131.074857 
L 41.479813 38.352 
" style="fill: none; stroke: #000000; stroke-width: 0.8; stroke-linejoin: miter; stroke-linecap: square"/>
   </g>
   <g id="patch_4">
    <path d="M 41.479813 131.074857 
L 503.90454 131.074857 
" style="fill: none; stroke: #000000; stroke-width: 0.8; stroke-linejoin: miter; stroke-linecap: square"/>
   </g>
   <g id="text_8">
    <!-- a  OSNR with solar background (solid) and sky-only baseline (dashed) -->
    <g transform="translate(132.633895 32.352) scale(0.09 -0.09)">
     <defs>
      <path id="ArialMT-61" d="M 2588 409 
Q 2275 144 1986 34 
Q 1697 -75 1366 -75 
Q 819 -75 525 192 
Q 231 459 231 875 
Q 231 1119 342 1320 
Q 453 1522 633 1644 
Q 813 1766 1038 1828 
Q 1203 1872 1538 1913 
Q 2219 1994 2541 2106 
Q 2544 2222 2544 2253 
Q 2544 2597 2384 2738 
Q 2169 2928 1744 2928 
Q 1347 2928 1158 2789 
Q 969 2650 878 2297 
L 328 2372 
Q 403 2725 575 2942 
Q 747 3159 1072 3276 
Q 1397 3394 1825 3394 
Q 2250 3394 2515 3294 
Q 2781 3194 2906 3042 
Q 3031 2891 3081 2659 
Q 3109 2516 3109 2141 
L 3109 1391 
Q 3109 606 3145 398 
Q 3181 191 3288 0 
L 2700 0 
Q 2613 175 2588 409 
z
M 2541 1666 
Q 2234 1541 1622 1453 
Q 1275 1403 1131 1340 
Q 988 1278 909 1158 
Q 831 1038 831 891 
Q 831 666 1001 516 
Q 1172 366 1500 366 
Q 1825 366 2078 508 
Q 2331 650 2450 897 
Q 2541 1088 2541 1459 
L 2541 1666 
z
" transform="scale(0.015625)"/>
      <path id="ArialMT-77" d="M 1034 0 
L 19 3319 
L 600 3319 
L 1128 1403 
L 1325 691 
Q 1338 744 1497 1375 
L 2025 3319 
L 2603 3319 
L 3100 1394 
L 3266 759 
L 3456 1400 
L 4025 3319 
L 4572 3319 
L 3534 0 
L 2950 0 
L 2422 1988 
L 2294 2553 
L 1622 0 
L 1034 0 
z
" transform="scale(0.015625)"/>
      <path id="ArialMT-74" d="M 1650 503 
L 1731 6 
Q 1494 -44 1306 -44 
Q 1000 -44 831 53 
Q 663 150 594 308 
Q 525 466 525 972 
L 525 2881 
L 113 2881 
L 113 3319 
L 525 3319 
L 525 4141 
L 1084 4478 
L 1084 3319 
L 1650 3319 
L 1650 2881 
L 1084 2881 
L 1084 941 
Q 1084 700 1114 631 
Q 1144 563 1211 522 
Q 1278 481 1403 481 
Q 1497 481 1650 503 
z
" transform="scale(0.015625)"/>
      <path id="ArialMT-68" d="M 422 0 
L 422 4581 
L 984 4581 
L 984 2938 
Q 1378 3394 1978 3394 
Q 2347 3394 2619 3248 
Q 2891 3103 3008 2847 
Q 3125 2591 3125 2103 
L 3125 0 
L 2563 0 
L 2563 2103 
Q 2563 2525 2380 2717 
Q 2197 2909 1863 2909 
Q 1613 2909 1392 2779 
Q 1172 2650 1078 2428 
Q 984 2206 984 1816 
L 984 0 
L 422 0 
z
" transform="scale(0.015625)"/>
      <path id="ArialMT-73" d="M 197 991 
L 753 1078 
Q 800 744 1014 566 
Q 1228 388 1613 388 
Q 2000 388 2187 545 
Q 2375 703 2375 916 
Q 2375 1106 2209 1216 
Q 2094 1291 1634 1406 
Q 1016 1563 777 1677 
Q 538 1791 414 1992 
Q 291 2194 291 2438 
Q 291 2659 392 2848 
Q 494 3038 669 3163 
Q 800 3259 1026 3326 
Q 1253 3394 1513 3394 
Q 1903 3394 2198 3281 
Q 2494 3169 2634 2976 
Q 2775 2784 2828 2463 
L 2278 2388 
Q 2241 2644 2061 2787 
Q 1881 2931 1553 2931 
Q 1166 2931 1000 2803 
Q 834 2675 834 2503 
Q 834 2394 903 2306 
Q 972 2216 1119 2156 
Q 1203 2125 1616 2013 
Q 2213 1853 2448 1751 
Q 2684 1650 2818 1456 
Q 2953 1263 2953 975 
Q 2953 694 2789 445 
Q 2625 197 2315 61 
Q 2006 -75 1616 -75 
Q 969 -75 630 194 
Q 291 463 197 991 
z
" transform="scale(0.015625)"/>
      <path id="ArialMT-6f" d="M 213 1659 
Q 213 2581 725 3025 
Q 1153 3394 1769 3394 
Q 2453 3394 2887 2945 
Q 3322 2497 3322 1706 
Q 3322 1066 3130 698 
Q 2938 331 2570 128 
Q 2203 -75 1769 -75 
Q 1072 -75 642 372 
Q 213 819 213 1659 
z
M 791 1659 
Q 791 1022 1069 705 
Q 1347 388 1769 388 
Q 2188 388 2466 706 
Q 2744 1025 2744 1678 
Q 2744 2294 2464 2611 
Q 2184 2928 1769 2928 
Q 1347 2928 1069 2612 
Q 791 2297 791 1659 
z
" transform="scale(0.015625)"/>
      <path id="ArialMT-72" d="M 416 0 
L 416 3319 
L 922 3319 
L 922 2816 
Q 1116 3169 1280 3281 
Q 1444 3394 1641 3394 
Q 1925 3394 2219 3213 
L 2025 2691 
Q 1819 2813 1613 2813 
Q 1428 2813 1281 2702 
Q 1134 2591 1072 2394 
Q 978 2094 978 1738 
L 978 0 
L 416 0 
z
" transform="scale(0.015625)"/>
      <path id="ArialMT-62" d="M 941 0 
L 419 0 
L 419 4581 
L 981 4581 
L 981 2947 
Q 1338 3394 1891 3394 
Q 2197 3394 2470 3270 
Q 2744 3147 2920 2923 
Q 3097 2700 3197 2384 
Q 3297 2069 3297 1709 
Q 3297 856 2875 390 
Q 2453 -75 1863 -75 
Q 1275 -75 941 416 
L 941 0 
z
M 934 1684 
Q 934 1088 1097 822 
Q 1363 388 1816 388 
Q 2184 388 2453 708 
Q 2722 1028 2722 1663 
Q 2722 2313 2464 2622 
Q 2206 2931 1841 2931 
Q 1472 2931 1203 2611 
Q 934 2291 934 1684 
z
" transform="scale(0.015625)"/>
      <path id="ArialMT-63" d="M 2588 1216 
L 3141 1144 
Q 3050 572 2676 248 
Q 2303 -75 1759 -75 
Q 1078 -75 664 370 
Q 250 816 250 1647 
Q 250 2184 428 2587 
Q 606 2991 970 3192 
Q 1334 3394 1763 3394 
Q 2303 3394 2647 3120 
Q 2991 2847 3088 2344 
L 2541 2259 
Q 2463 2594 2264 2762 
Q 2066 2931 1784 2931 
Q 1359 2931 1093 2626 
Q 828 2322 828 1663 
Q 828 994 1084 691 
Q 1341 388 1753 388 
Q 2084 388 2306 591 
Q 2528 794 2588 1216 
z
" transform="scale(0.015625)"/>
      <path id="ArialMT-75" d="M 2597 0 
L 2597 488 
Q 2209 -75 1544 -75 
Q 1250 -75 995 37 
Q 741 150 617 320 
Q 494 491 444 738 
Q 409 903 409 1263 
L 409 3319 
L 972 3319 
L 972 1478 
Q 972 1038 1006 884 
Q 1059 663 1231 536 
Q 1403 409 1656 409 
Q 1909 409 2131 539 
Q 2353 669 2445 892 
Q 2538 1116 2538 1541 
L 2538 3319 
L 3100 3319 
L 3100 0 
L 2597 0 
z
" transform="scale(0.015625)"/>
      <path id="ArialMT-79" d="M 397 -1278 
L 334 -750 
Q 519 -800 656 -800 
Q 844 -800 956 -737 
Q 1069 -675 1141 -563 
Q 1194 -478 1313 -144 
Q 1328 -97 1363 -6 
L 103 3319 
L 709 3319 
L 1400 1397 
Q 1534 1031 1641 628 
Q 1738 1016 1872 1384 
L 2581 3319 
L 3144 3319 
L 1881 -56 
Q 1678 -603 1566 -809 
Q 1416 -1088 1222 -1217 
Q 1028 -1347 759 -1347 
Q 597 -1347 397 -1278 
z
" transform="scale(0.015625)"/>
     </defs>
     <use xlink:href="#ArialMT-61"/>
     <use xlink:href="#ArialMT-20" transform="translate(55.615234 0)"/>
     <use xlink:href="#ArialMT-20" transform="translate(83.398438 0)"/>
     <use xlink:href="#ArialMT-4f" transform="translate(111.181641 0)"/>
     <use xlink:href="#ArialMT-53" transform="translate(188.964844 0)"/>
     <use xlink:href="#ArialMT-4e" transform="translate(255.664062 0)"/>
     <use xlink:href="#ArialMT-52" transform="translate(327.880859 0)"/>
     <use xlink:href="#ArialMT-20" transform="translate(400.097656 0)"/>
     <use xlink:href="#ArialMT-77" transform="translate(427.880859 0)"/>
     <use xlink:href="#ArialMT-69" transform="translate(500.097656 0)"/>
     <use xlink:href="#ArialMT-74" transform="translate(522.314453 0)"/>
     <use xlink:href="#ArialMT-68" transform="translate(550.097656 0)"/>
     <use xlink:href="#ArialMT-20" transform="translate(605.712891 0)"/>
     <use xlink:href="#ArialMT-73" transform="translate(633.496094 0)"/>
     <use xlink:href="#ArialMT-6f" transform="translate(683.496094 0)"/>
     <use xlink:href="#ArialMT-6c" transform="translate(739.111328 0)"/>
     <use xlink:href="#ArialMT-61" transform="translate(761.328125 0)"/>
     <use xlink:href="#ArialMT-72" transform="translate(816.943359 0)"/>
     <use xlink:href="#ArialMT-20" transform="translate(850.244141 0)"/>
     <use xlink:href="#ArialMT-62" transform="translate(878.027344 0)"/>
     <use xlink:href="#ArialMT-61" transform="translate(933.642578 0)"/>
     <use xlink:href="#ArialMT-63" transform="translate(989.257812 0)"/>
     <use xlink:href="#ArialMT-6b" transform="translate(1039.257812 0)"/>
     <use xlink:href="#ArialMT-67" transform="translate(1089.257812 0)"/>
     <use xlink:href="#ArialMT-72" transform="translate(1144.873047 0)"/>
     <use xlink:href="#ArialMT-6f" transform="translate(1178.173828 0)"/>
     <use xlink:href="#ArialMT-75" transform="translate(1233.789062 0)"/>
     <use xlink:href="#ArialMT-6e" transform="translate(1289.404297 0)"/>
     <use xlink:href="#ArialMT-64" transform="translate(1345.019531 0)"/>
     <use xlink:href="#ArialMT-20" transform="translate(1400.634766 0)"/>
     <use xlink:href="#ArialMT-28" transform="translate(1428.417969 0)"/>
     <use xlink:href="#ArialMT-73" transform="translate(1461.71875 0)"/>
     <use xlink:href="#ArialMT-6f" transform="translate(1511.71875 0)"/>
     <use xlink:href="#ArialMT-6c" transform="translate(1567.333984 0)"/>
     <use xlink:href="#ArialMT-69" transform="translate(1589.550781 0)"/>
     <use xlink:href="#ArialMT-64" transform="translate(1611.767578 0)"/>
     <use xlink:href="#ArialMT-29" transform="translate(1667.382812 0)"/>
     <use xlink:href="#ArialMT-20" transform="translate(1700.683594 0)"/>
     <use xlink:href="#ArialMT-61" transform="translate(1728.466797 0)"/>
     <use xlink:href="#ArialMT-6e" transform="translate(1784.082031 0)"/>
     <use xlink:href="#ArialMT-64" transform="translate(1839.697266 0)"/>
     <use xlink:href="#ArialMT-20" transform="translate(1895.3125 0)"/>
     <use xlink:href="#ArialMT-73" transform="translate(1923.095703 0)"/>
     <use xlink:href="#ArialMT-6b" transform="translate(1973.095703 0)"/>
     <use xlink:href="#ArialMT-79" transform="translate(2023.095703 0)"/>
     <use xlink:href="#ArialMT-2d" transform="translate(2073.095703 0)"/>
     <use xlink:href="#ArialMT-6f" transform="translate(2106.396484 0)"/>
     <use xlink:href="#ArialMT-6e" transform="translate(2162.011719 0)"/>
     <use xlink:href="#ArialMT-6c" transform="translate(2217.626953 0)"/>
     <use xlink:href="#ArialMT-79" transform="translate(2239.84375 0)"/>
     <use xlink:href="#ArialMT-20" transform="translate(2289.84375 0)"/>
     <use xlink:href="#ArialMT-62" transform="translate(2317.626953 0)"/>
     <use xlink:href="#ArialMT-61" transform="translate(2373.242188 0)"/>
     <use xlink:href="#ArialMT-73" transform="translate(2428.857422 0)"/>
     <use xlink:href="#ArialMT-65" transform="translate(2478.857422 0)"/>
     <use xlink:href="#ArialMT-6c" transform="translate(2534.472656 0)"/>
     <use xlink:href="#ArialMT-69" transform="translate(2556.689453 0)"/>
     <use xlink:href="#ArialMT-6e" transform="translate(2578.90625 0)"/>
     <use xlink:href="#ArialMT-65" transform="translate(2634.521484 0)"/>
     <use xlink:href="#ArialMT-20" transform="translate(2690.136719 0)"/>
     <use xlink:href="#ArialMT-28" transform="translate(2717.919922 0)"/>
     <use xlink:href="#ArialMT-64" transform="translate(2751.220703 0)"/>
     <use xlink:href="#ArialMT-61" transform="translate(2806.835938 0)"/>
     <use xlink:href="#ArialMT-73" transform="translate(2862.451172 0)"/>
     <use xlink:href="#ArialMT-68" transform="translate(2912.451172 0)"/>
     <use xlink:href="#ArialMT-65" transform="translate(2968.066406 0)"/>
     <use xlink:href="#ArialMT-64" transform="translate(3023.681641 0)"/>
     <use xlink:href="#ArialMT-29" transform="translate(3079.296875 0)"/>
    </g>
   </g>
   <g id="legend_1">
    <g id="line2d_31">
     <path d="M 304.709196 84.146225 
L 310.909196 84.146225 
L 317.109196 84.146225 
" style="fill: none; stroke: #d55e00; stroke-width: 1.2; stroke-linecap: square"/>
    </g>
    <g id="text_9">
     <!-- L166: S86-S96 -->
     <g transform="translate(322.069196 86.316225) scale(0.062 -0.062)">
      <defs>
       <path id="ArialMT-4c" d="M 469 0 
L 469 4581 
L 1075 4581 
L 1075 541 
L 3331 541 
L 3331 0 
L 469 0 
z
" transform="scale(0.015625)"/>
       <path id="ArialMT-36" d="M 3184 3459 
L 2625 3416 
Q 2550 3747 2413 3897 
Q 2184 4138 1850 4138 
Q 1581 4138 1378 3988 
Q 1113 3794 959 3422 
Q 806 3050 800 2363 
Q 1003 2672 1297 2822 
Q 1591 2972 1913 2972 
Q 2475 2972 2870 2558 
Q 3266 2144 3266 1488 
Q 3266 1056 3080 686 
Q 2894 316 2569 119 
Q 2244 -78 1831 -78 
Q 1128 -78 684 439 
Q 241 956 241 2144 
Q 241 3472 731 4075 
Q 1159 4600 1884 4600 
Q 2425 4600 2770 4297 
Q 3116 3994 3184 3459 
z
M 888 1484 
Q 888 1194 1011 928 
Q 1134 663 1356 523 
Q 1578 384 1822 384 
Q 2178 384 2434 671 
Q 2691 959 2691 1453 
Q 2691 1928 2437 2201 
Q 2184 2475 1800 2475 
Q 1419 2475 1153 2201 
Q 888 1928 888 1484 
z
" transform="scale(0.015625)"/>
       <path id="ArialMT-3a" d="M 578 2678 
L 578 3319 
L 1219 3319 
L 1219 2678 
L 578 2678 
z
M 578 0 
L 578 641 
L 1219 641 
L 1219 0 
L 578 0 
z
" transform="scale(0.015625)"/>
       <path id="ArialMT-38" d="M 1131 2484 
Q 781 2613 612 2850 
Q 444 3088 444 3419 
Q 444 3919 803 4259 
Q 1163 4600 1759 4600 
Q 2359 4600 2725 4251 
Q 3091 3903 3091 3403 
Q 3091 3084 2923 2848 
Q 2756 2613 2416 2484 
Q 2838 2347 3058 2040 
Q 3278 1734 3278 1309 
Q 3278 722 2862 322 
Q 2447 -78 1769 -78 
Q 1091 -78 675 323 
Q 259 725 259 1325 
Q 259 1772 486 2073 
Q 713 2375 1131 2484 
z
M 1019 3438 
Q 1019 3113 1228 2906 
Q 1438 2700 1772 2700 
Q 2097 2700 2305 2904 
Q 2513 3109 2513 3406 
Q 2513 3716 2298 3927 
Q 2084 4138 1766 4138 
Q 1444 4138 1231 3931 
Q 1019 3725 1019 3438 
z
M 838 1322 
Q 838 1081 952 856 
Q 1066 631 1291 507 
Q 1516 384 1775 384 
Q 2178 384 2440 643 
Q 2703 903 2703 1303 
Q 2703 1709 2433 1975 
Q 2163 2241 1756 2241 
Q 1359 2241 1098 1978 
Q 838 1716 838 1322 
z
" transform="scale(0.015625)"/>
       <path id="ArialMT-39" d="M 350 1059 
L 891 1109 
Q 959 728 1153 556 
Q 1347 384 1650 384 
Q 1909 384 2104 503 
Q 2300 622 2425 820 
Q 2550 1019 2634 1356 
Q 2719 1694 2719 2044 
Q 2719 2081 2716 2156 
Q 2547 1888 2255 1720 
Q 1963 1553 1622 1553 
Q 1053 1553 659 1965 
Q 266 2378 266 3053 
Q 266 3750 677 4175 
Q 1088 4600 1706 4600 
Q 2153 4600 2523 4359 
Q 2894 4119 3086 3673 
Q 3278 3228 3278 2384 
Q 3278 1506 3087 986 
Q 2897 466 2520 194 
Q 2144 -78 1638 -78 
Q 1100 -78 759 220 
Q 419 519 350 1059 
z
M 2653 3081 
Q 2653 3566 2395 3850 
Q 2138 4134 1775 4134 
Q 1400 4134 1122 3828 
Q 844 3522 844 3034 
Q 844 2597 1108 2323 
Q 1372 2050 1759 2050 
Q 2150 2050 2401 2323 
Q 2653 2597 2653 3081 
z
" transform="scale(0.015625)"/>
      </defs>
      <use xlink:href="#ArialMT-4c"/>
      <use xlink:href="#ArialMT-31" transform="translate(55.615234 0)"/>
      <use xlink:href="#ArialMT-36" transform="translate(111.230469 0)"/>
      <use xlink:href="#ArialMT-36" transform="translate(166.845703 0)"/>
      <use xlink:href="#ArialMT-3a" transform="translate(222.460938 0)"/>
      <use xlink:href="#ArialMT-20" transform="translate(250.244141 0)"/>
      <use xlink:href="#ArialMT-53" transform="translate(278.027344 0)"/>
      <use xlink:href="#ArialMT-38" transform="translate(344.726562 0)"/>
      <use xlink:href="#ArialMT-36" transform="translate(400.341797 0)"/>
      <use xlink:href="#ArialMT-2d" transform="translate(455.957031 0)"/>
      <use xlink:href="#ArialMT-53" transform="translate(489.257812 0)"/>
      <use xlink:href="#ArialMT-39" transform="translate(555.957031 0)"/>
      <use xlink:href="#ArialMT-36" transform="translate(611.572266 0)"/>
     </g>
    </g>
    <g id="line2d_32">
     <path d="M 375.831915 84.146225 
L 382.031915 84.146225 
L 388.231915 84.146225 
" style="fill: none; stroke: #0072b2; stroke-width: 1.2; stroke-linecap: square"/>
    </g>
    <g id="text_10">
     <!-- L137: S71-S81 -->
     <g transform="translate(393.191915 86.316225) scale(0.062 -0.062)">
      <defs>
       <path id="ArialMT-37" d="M 303 3981 
L 303 4522 
L 3269 4522 
L 3269 4084 
Q 2831 3619 2401 2847 
Q 1972 2075 1738 1259 
Q 1569 684 1522 0 
L 944 0 
Q 953 541 1156 1306 
Q 1359 2072 1739 2783 
Q 2119 3494 2547 3981 
L 303 3981 
z
" transform="scale(0.015625)"/>
      </defs>
      <use xlink:href="#ArialMT-4c"/>
      <use xlink:href="#ArialMT-31" transform="translate(55.615234 0)"/>
      <use xlink:href="#ArialMT-33" transform="translate(111.230469 0)"/>
      <use xlink:href="#ArialMT-37" transform="translate(166.845703 0)"/>
      <use xlink:href="#ArialMT-3a" transform="translate(222.460938 0)"/>
      <use xlink:href="#ArialMT-20" transform="translate(250.244141 0)"/>
      <use xlink:href="#ArialMT-53" transform="translate(278.027344 0)"/>
      <use xlink:href="#ArialMT-37" transform="translate(344.726562 0)"/>
      <use xlink:href="#ArialMT-31" transform="translate(400.341797 0)"/>
      <use xlink:href="#ArialMT-2d" transform="translate(455.957031 0)"/>
      <use xlink:href="#ArialMT-53" transform="translate(489.257812 0)"/>
      <use xlink:href="#ArialMT-38" transform="translate(555.957031 0)"/>
      <use xlink:href="#ArialMT-31" transform="translate(611.572266 0)"/>
     </g>
    </g>
    <g id="line2d_33">
     <path d="M 446.954634 84.146225 
L 453.154634 84.146225 
L 459.354634 84.146225 
" style="fill: none; stroke: #cc79a7; stroke-width: 1.2; stroke-linecap: square"/>
    </g>
    <g id="text_11">
     <!-- L11: S5-S15 -->
     <g transform="translate(464.314634 86.316225) scale(0.062 -0.062)">
      <defs>
       <path id="ArialMT-35" d="M 266 1200 
L 856 1250 
Q 922 819 1161 601 
Q 1400 384 1738 384 
Q 2144 384 2425 690 
Q 2706 997 2706 1503 
Q 2706 1984 2436 2262 
Q 2166 2541 1728 2541 
Q 1456 2541 1237 2417 
Q 1019 2294 894 2097 
L 366 2166 
L 809 4519 
L 3088 4519 
L 3088 3981 
L 1259 3981 
L 1013 2750 
Q 1425 3038 1878 3038 
Q 2478 3038 2890 2622 
Q 3303 2206 3303 1553 
Q 3303 931 2941 478 
Q 2500 -78 1738 -78 
Q 1113 -78 717 272 
Q 322 622 266 1200 
z
" transform="scale(0.015625)"/>
      </defs>
      <use xlink:href="#ArialMT-4c"/>
      <use xlink:href="#ArialMT-31" transform="translate(55.615234 0)"/>
      <use xlink:href="#ArialMT-31" transform="translate(103.855469 0)"/>
      <use xlink:href="#ArialMT-3a" transform="translate(159.470703 0)"/>
      <use xlink:href="#ArialMT-20" transform="translate(187.253906 0)"/>
      <use xlink:href="#ArialMT-53" transform="translate(215.037109 0)"/>
      <use xlink:href="#ArialMT-35" transform="translate(281.736328 0)"/>
      <use xlink:href="#ArialMT-2d" transform="translate(337.351562 0)"/>
      <use xlink:href="#ArialMT-53" transform="translate(370.652344 0)"/>
      <use xlink:href="#ArialMT-31" transform="translate(437.351562 0)"/>
      <use xlink:href="#ArialMT-35" transform="translate(492.966797 0)"/>
     </g>
    </g>
   </g>
  </g>
  <g id="axes_2">
   <g id="patch_5">
    <path d="M 41.479813 236.063429 
L 503.90454 236.063429 
L 503.90454 155.434857 
L 41.479813 155.434857 
z
" style="fill: #ffffff"/>
   </g>
   <g id="matplotlib.axis_3">
    <g id="xtick_7">
     <g id="line2d_34">
      <path d="M 62.499118 236.063429 
L 62.499118 155.434857 
" clip-path="url(#p47b5ff371e)" style="fill: none; stroke: #b0b0b0; stroke-opacity: 0.25; stroke-width: 0.3; stroke-linecap: square"/>
     </g>
     <g id="line2d_35">
      <g>
       <use xlink:href="#mc8828ea309" x="62.499118" y="236.063429" style="stroke: #000000; stroke-width: 0.6"/>
      </g>
     </g>
    </g>
    <g id="xtick_8">
     <g id="line2d_36">
      <path d="M 150.538096 236.063429 
L 150.538096 155.434857 
" clip-path="url(#p47b5ff371e)" style="fill: none; stroke: #b0b0b0; stroke-opacity: 0.25; stroke-width: 0.3; stroke-linecap: square"/>
     </g>
     <g id="line2d_37">
      <g>
       <use xlink:href="#mc8828ea309" x="150.538096" y="236.063429" style="stroke: #000000; stroke-width: 0.6"/>
      </g>
     </g>
    </g>
    <g id="xtick_9">
     <g id="line2d_38">
      <path d="M 238.577073 236.063429 
L 238.577073 155.434857 
" clip-path="url(#p47b5ff371e)" style="fill: none; stroke: #b0b0b0; stroke-opacity: 0.25; stroke-width: 0.3; stroke-linecap: square"/>
     </g>
     <g id="line2d_39">
      <g>
       <use xlink:href="#mc8828ea309" x="238.577073" y="236.063429" style="stroke: #000000; stroke-width: 0.6"/>
      </g>
     </g>
    </g>
    <g id="xtick_10">
     <g id="line2d_40">
      <path d="M 326.61605 236.063429 
L 326.61605 155.434857 
" clip-path="url(#p47b5ff371e)" style="fill: none; stroke: #b0b0b0; stroke-opacity: 0.25; stroke-width: 0.3; stroke-linecap: square"/>
     </g>
     <g id="line2d_41">
      <g>
       <use xlink:href="#mc8828ea309" x="326.61605" y="236.063429" style="stroke: #000000; stroke-width: 0.6"/>
      </g>
     </g>
    </g>
    <g id="xtick_11">
     <g id="line2d_42">
      <path d="M 414.655027 236.063429 
L 414.655027 155.434857 
" clip-path="url(#p47b5ff371e)" style="fill: none; stroke: #b0b0b0; stroke-opacity: 0.25; stroke-width: 0.3; stroke-linecap: square"/>
     </g>
     <g id="line2d_43">
      <g>
       <use xlink:href="#mc8828ea309" x="414.655027" y="236.063429" style="stroke: #000000; stroke-width: 0.6"/>
      </g>
     </g>
    </g>
    <g id="xtick_12">
     <g id="line2d_44">
      <path d="M 502.694004 236.063429 
L 502.694004 155.434857 
" clip-path="url(#p47b5ff371e)" style="fill: none; stroke: #b0b0b0; stroke-opacity: 0.25; stroke-width: 0.3; stroke-linecap: square"/>
     </g>
     <g id="line2d_45">
      <g>
       <use xlink:href="#mc8828ea309" x="502.694004" y="236.063429" style="stroke: #000000; stroke-width: 0.6"/>
      </g>
     </g>
    </g>
   </g>
   <g id="matplotlib.axis_4">
    <g id="ytick_7">
     <g id="line2d_46">
      <path d="M 41.479813 232.398494 
L 503.90454 232.398494 
" clip-path="url(#p47b5ff371e)" style="fill: none; stroke: #b0b0b0; stroke-opacity: 0.25; stroke-width: 0.3; stroke-linecap: square"/>
     </g>
     <g id="line2d_47">
      <g>
       <use xlink:href="#m445eea771b" x="41.479813" y="232.398494" style="stroke: #000000; stroke-width: 0.6"/>
      </g>
     </g>
     <g id="text_12">
      <!-- 0 -->
      <g transform="translate(31.087156 234.903728) scale(0.07 -0.07)">
       <use xlink:href="#ArialMT-30"/>
      </g>
     </g>
    </g>
    <g id="ytick_8">
     <g id="line2d_48">
      <path d="M 41.479813 205.404415 
L 503.90454 205.404415 
" clip-path="url(#p47b5ff371e)" style="fill: none; stroke: #b0b0b0; stroke-opacity: 0.25; stroke-width: 0.3; stroke-linecap: square"/>
     </g>
     <g id="line2d_49">
      <g>
       <use xlink:href="#m445eea771b" x="41.479813" y="205.404415" style="stroke: #000000; stroke-width: 0.6"/>
      </g>
     </g>
     <g id="text_13">
      <!-- 20 -->
      <g transform="translate(27.1945 207.90965) scale(0.07 -0.07)">
       <use xlink:href="#ArialMT-32"/>
       <use xlink:href="#ArialMT-30" transform="translate(55.615234 0)"/>
      </g>
     </g>
    </g>
    <g id="ytick_9">
     <g id="line2d_50">
      <path d="M 41.479813 178.410337 
L 503.90454 178.410337 
" clip-path="url(#p47b5ff371e)" style="fill: none; stroke: #b0b0b0; stroke-opacity: 0.25; stroke-width: 0.3; stroke-linecap: square"/>
     </g>
     <g id="line2d_51">
      <g>
       <use xlink:href="#m445eea771b" x="41.479813" y="178.410337" style="stroke: #000000; stroke-width: 0.6"/>
      </g>
     </g>
     <g id="text_14">
      <!-- 40 -->
      <g transform="translate(27.1945 180.915572) scale(0.07 -0.07)">
       <defs>
        <path id="ArialMT-34" d="M 2069 0 
L 2069 1097 
L 81 1097 
L 81 1613 
L 2172 4581 
L 2631 4581 
L 2631 1613 
L 3250 1613 
L 3250 1097 
L 2631 1097 
L 2631 0 
L 2069 0 
z
M 2069 1613 
L 2069 3678 
L 634 1613 
L 2069 1613 
z
" transform="scale(0.015625)"/>
       </defs>
       <use xlink:href="#ArialMT-34"/>
       <use xlink:href="#ArialMT-30" transform="translate(55.615234 0)"/>
      </g>
     </g>
    </g>
    <g id="text_15">
     <!-- Solar-induced -->
     <g transform="translate(12.92625 220.429143) rotate(-90) scale(0.08 -0.08)">
      <use xlink:href="#ArialMT-53"/>
      <use xlink:href="#ArialMT-6f" transform="translate(66.699219 0)"/>
      <use xlink:href="#ArialMT-6c" transform="translate(122.314453 0)"/>
      <use xlink:href="#ArialMT-61" transform="translate(144.53125 0)"/>
      <use xlink:href="#ArialMT-72" transform="translate(200.146484 0)"/>
      <use xlink:href="#ArialMT-2d" transform="translate(233.447266 0)"/>
      <use xlink:href="#ArialMT-69" transform="translate(266.748047 0)"/>
      <use xlink:href="#ArialMT-6e" transform="translate(288.964844 0)"/>
      <use xlink:href="#ArialMT-64" transform="translate(344.580078 0)"/>
      <use xlink:href="#ArialMT-75" transform="translate(400.195312 0)"/>
      <use xlink:href="#ArialMT-63" transform="translate(455.810547 0)"/>
      <use xlink:href="#ArialMT-65" transform="translate(505.810547 0)"/>
      <use xlink:href="#ArialMT-64" transform="translate(561.425781 0)"/>
     </g>
     <!-- OSNR penalty (dB) -->
     <g transform="translate(21.51075 229.982268) rotate(-90) scale(0.08 -0.08)">
      <defs>
       <path id="ArialMT-70" d="M 422 -1272 
L 422 3319 
L 934 3319 
L 934 2888 
Q 1116 3141 1344 3267 
Q 1572 3394 1897 3394 
Q 2322 3394 2647 3175 
Q 2972 2956 3137 2557 
Q 3303 2159 3303 1684 
Q 3303 1175 3120 767 
Q 2938 359 2589 142 
Q 2241 -75 1856 -75 
Q 1575 -75 1351 44 
Q 1128 163 984 344 
L 984 -1272 
L 422 -1272 
z
M 931 1641 
Q 931 1000 1190 694 
Q 1450 388 1819 388 
Q 2194 388 2461 705 
Q 2728 1022 2728 1688 
Q 2728 2322 2467 2637 
Q 2206 2953 1844 2953 
Q 1484 2953 1207 2617 
Q 931 2281 931 1641 
z
" transform="scale(0.015625)"/>
      </defs>
      <use xlink:href="#ArialMT-4f"/>
      <use xlink:href="#ArialMT-53" transform="translate(77.783203 0)"/>
      <use xlink:href="#ArialMT-4e" transform="translate(144.482422 0)"/>
      <use xlink:href="#ArialMT-52" transform="translate(216.699219 0)"/>
      <use xlink:href="#ArialMT-20" transform="translate(288.916016 0)"/>
      <use xlink:href="#ArialMT-70" transform="translate(316.699219 0)"/>
      <use xlink:href="#ArialMT-65" transform="translate(372.314453 0)"/>
      <use xlink:href="#ArialMT-6e" transform="translate(427.929688 0)"/>
      <use xlink:href="#ArialMT-61" transform="translate(483.544922 0)"/>
      <use xlink:href="#ArialMT-6c" transform="translate(539.160156 0)"/>
      <use xlink:href="#ArialMT-74" transform="translate(561.376953 0)"/>
      <use xlink:href="#ArialMT-79" transform="translate(589.160156 0)"/>
      <use xlink:href="#ArialMT-20" transform="translate(639.160156 0)"/>
      <use xlink:href="#ArialMT-28" transform="translate(666.943359 0)"/>
      <use xlink:href="#ArialMT-64" transform="translate(700.244141 0)"/>
      <use xlink:href="#ArialMT-42" transform="translate(755.859375 0)"/>
      <use xlink:href="#ArialMT-29" transform="translate(822.558594 0)"/>
     </g>
    </g>
   </g>
   <g id="line2d_52">
    <path d="M 62.499118 232.398494 
L 441.06672 232.398494 
L 443.267695 232.043731 
L 445.468669 167.993032 
L 447.669644 159.117626 
L 449.870618 159.099792 
L 452.071592 159.220747 
L 454.272567 173.482386 
L 456.473541 232.394887 
L 482.885234 232.398494 
L 482.885234 232.398494 
" clip-path="url(#p47b5ff371e)" style="fill: none; stroke: #d55e00; stroke-width: 1.2; stroke-linecap: square"/>
   </g>
   <g id="line2d_53">
    <path d="M 62.499118 232.398494 
L 176.949789 232.398494 
L 179.150763 229.513729 
L 181.351738 165.671267 
L 183.552712 159.103271 
L 185.753686 159.099794 
L 187.954661 159.369061 
L 190.155635 177.668645 
L 192.35661 232.398347 
L 482.885234 232.398494 
L 482.885234 232.398494 
" clip-path="url(#p47b5ff371e)" style="fill: none; stroke: #0072b2; stroke-width: 1.2; stroke-linecap: square"/>
   </g>
   <g id="line2d_54">
    <path d="M 62.499118 232.398494 
L 196.758559 232.398489 
L 198.959533 182.720452 
L 201.160507 159.651103 
L 203.361482 159.130826 
L 205.562456 159.135308 
L 207.763431 163.879601 
L 209.964405 222.001683 
L 212.16538 232.398494 
L 482.885234 232.398494 
L 482.885234 232.398494 
" clip-path="url(#p47b5ff371e)" style="fill: none; stroke: #cc79a7; stroke-width: 1.2; stroke-linecap: square"/>
   </g>
   <g id="patch_6">
    <path d="M 41.479813 236.063429 
L 41.479813 155.434857 
" style="fill: none; stroke: #000000; stroke-width: 0.8; stroke-linejoin: miter; stroke-linecap: square"/>
   </g>
   <g id="patch_7">
    <path d="M 41.479813 236.063429 
L 503.90454 236.063429 
" style="fill: none; stroke: #000000; stroke-width: 0.8; stroke-linejoin: miter; stroke-linecap: square"/>
   </g>
   <g id="text_16">
    <!-- b  OSNR loss attributable to solar background noise -->
    <g transform="translate(169.143661 149.434857) scale(0.09 -0.09)">
     <use xlink:href="#ArialMT-62"/>
     <use xlink:href="#ArialMT-20" transform="translate(55.615234 0)"/>
     <use xlink:href="#ArialMT-20" transform="translate(83.398438 0)"/>
     <use xlink:href="#ArialMT-4f" transform="translate(111.181641 0)"/>
     <use xlink:href="#ArialMT-53" transform="translate(188.964844 0)"/>
     <use xlink:href="#ArialMT-4e" transform="translate(255.664062 0)"/>
     <use xlink:href="#ArialMT-52" transform="translate(327.880859 0)"/>
     <use xlink:href="#ArialMT-20" transform="translate(400.097656 0)"/>
     <use xlink:href="#ArialMT-6c" transform="translate(427.880859 0)"/>
     <use xlink:href="#ArialMT-6f" transform="translate(450.097656 0)"/>
     <use xlink:href="#ArialMT-73" transform="translate(505.712891 0)"/>
     <use xlink:href="#ArialMT-73" transform="translate(555.712891 0)"/>
     <use xlink:href="#ArialMT-20" transform="translate(605.712891 0)"/>
     <use xlink:href="#ArialMT-61" transform="translate(633.496094 0)"/>
     <use xlink:href="#ArialMT-74" transform="translate(689.111328 0)"/>
     <use xlink:href="#ArialMT-74" transform="translate(716.894531 0)"/>
     <use xlink:href="#ArialMT-72" transform="translate(744.677734 0)"/>
     <use xlink:href="#ArialMT-69" transform="translate(777.978516 0)"/>
     <use xlink:href="#ArialMT-62" transform="translate(800.195312 0)"/>
     <use xlink:href="#ArialMT-75" transform="translate(855.810547 0)"/>
     <use xlink:href="#ArialMT-74" transform="translate(911.425781 0)"/>
     <use xlink:href="#ArialMT-61" transform="translate(939.208984 0)"/>
     <use xlink:href="#ArialMT-62" transform="translate(994.824219 0)"/>
     <use xlink:href="#ArialMT-6c" transform="translate(1050.439453 0)"/>
     <use xlink:href="#ArialMT-65" transform="translate(1072.65625 0)"/>
     <use xlink:href="#ArialMT-20" transform="translate(1128.271484 0)"/>
     <use xlink:href="#ArialMT-74" transform="translate(1156.054688 0)"/>
     <use xlink:href="#ArialMT-6f" transform="translate(1183.837891 0)"/>
     <use xlink:href="#ArialMT-20" transform="translate(1239.453125 0)"/>
     <use xlink:href="#ArialMT-73" transform="translate(1267.236328 0)"/>
     <use xlink:href="#ArialMT-6f" transform="translate(1317.236328 0)"/>
     <use xlink:href="#ArialMT-6c" transform="translate(1372.851562 0)"/>
     <use xlink:href="#ArialMT-61" transform="translate(1395.068359 0)"/>
     <use xlink:href="#ArialMT-72" transform="translate(1450.683594 0)"/>
     <use xlink:href="#ArialMT-20" transform="translate(1483.984375 0)"/>
     <use xlink:href="#ArialMT-62" transform="translate(1511.767578 0)"/>
     <use xlink:href="#ArialMT-61" transform="translate(1567.382812 0)"/>
     <use xlink:href="#ArialMT-63" transform="translate(1622.998047 0)"/>
     <use xlink:href="#ArialMT-6b" transform="translate(1672.998047 0)"/>
     <use xlink:href="#ArialMT-67" transform="translate(1722.998047 0)"/>
     <use xlink:href="#ArialMT-72" transform="translate(1778.613281 0)"/>
     <use xlink:href="#ArialMT-6f" transform="translate(1811.914062 0)"/>
     <use xlink:href="#ArialMT-75" transform="translate(1867.529297 0)"/>
     <use xlink:href="#ArialMT-6e" transform="translate(1923.144531 0)"/>
     <use xlink:href="#ArialMT-64" transform="translate(1978.759766 0)"/>
     <use xlink:href="#ArialMT-20" transform="translate(2034.375 0)"/>
     <use xlink:href="#ArialMT-6e" transform="translate(2062.158203 0)"/>
     <use xlink:href="#ArialMT-6f" transform="translate(2117.773438 0)"/>
     <use xlink:href="#ArialMT-69" transform="translate(2173.388672 0)"/>
     <use xlink:href="#ArialMT-73" transform="translate(2195.605469 0)"/>
     <use xlink:href="#ArialMT-65" transform="translate(2245.605469 0)"/>
    </g>
   </g>
  </g>
  <g id="axes_3">
   <g id="patch_8">
    <path d="M 41.479813 341.052 
L 503.90454 341.052 
L 503.90454 260.423429 
L 41.479813 260.423429 
z
" style="fill: #ffffff"/>
   </g>
   <g id="matplotlib.axis_5">
    <g id="xtick_13">
     <g id="line2d_55">
      <path d="M 62.499118 341.052 
L 62.499118 260.423429 
" clip-path="url(#p89b2bcf0a2)" style="fill: none; stroke: #b0b0b0; stroke-opacity: 0.25; stroke-width: 0.3; stroke-linecap: square"/>
     </g>
     <g id="line2d_56">
      <g>
       <use xlink:href="#mc8828ea309" x="62.499118" y="341.052" style="stroke: #000000; stroke-width: 0.6"/>
      </g>
     </g>
     <g id="text_17">
      <!-- 0 -->
      <g transform="translate(60.55279 352.562469) scale(0.07 -0.07)">
       <use xlink:href="#ArialMT-30"/>
      </g>
     </g>
    </g>
    <g id="xtick_14">
     <g id="line2d_57">
      <path d="M 150.538096 341.052 
L 150.538096 260.423429 
" clip-path="url(#p89b2bcf0a2)" style="fill: none; stroke: #b0b0b0; stroke-opacity: 0.25; stroke-width: 0.3; stroke-linecap: square"/>
     </g>
     <g id="line2d_58">
      <g>
       <use xlink:href="#mc8828ea309" x="150.538096" y="341.052" style="stroke: #000000; stroke-width: 0.6"/>
      </g>
     </g>
     <g id="text_18">
      <!-- 20 -->
      <g transform="translate(146.645439 352.562469) scale(0.07 -0.07)">
       <use xlink:href="#ArialMT-32"/>
       <use xlink:href="#ArialMT-30" transform="translate(55.615234 0)"/>
      </g>
     </g>
    </g>
    <g id="xtick_15">
     <g id="line2d_59">
      <path d="M 238.577073 341.052 
L 238.577073 260.423429 
" clip-path="url(#p89b2bcf0a2)" style="fill: none; stroke: #b0b0b0; stroke-opacity: 0.25; stroke-width: 0.3; stroke-linecap: square"/>
     </g>
     <g id="line2d_60">
      <g>
       <use xlink:href="#mc8828ea309" x="238.577073" y="341.052" style="stroke: #000000; stroke-width: 0.6"/>
      </g>
     </g>
     <g id="text_19">
      <!-- 40 -->
      <g transform="translate(234.684416 352.562469) scale(0.07 -0.07)">
       <use xlink:href="#ArialMT-34"/>
       <use xlink:href="#ArialMT-30" transform="translate(55.615234 0)"/>
      </g>
     </g>
    </g>
    <g id="xtick_16">
     <g id="line2d_61">
      <path d="M 326.61605 341.052 
L 326.61605 260.423429 
" clip-path="url(#p89b2bcf0a2)" style="fill: none; stroke: #b0b0b0; stroke-opacity: 0.25; stroke-width: 0.3; stroke-linecap: square"/>
     </g>
     <g id="line2d_62">
      <g>
       <use xlink:href="#mc8828ea309" x="326.61605" y="341.052" style="stroke: #000000; stroke-width: 0.6"/>
      </g>
     </g>
     <g id="text_20">
      <!-- 60 -->
      <g transform="translate(322.723394 352.562469) scale(0.07 -0.07)">
       <use xlink:href="#ArialMT-36"/>
       <use xlink:href="#ArialMT-30" transform="translate(55.615234 0)"/>
      </g>
     </g>
    </g>
    <g id="xtick_17">
     <g id="line2d_63">
      <path d="M 414.655027 341.052 
L 414.655027 260.423429 
" clip-path="url(#p89b2bcf0a2)" style="fill: none; stroke: #b0b0b0; stroke-opacity: 0.25; stroke-width: 0.3; stroke-linecap: square"/>
     </g>
     <g id="line2d_64">
      <g>
       <use xlink:href="#mc8828ea309" x="414.655027" y="341.052" style="stroke: #000000; stroke-width: 0.6"/>
      </g>
     </g>
     <g id="text_21">
      <!-- 80 -->
      <g transform="translate(410.762371 352.562469) scale(0.07 -0.07)">
       <use xlink:href="#ArialMT-38"/>
       <use xlink:href="#ArialMT-30" transform="translate(55.615234 0)"/>
      </g>
     </g>
    </g>
    <g id="xtick_18">
     <g id="line2d_65">
      <path d="M 502.694004 341.052 
L 502.694004 260.423429 
" clip-path="url(#p89b2bcf0a2)" style="fill: none; stroke: #b0b0b0; stroke-opacity: 0.25; stroke-width: 0.3; stroke-linecap: square"/>
     </g>
     <g id="line2d_66">
      <g>
       <use xlink:href="#mc8828ea309" x="502.694004" y="341.052" style="stroke: #000000; stroke-width: 0.6"/>
      </g>
     </g>
     <g id="text_22">
      <!-- 100 -->
      <g transform="translate(496.85502 352.562469) scale(0.07 -0.07)">
       <use xlink:href="#ArialMT-31"/>
       <use xlink:href="#ArialMT-30" transform="translate(55.615234 0)"/>
       <use xlink:href="#ArialMT-30" transform="translate(111.230469 0)"/>
      </g>
     </g>
    </g>
    <g id="text_23">
     <!-- Time from epoch (min) -->
     <g transform="translate(232.614676 363.777469) scale(0.08 -0.08)">
      <defs>
       <path id="ArialMT-54" d="M 1659 0 
L 1659 4041 
L 150 4041 
L 150 4581 
L 3781 4581 
L 3781 4041 
L 2266 4041 
L 2266 0 
L 1659 0 
z
" transform="scale(0.015625)"/>
       <path id="ArialMT-6d" d="M 422 0 
L 422 3319 
L 925 3319 
L 925 2853 
Q 1081 3097 1340 3245 
Q 1600 3394 1931 3394 
Q 2300 3394 2536 3241 
Q 2772 3088 2869 2813 
Q 3263 3394 3894 3394 
Q 4388 3394 4653 3120 
Q 4919 2847 4919 2278 
L 4919 0 
L 4359 0 
L 4359 2091 
Q 4359 2428 4304 2576 
Q 4250 2725 4106 2815 
Q 3963 2906 3769 2906 
Q 3419 2906 3187 2673 
Q 2956 2441 2956 1928 
L 2956 0 
L 2394 0 
L 2394 2156 
Q 2394 2531 2256 2718 
Q 2119 2906 1806 2906 
Q 1569 2906 1367 2781 
Q 1166 2656 1075 2415 
Q 984 2175 984 1722 
L 984 0 
L 422 0 
z
" transform="scale(0.015625)"/>
       <path id="ArialMT-66" d="M 556 0 
L 556 2881 
L 59 2881 
L 59 3319 
L 556 3319 
L 556 3672 
Q 556 4006 616 4169 
Q 697 4388 901 4523 
Q 1106 4659 1475 4659 
Q 1713 4659 2000 4603 
L 1916 4113 
Q 1741 4144 1584 4144 
Q 1328 4144 1222 4034 
Q 1116 3925 1116 3625 
L 1116 3319 
L 1763 3319 
L 1763 2881 
L 1116 2881 
L 1116 0 
L 556 0 
z
" transform="scale(0.015625)"/>
      </defs>
      <use xlink:href="#ArialMT-54"/>
      <use xlink:href="#ArialMT-69" transform="translate(57.333984 0)"/>
      <use xlink:href="#ArialMT-6d" transform="translate(79.550781 0)"/>
      <use xlink:href="#ArialMT-65" transform="translate(162.851562 0)"/>
      <use xlink:href="#ArialMT-20" transform="translate(218.466797 0)"/>
      <use xlink:href="#ArialMT-66" transform="translate(246.25 0)"/>
      <use xlink:href="#ArialMT-72" transform="translate(274.033203 0)"/>
      <use xlink:href="#ArialMT-6f" transform="translate(307.333984 0)"/>
      <use xlink:href="#ArialMT-6d" transform="translate(362.949219 0)"/>
      <use xlink:href="#ArialMT-20" transform="translate(446.25 0)"/>
      <use xlink:href="#ArialMT-65" transform="translate(474.033203 0)"/>
      <use xlink:href="#ArialMT-70" transform="translate(529.648438 0)"/>
      <use xlink:href="#ArialMT-6f" transform="translate(585.263672 0)"/>
      <use xlink:href="#ArialMT-63" transform="translate(640.878906 0)"/>
      <use xlink:href="#ArialMT-68" transform="translate(690.878906 0)"/>
      <use xlink:href="#ArialMT-20" transform="translate(746.494141 0)"/>
      <use xlink:href="#ArialMT-28" transform="translate(774.277344 0)"/>
      <use xlink:href="#ArialMT-6d" transform="translate(807.578125 0)"/>
      <use xlink:href="#ArialMT-69" transform="translate(890.878906 0)"/>
      <use xlink:href="#ArialMT-6e" transform="translate(913.095703 0)"/>
      <use xlink:href="#ArialMT-29" transform="translate(968.710938 0)"/>
     </g>
    </g>
   </g>
   <g id="matplotlib.axis_6">
    <g id="ytick_10">
     <g id="line2d_67">
      <path d="M 41.479813 338.163064 
L 503.90454 338.163064 
" clip-path="url(#p89b2bcf0a2)" style="fill: none; stroke: #b0b0b0; stroke-opacity: 0.25; stroke-width: 0.3; stroke-linecap: square"/>
     </g>
     <g id="line2d_68">
      <g>
       <use xlink:href="#m445eea771b" x="41.479813" y="338.163064" style="stroke: #000000; stroke-width: 0.6"/>
      </g>
     </g>
     <g id="text_24">
      <!-- 0 -->
      <g transform="translate(31.087156 340.668299) scale(0.07 -0.07)">
       <use xlink:href="#ArialMT-30"/>
      </g>
     </g>
    </g>
    <g id="ytick_11">
     <g id="line2d_69">
      <path d="M 41.479813 321.698693 
L 503.90454 321.698693 
" clip-path="url(#p89b2bcf0a2)" style="fill: none; stroke: #b0b0b0; stroke-opacity: 0.25; stroke-width: 0.3; stroke-linecap: square"/>
     </g>
     <g id="line2d_70">
      <g>
       <use xlink:href="#m445eea771b" x="41.479813" y="321.698693" style="stroke: #000000; stroke-width: 0.6"/>
      </g>
     </g>
     <g id="text_25">
      <!-- 20 -->
      <g transform="translate(27.1945 324.203928) scale(0.07 -0.07)">
       <use xlink:href="#ArialMT-32"/>
       <use xlink:href="#ArialMT-30" transform="translate(55.615234 0)"/>
      </g>
     </g>
    </g>
    <g id="ytick_12">
     <g id="line2d_71">
      <path d="M 41.479813 305.234323 
L 503.90454 305.234323 
" clip-path="url(#p89b2bcf0a2)" style="fill: none; stroke: #b0b0b0; stroke-opacity: 0.25; stroke-width: 0.3; stroke-linecap: square"/>
     </g>
     <g id="line2d_72">
      <g>
       <use xlink:href="#m445eea771b" x="41.479813" y="305.234323" style="stroke: #000000; stroke-width: 0.6"/>
      </g>
     </g>
     <g id="text_26">
      <!-- 40 -->
      <g transform="translate(27.1945 307.739557) scale(0.07 -0.07)">
       <use xlink:href="#ArialMT-34"/>
       <use xlink:href="#ArialMT-30" transform="translate(55.615234 0)"/>
      </g>
     </g>
    </g>
    <g id="ytick_13">
     <g id="line2d_73">
      <path d="M 41.479813 288.769952 
L 503.90454 288.769952 
" clip-path="url(#p89b2bcf0a2)" style="fill: none; stroke: #b0b0b0; stroke-opacity: 0.25; stroke-width: 0.3; stroke-linecap: square"/>
     </g>
     <g id="line2d_74">
      <g>
       <use xlink:href="#m445eea771b" x="41.479813" y="288.769952" style="stroke: #000000; stroke-width: 0.6"/>
      </g>
     </g>
     <g id="text_27">
      <!-- 60 -->
      <g transform="translate(27.1945 291.275186) scale(0.07 -0.07)">
       <use xlink:href="#ArialMT-36"/>
       <use xlink:href="#ArialMT-30" transform="translate(55.615234 0)"/>
      </g>
     </g>
    </g>
    <g id="ytick_14">
     <g id="line2d_75">
      <path d="M 41.479813 272.305581 
L 503.90454 272.305581 
" clip-path="url(#p89b2bcf0a2)" style="fill: none; stroke: #b0b0b0; stroke-opacity: 0.25; stroke-width: 0.3; stroke-linecap: square"/>
     </g>
     <g id="line2d_76">
      <g>
       <use xlink:href="#m445eea771b" x="41.479813" y="272.305581" style="stroke: #000000; stroke-width: 0.6"/>
      </g>
     </g>
     <g id="text_28">
      <!-- 80 -->
      <g transform="translate(27.1945 274.810815) scale(0.07 -0.07)">
       <use xlink:href="#ArialMT-38"/>
       <use xlink:href="#ArialMT-30" transform="translate(55.615234 0)"/>
      </g>
     </g>
    </g>
    <g id="text_29">
     <!-- Sun-link angle (deg) -->
     <g transform="translate(21.51075 336.533964) rotate(-90) scale(0.08 -0.08)">
      <use xlink:href="#ArialMT-53"/>
      <use xlink:href="#ArialMT-75" transform="translate(66.699219 0)"/>
      <use xlink:href="#ArialMT-6e" transform="translate(122.314453 0)"/>
      <use xlink:href="#ArialMT-2d" transform="translate(177.929688 0)"/>
      <use xlink:href="#ArialMT-6c" transform="translate(211.230469 0)"/>
      <use xlink:href="#ArialMT-69" transform="translate(233.447266 0)"/>
      <use xlink:href="#ArialMT-6e" transform="translate(255.664062 0)"/>
      <use xlink:href="#ArialMT-6b" transform="translate(311.279297 0)"/>
      <use xlink:href="#ArialMT-20" transform="translate(361.279297 0)"/>
      <use xlink:href="#ArialMT-61" transform="translate(389.0625 0)"/>
      <use xlink:href="#ArialMT-6e" transform="translate(444.677734 0)"/>
      <use xlink:href="#ArialMT-67" transform="translate(500.292969 0)"/>
      <use xlink:href="#ArialMT-6c" transform="translate(555.908203 0)"/>
      <use xlink:href="#ArialMT-65" transform="translate(578.125 0)"/>
      <use xlink:href="#ArialMT-20" transform="translate(633.740234 0)"/>
      <use xlink:href="#ArialMT-28" transform="translate(661.523438 0)"/>
      <use xlink:href="#ArialMT-64" transform="translate(694.824219 0)"/>
      <use xlink:href="#ArialMT-65" transform="translate(750.439453 0)"/>
      <use xlink:href="#ArialMT-67" transform="translate(806.054688 0)"/>
      <use xlink:href="#ArialMT-29" transform="translate(861.669922 0)"/>
     </g>
    </g>
   </g>
   <g id="line2d_77">
    <path d="M 62.499118 299.350604 
L 77.905939 293.561863 
L 86.709837 290.513679 
L 95.513735 287.680037 
L 106.518607 284.366506 
L 124.126402 279.33998 
L 143.935172 273.627558 
L 154.940044 270.204153 
L 163.743942 267.219462 
L 170.346865 264.776052 
L 172.54784 264.234012 
L 179.150763 267.002007 
L 185.753686 270.095873 
L 190.155635 272.384457 
L 194.557584 274.892442 
L 198.959533 277.659072 
L 203.361482 280.728945 
L 207.763431 284.150492 
L 212.16538 287.971719 
L 216.567328 292.230887 
L 220.969277 296.938498 
L 225.371226 302.045543 
L 234.175124 312.626467 
L 236.376098 315.014486 
L 238.577073 317.104425 
L 240.778047 318.763133 
L 242.979022 319.859058 
L 245.179996 320.300072 
L 247.38097 320.073186 
L 249.581945 319.253842 
L 251.782919 317.973901 
L 253.983894 316.375843 
L 258.385843 312.687113 
L 264.988766 306.94635 
L 269.390715 303.347729 
L 273.792664 300.023836 
L 278.194612 296.97946 
L 282.596561 294.194285 
L 286.99851 291.639079 
L 291.400459 289.283143 
L 298.003382 286.060326 
L 304.606306 283.136274 
L 311.209229 280.441146 
L 320.013127 277.107066 
L 331.017999 273.208824 
L 357.429692 264.16697 
L 359.630666 264.758203 
L 368.434564 267.980134 
L 377.238462 271.449299 
L 383.841385 274.285139 
L 390.444308 277.393672 
L 394.846257 279.65834 
L 399.248206 282.112196 
L 403.650155 284.79204 
L 408.052104 287.741518 
L 412.454053 291.01185 
L 416.856002 294.661859 
L 421.25795 298.756427 
L 425.659899 303.36197 
L 430.061848 308.536959 
L 434.463797 314.315545 
L 438.865746 320.684215 
L 443.267695 327.555569 
L 447.669644 334.726708 
L 449.870618 337.387065 
L 452.071592 334.13337 
L 458.674516 323.548962 
L 463.076465 317.010419 
L 467.478413 311.043365 
L 471.880362 305.681706 
L 476.282311 300.903388 
L 480.68426 296.655401 
L 482.885234 294.710011 
L 482.885234 294.710011 
" clip-path="url(#p89b2bcf0a2)" style="fill: none; stroke: #d55e00; stroke-width: 1.2; stroke-linecap: square"/>
   </g>
   <g id="line2d_78">
    <path d="M 62.499118 274.685598 
L 77.905939 269.402449 
L 93.31276 264.112728 
L 97.714709 265.601952 
L 106.518607 268.881134 
L 113.12153 271.516119 
L 119.724453 274.359715 
L 126.327377 277.478544 
L 130.729326 279.751835 
L 135.131274 282.216033 
L 139.533223 284.908257 
L 143.935172 287.87252 
L 148.337121 291.160434 
L 152.73907 294.831177 
L 157.141019 298.949842 
L 161.542968 303.582709 
L 165.944917 308.787449 
L 170.346865 314.59636 
L 174.748814 320.992675 
L 179.150763 327.88404 
L 183.552712 335.051066 
L 185.753686 337.161774 
L 187.954661 333.787833 
L 194.557584 323.229816 
L 198.959533 316.718928 
L 203.361482 310.782625 
L 207.763431 305.451557 
L 212.16538 300.701618 
L 216.567328 296.478827 
L 220.969277 292.717688 
L 225.371226 289.352329 
L 229.773175 286.322111 
L 234.175124 283.573786 
L 238.577073 281.06178 
L 242.979022 278.747591 
L 249.581945 275.57785 
L 256.184868 272.693121 
L 262.787791 270.024433 
L 271.591689 266.708956 
L 278.194612 264.347905 
L 280.395587 264.569391 
L 317.812152 277.674396 
L 326.61605 281.146011 
L 333.218973 283.981556 
L 339.821896 287.086946 
L 344.223845 289.346246 
L 348.625794 291.789265 
L 353.027743 294.447721 
L 357.429692 297.355587 
L 361.831641 300.545782 
L 366.23359 304.042294 
L 370.635539 307.842771 
L 381.640411 317.846099 
L 383.841385 319.523758 
L 386.04236 320.833393 
L 388.243334 321.607031 
L 390.444308 321.699118 
L 392.645283 321.048695 
L 394.846257 319.708794 
L 397.047232 317.814174 
L 399.248206 315.52326 
L 403.650155 310.29418 
L 410.253078 302.14006 
L 414.655027 297.034585 
L 419.056976 292.36307 
L 423.458925 288.152941 
L 427.860874 284.381911 
L 432.262823 281.005993 
L 436.664771 277.974881 
L 441.06672 275.239629 
L 445.468669 272.755961 
L 449.870618 270.485291 
L 456.473541 267.407893 
L 463.076465 264.645863 
L 465.277439 264.364224 
L 471.880362 266.812999 
L 480.68426 269.815828 
L 482.885234 270.529914 
L 482.885234 270.529914 
" clip-path="url(#p89b2bcf0a2)" style="fill: none; stroke: #0072b2; stroke-width: 1.2; stroke-linecap: square"/>
   </g>
   <g id="line2d_79">
    <path d="M 62.499118 281.218139 
L 71.303016 277.737754 
L 80.106914 274.50396 
L 93.31276 269.909032 
L 108.719581 264.623057 
L 110.920556 264.293669 
L 121.925428 268.278625 
L 130.729326 271.716433 
L 137.332249 274.514885 
L 143.935172 277.571049 
L 148.337121 279.790572 
L 152.73907 282.189381 
L 157.141019 284.802475 
L 161.542968 287.671429 
L 165.944917 290.845224 
L 170.346865 294.380543 
L 174.748814 298.340799 
L 179.150763 302.792658 
L 183.552712 307.798201 
L 187.954661 313.400657 
L 192.35661 319.602728 
L 196.758559 326.339861 
L 203.361482 336.880359 
L 205.562456 335.370107 
L 212.16538 324.706527 
L 216.567328 318.021294 
L 220.969277 311.883163 
L 225.371226 306.347568 
L 229.773175 301.406067 
L 234.175124 297.012438 
L 238.577073 293.103535 
L 242.979022 289.612766 
L 247.38097 286.477343 
L 251.782919 283.641411 
L 256.184868 281.056832 
L 260.586817 278.682804 
L 267.18974 275.442979 
L 273.792664 272.507228 
L 280.395587 269.802753 
L 289.199485 266.458711 
L 295.802408 264.088364 
L 322.214101 273.099418 
L 333.218973 276.986424 
L 342.022871 280.305668 
L 348.625794 282.985339 
L 355.228718 285.889252 
L 361.831641 289.086097 
L 366.23359 291.420813 
L 370.635539 293.951209 
L 375.037487 296.707716 
L 379.439436 299.71967 
L 383.841385 303.00838 
L 388.243334 306.572039 
L 399.248206 315.986445 
L 401.449181 317.620289 
L 403.650155 318.961612 
L 405.851129 319.871278 
L 408.052104 320.213615 
L 410.253078 319.900101 
L 412.454053 318.926082 
L 414.655027 317.369951 
L 416.856002 315.357581 
L 419.056976 313.022799 
L 423.458925 307.836714 
L 430.061848 299.880091 
L 434.463797 294.926177 
L 438.865746 290.400261 
L 443.267695 286.322883 
L 447.669644 282.669725 
L 452.071592 279.397192 
L 456.473541 276.456438 
L 460.87549 273.800315 
L 465.277439 271.386332 
L 469.679388 269.177514 
L 476.282311 266.1812 
L 480.68426 264.357433 
L 482.885234 264.657254 
L 482.885234 264.657254 
" clip-path="url(#p89b2bcf0a2)" style="fill: none; stroke: #cc79a7; stroke-width: 1.2; stroke-linecap: square"/>
   </g>
   <g id="line2d_80">
    <path d="M 41.479813 335.693409 
L 503.90454 335.693409 
" clip-path="url(#p89b2bcf0a2)" style="fill: none; stroke: #d41159; stroke-width: 0.8; stroke-linecap: square"/>
   </g>
   <g id="line2d_81">
    <path d="M 41.479813 331.577316 
L 503.90454 331.577316 
" clip-path="url(#p89b2bcf0a2)" style="fill: none; stroke-dasharray: 0.7,1.155; stroke-dashoffset: 0; stroke: #000000; stroke-width: 0.7"/>
   </g>
   <g id="patch_9">
    <path d="M 41.479813 341.052 
L 41.479813 260.423429 
" style="fill: none; stroke: #000000; stroke-width: 0.8; stroke-linejoin: miter; stroke-linecap: square"/>
   </g>
   <g id="patch_10">
    <path d="M 41.479813 341.052 
L 503.90454 341.052 
" style="fill: none; stroke: #000000; stroke-width: 0.8; stroke-linejoin: miter; stroke-linecap: square"/>
   </g>
   <g id="text_30">
    <!-- c  Solar approach geometry -->
    <g transform="translate(217.417411 254.423429) scale(0.09 -0.09)">
     <use xlink:href="#ArialMT-63"/>
     <use xlink:href="#ArialMT-20" transform="translate(50 0)"/>
     <use xlink:href="#ArialMT-20" transform="translate(77.783203 0)"/>
     <use xlink:href="#ArialMT-53" transform="translate(105.566406 0)"/>
     <use xlink:href="#ArialMT-6f" transform="translate(172.265625 0)"/>
     <use xlink:href="#ArialMT-6c" transform="translate(227.880859 0)"/>
     <use xlink:href="#ArialMT-61" transform="translate(250.097656 0)"/>
     <use xlink:href="#ArialMT-72" transform="translate(305.712891 0)"/>
     <use xlink:href="#ArialMT-20" transform="translate(339.013672 0)"/>
     <use xlink:href="#ArialMT-61" transform="translate(366.796875 0)"/>
     <use xlink:href="#ArialMT-70" transform="translate(422.412109 0)"/>
     <use xlink:href="#ArialMT-70" transform="translate(478.027344 0)"/>
     <use xlink:href="#ArialMT-72" transform="translate(533.642578 0)"/>
     <use xlink:href="#ArialMT-6f" transform="translate(566.943359 0)"/>
     <use xlink:href="#ArialMT-61" transform="translate(622.558594 0)"/>
     <use xlink:href="#ArialMT-63" transform="translate(678.173828 0)"/>
     <use xlink:href="#ArialMT-68" transform="translate(728.173828 0)"/>
     <use xlink:href="#ArialMT-20" transform="translate(783.789062 0)"/>
     <use xlink:href="#ArialMT-67" transform="translate(811.572266 0)"/>
     <use xlink:href="#ArialMT-65" transform="translate(867.1875 0)"/>
     <use xlink:href="#ArialMT-6f" transform="translate(922.802734 0)"/>
     <use xlink:href="#ArialMT-6d" transform="translate(978.417969 0)"/>
     <use xlink:href="#ArialMT-65" transform="translate(1061.71875 0)"/>
     <use xlink:href="#ArialMT-74" transform="translate(1117.333984 0)"/>
     <use xlink:href="#ArialMT-72" transform="translate(1145.117188 0)"/>
     <use xlink:href="#ArialMT-79" transform="translate(1178.417969 0)"/>
    </g>
   </g>
   <g id="legend_2">
    <g id="line2d_82">
     <path d="M 286.704009 323.147562 
L 292.904009 323.147562 
L 299.104009 323.147562 
" style="fill: none; stroke: #d55e00; stroke-width: 1.2; stroke-linecap: square"/>
    </g>
    <g id="text_31">
     <!-- L166: S86-S96 -->
     <g transform="translate(304.064009 325.317563) scale(0.062 -0.062)">
      <use xlink:href="#ArialMT-4c"/>
      <use xlink:href="#ArialMT-31" transform="translate(55.615234 0)"/>
      <use xlink:href="#ArialMT-36" transform="translate(111.230469 0)"/>
      <use xlink:href="#ArialMT-36" transform="translate(166.845703 0)"/>
      <use xlink:href="#ArialMT-3a" transform="translate(222.460938 0)"/>
      <use xlink:href="#ArialMT-20" transform="translate(250.244141 0)"/>
      <use xlink:href="#ArialMT-53" transform="translate(278.027344 0)"/>
      <use xlink:href="#ArialMT-38" transform="translate(344.726562 0)"/>
      <use xlink:href="#ArialMT-36" transform="translate(400.341797 0)"/>
      <use xlink:href="#ArialMT-2d" transform="translate(455.957031 0)"/>
      <use xlink:href="#ArialMT-53" transform="translate(489.257812 0)"/>
      <use xlink:href="#ArialMT-39" transform="translate(555.957031 0)"/>
      <use xlink:href="#ArialMT-36" transform="translate(611.572266 0)"/>
     </g>
    </g>
    <g id="line2d_83">
     <path d="M 286.704009 331.917656 
L 292.904009 331.917656 
L 299.104009 331.917656 
" style="fill: none; stroke: #0072b2; stroke-width: 1.2; stroke-linecap: square"/>
    </g>
    <g id="text_32">
     <!-- L137: S71-S81 -->
     <g transform="translate(304.064009 334.087656) scale(0.062 -0.062)">
      <use xlink:href="#ArialMT-4c"/>
      <use xlink:href="#ArialMT-31" transform="translate(55.615234 0)"/>
      <use xlink:href="#ArialMT-33" transform="translate(111.230469 0)"/>
      <use xlink:href="#ArialMT-37" transform="translate(166.845703 0)"/>
      <use xlink:href="#ArialMT-3a" transform="translate(222.460938 0)"/>
      <use xlink:href="#ArialMT-20" transform="translate(250.244141 0)"/>
      <use xlink:href="#ArialMT-53" transform="translate(278.027344 0)"/>
      <use xlink:href="#ArialMT-37" transform="translate(344.726562 0)"/>
      <use xlink:href="#ArialMT-31" transform="translate(400.341797 0)"/>
      <use xlink:href="#ArialMT-2d" transform="translate(455.957031 0)"/>
      <use xlink:href="#ArialMT-53" transform="translate(489.257812 0)"/>
      <use xlink:href="#ArialMT-38" transform="translate(555.957031 0)"/>
      <use xlink:href="#ArialMT-31" transform="translate(611.572266 0)"/>
     </g>
    </g>
    <g id="line2d_84">
     <path d="M 357.826728 323.147562 
L 364.026728 323.147562 
L 370.226728 323.147562 
" style="fill: none; stroke: #cc79a7; stroke-width: 1.2; stroke-linecap: square"/>
    </g>
    <g id="text_33">
     <!-- L11: S5-S15 -->
     <g transform="translate(375.186728 325.317563) scale(0.062 -0.062)">
      <use xlink:href="#ArialMT-4c"/>
      <use xlink:href="#ArialMT-31" transform="translate(55.615234 0)"/>
      <use xlink:href="#ArialMT-31" transform="translate(103.855469 0)"/>
      <use xlink:href="#ArialMT-3a" transform="translate(159.470703 0)"/>
      <use xlink:href="#ArialMT-20" transform="translate(187.253906 0)"/>
      <use xlink:href="#ArialMT-53" transform="translate(215.037109 0)"/>
      <use xlink:href="#ArialMT-35" transform="translate(281.736328 0)"/>
      <use xlink:href="#ArialMT-2d" transform="translate(337.351562 0)"/>
      <use xlink:href="#ArialMT-53" transform="translate(370.652344 0)"/>
      <use xlink:href="#ArialMT-31" transform="translate(437.351562 0)"/>
      <use xlink:href="#ArialMT-35" transform="translate(492.966797 0)"/>
     </g>
    </g>
    <g id="line2d_85">
     <path d="M 357.826728 331.997094 
L 364.026728 331.997094 
L 370.226728 331.997094 
" style="fill: none; stroke: #d41159; stroke-width: 0.8; stroke-linecap: square"/>
    </g>
    <g id="text_34">
     <!-- FOV core (3 deg) -->
     <g transform="translate(375.186728 334.167094) scale(0.062 -0.062)">
      <defs>
       <path id="ArialMT-46" d="M 525 0 
L 525 4581 
L 3616 4581 
L 3616 4041 
L 1131 4041 
L 1131 2622 
L 3281 2622 
L 3281 2081 
L 1131 2081 
L 1131 0 
L 525 0 
z
" transform="scale(0.015625)"/>
       <path id="ArialMT-56" d="M 1803 0 
L 28 4581 
L 684 4581 
L 1875 1253 
Q 2019 853 2116 503 
Q 2222 878 2363 1253 
L 3600 4581 
L 4219 4581 
L 2425 0 
L 1803 0 
z
" transform="scale(0.015625)"/>
      </defs>
      <use xlink:href="#ArialMT-46"/>
      <use xlink:href="#ArialMT-4f" transform="translate(61.083984 0)"/>
      <use xlink:href="#ArialMT-56" transform="translate(138.867188 0)"/>
      <use xlink:href="#ArialMT-20" transform="translate(205.566406 0)"/>
      <use xlink:href="#ArialMT-63" transform="translate(233.349609 0)"/>
      <use xlink:href="#ArialMT-6f" transform="translate(283.349609 0)"/>
      <use xlink:href="#ArialMT-72" transform="translate(338.964844 0)"/>
      <use xlink:href="#ArialMT-65" transform="translate(372.265625 0)"/>
      <use xlink:href="#ArialMT-20" transform="translate(427.880859 0)"/>
      <use xlink:href="#ArialMT-28" transform="translate(455.664062 0)"/>
      <use xlink:href="#ArialMT-33" transform="translate(488.964844 0)"/>
      <use xlink:href="#ArialMT-20" transform="translate(544.580078 0)"/>
      <use xlink:href="#ArialMT-64" transform="translate(572.363281 0)"/>
      <use xlink:href="#ArialMT-65" transform="translate(627.978516 0)"/>
      <use xlink:href="#ArialMT-67" transform="translate(683.59375 0)"/>
      <use xlink:href="#ArialMT-29" transform="translate(739.208984 0)"/>
     </g>
    </g>
    <g id="line2d_86">
     <path d="M 435.478821 323.147562 
L 441.678821 323.147562 
L 447.878821 323.147562 
" style="fill: none; stroke-dasharray: 0.7,1.155; stroke-dashoffset: 0; stroke: #000000; stroke-width: 0.7"/>
    </g>
    <g id="text_35">
     <!-- tail scale (8 deg) -->
     <g transform="translate(452.838821 325.317563) scale(0.062 -0.062)">
      <use xlink:href="#ArialMT-74"/>
      <use xlink:href="#ArialMT-61" transform="translate(27.783203 0)"/>
      <use xlink:href="#ArialMT-69" transform="translate(83.398438 0)"/>
      <use xlink:href="#ArialMT-6c" transform="translate(105.615234 0)"/>
      <use xlink:href="#ArialMT-20" transform="translate(127.832031 0)"/>
      <use xlink:href="#ArialMT-73" transform="translate(155.615234 0)"/>
      <use xlink:href="#ArialMT-63" transform="translate(205.615234 0)"/>
      <use xlink:href="#ArialMT-61" transform="translate(255.615234 0)"/>
      <use xlink:href="#ArialMT-6c" transform="translate(311.230469 0)"/>
      <use xlink:href="#ArialMT-65" transform="translate(333.447266 0)"/>
      <use xlink:href="#ArialMT-20" transform="translate(389.0625 0)"/>
      <use xlink:href="#ArialMT-28" transform="translate(416.845703 0)"/>
      <use xlink:href="#ArialMT-38" transform="translate(450.146484 0)"/>
      <use xlink:href="#ArialMT-20" transform="translate(505.761719 0)"/>
      <use xlink:href="#ArialMT-64" transform="translate(533.544922 0)"/>
      <use xlink:href="#ArialMT-65" transform="translate(589.160156 0)"/>
      <use xlink:href="#ArialMT-67" transform="translate(644.775391 0)"/>
      <use xlink:href="#ArialMT-29" transform="translate(700.390625 0)"/>
     </g>
    </g>
   </g>
  </g>
  <g id="text_36">
   <!-- Solar-background-induced OSNR fluctuation for selected inter-orbit LISLs -->
   <g transform="translate(111.827422 13.757344) scale(0.09 -0.09)">
    <defs>
     <path id="ArialMT-49" d="M 597 0 
L 597 4581 
L 1203 4581 
L 1203 0 
L 597 0 
z
" transform="scale(0.015625)"/>
    </defs>
    <use xlink:href="#ArialMT-53"/>
    <use xlink:href="#ArialMT-6f" transform="translate(66.699219 0)"/>
    <use xlink:href="#ArialMT-6c" transform="translate(122.314453 0)"/>
    <use xlink:href="#ArialMT-61" transform="translate(144.53125 0)"/>
    <use xlink:href="#ArialMT-72" transform="translate(200.146484 0)"/>
    <use xlink:href="#ArialMT-2d" transform="translate(233.447266 0)"/>
    <use xlink:href="#ArialMT-62" transform="translate(266.748047 0)"/>
    <use xlink:href="#ArialMT-61" transform="translate(322.363281 0)"/>
    <use xlink:href="#ArialMT-63" transform="translate(377.978516 0)"/>
    <use xlink:href="#ArialMT-6b" transform="translate(427.978516 0)"/>
    <use xlink:href="#ArialMT-67" transform="translate(477.978516 0)"/>
    <use xlink:href="#ArialMT-72" transform="translate(533.59375 0)"/>
    <use xlink:href="#ArialMT-6f" transform="translate(566.894531 0)"/>
    <use xlink:href="#ArialMT-75" transform="translate(622.509766 0)"/>
    <use xlink:href="#ArialMT-6e" transform="translate(678.125 0)"/>
    <use xlink:href="#ArialMT-64" transform="translate(733.740234 0)"/>
    <use xlink:href="#ArialMT-2d" transform="translate(789.355469 0)"/>
    <use xlink:href="#ArialMT-69" transform="translate(822.65625 0)"/>
    <use xlink:href="#ArialMT-6e" transform="translate(844.873047 0)"/>
    <use xlink:href="#ArialMT-64" transform="translate(900.488281 0)"/>
    <use xlink:href="#ArialMT-75" transform="translate(956.103516 0)"/>
    <use xlink:href="#ArialMT-63" transform="translate(1011.71875 0)"/>
    <use xlink:href="#ArialMT-65" transform="translate(1061.71875 0)"/>
    <use xlink:href="#ArialMT-64" transform="translate(1117.333984 0)"/>
    <use xlink:href="#ArialMT-20" transform="translate(1172.949219 0)"/>
    <use xlink:href="#ArialMT-4f" transform="translate(1200.732422 0)"/>
    <use xlink:href="#ArialMT-53" transform="translate(1278.515625 0)"/>
    <use xlink:href="#ArialMT-4e" transform="translate(1345.214844 0)"/>
    <use xlink:href="#ArialMT-52" transform="translate(1417.431641 0)"/>
    <use xlink:href="#ArialMT-20" transform="translate(1489.648438 0)"/>
    <use xlink:href="#ArialMT-66" transform="translate(1517.431641 0)"/>
    <use xlink:href="#ArialMT-6c" transform="translate(1545.214844 0)"/>
    <use xlink:href="#ArialMT-75" transform="translate(1567.431641 0)"/>
    <use xlink:href="#ArialMT-63" transform="translate(1623.046875 0)"/>
    <use xlink:href="#ArialMT-74" transform="translate(1673.046875 0)"/>
    <use xlink:href="#ArialMT-75" transform="translate(1700.830078 0)"/>
    <use xlink:href="#ArialMT-61" transform="translate(1756.445312 0)"/>
    <use xlink:href="#ArialMT-74" transform="translate(1812.060547 0)"/>
    <use xlink:href="#ArialMT-69" transform="translate(1839.84375 0)"/>
    <use xlink:href="#ArialMT-6f" transform="translate(1862.060547 0)"/>
    <use xlink:href="#ArialMT-6e" transform="translate(1917.675781 0)"/>
    <use xlink:href="#ArialMT-20" transform="translate(1973.291016 0)"/>
    <use xlink:href="#ArialMT-66" transform="translate(2001.074219 0)"/>
    <use xlink:href="#ArialMT-6f" transform="translate(2028.857422 0)"/>
    <use xlink:href="#ArialMT-72" transform="translate(2084.472656 0)"/>
    <use xlink:href="#ArialMT-20" transform="translate(2117.773438 0)"/>
    <use xlink:href="#ArialMT-73" transform="translate(2145.556641 0)"/>
    <use xlink:href="#ArialMT-65" transform="translate(2195.556641 0)"/>
    <use xlink:href="#ArialMT-6c" transform="translate(2251.171875 0)"/>
    <use xlink:href="#ArialMT-65" transform="translate(2273.388672 0)"/>
    <use xlink:href="#ArialMT-63" transform="translate(2329.003906 0)"/>
    <use xlink:href="#ArialMT-74" transform="translate(2379.003906 0)"/>
    <use xlink:href="#ArialMT-65" transform="translate(2406.787109 0)"/>
    <use xlink:href="#ArialMT-64" transform="translate(2462.402344 0)"/>
    <use xlink:href="#ArialMT-20" transform="translate(2518.017578 0)"/>
    <use xlink:href="#ArialMT-69" transform="translate(2545.800781 0)"/>
    <use xlink:href="#ArialMT-6e" transform="translate(2568.017578 0)"/>
    <use xlink:href="#ArialMT-74" transform="translate(2623.632812 0)"/>
    <use xlink:href="#ArialMT-65" transform="translate(2651.416016 0)"/>
    <use xlink:href="#ArialMT-72" transform="translate(2707.03125 0)"/>
    <use xlink:href="#ArialMT-2d" transform="translate(2740.332031 0)"/>
    <use xlink:href="#ArialMT-6f" transform="translate(2773.632812 0)"/>
    <use xlink:href="#ArialMT-72" transform="translate(2829.248047 0)"/>
    <use xlink:href="#ArialMT-62" transform="translate(2862.548828 0)"/>
    <use xlink:href="#ArialMT-69" transform="translate(2918.164062 0)"/>
    <use xlink:href="#ArialMT-74" transform="translate(2940.380859 0)"/>
    <use xlink:href="#ArialMT-20" transform="translate(2968.164062 0)"/>
    <use xlink:href="#ArialMT-4c" transform="translate(2995.947266 0)"/>
    <use xlink:href="#ArialMT-49" transform="translate(3051.5625 0)"/>
    <use xlink:href="#ArialMT-53" transform="translate(3079.345703 0)"/>
    <use xlink:href="#ArialMT-4c" transform="translate(3146.044922 0)"/>
    <use xlink:href="#ArialMT-73" transform="translate(3201.660156 0)"/>
   </g>
  </g>
 </g>
 <defs>
  <clipPath id="pd2f0c45155">
   <rect x="41.479813" y="38.352" width="462.424728" height="92.722857"/>
  </clipPath>
  <clipPath id="p47b5ff371e">
   <rect x="41.479813" y="155.434857" width="462.424728" height="80.628571"/>
  </clipPath>
  <clipPath id="p89b2bcf0a2">
   <rect x="41.479813" y="260.423429" width="462.424728" height="80.628571"/>
  </clipPath>
 </defs>
</svg>
