<?xml version="1.0" encoding="utf-8" standalone="no"?>
<!DOCTYPE svg PUBLIC "-//W3C//DTD SVG 1.1//EN"
  "http://www.w3.org/Graphics/SVG/1.1/DTD/svg11.dtd">
<svg xmlns:xlink="http://www.w3.org/1999/xlink" width="328.239055pt" height="198.447726pt" viewBox="0 0 328.239055 198.447726" xmlns="http://www.w3.org/2000/svg" version="1.1">
 <metadata>
  <rdf:RDF xmlns:dc="http://purl.org/dc/elements/1.1/" xmlns:cc="http://creativecommons.org/ns#" xmlns:rdf="http://www.w3.org/1999/02/22-rdf-syntax-ns#">
   <cc:Work>
    <dc:type rdf:resource="http://purl.org/dc/dcmitype/StillImage"/>
    <dc:date>2026-06-12T05:01:31.981352</dc:date>
    <dc:format>image/svg+xml</dc:format>
    <dc:creator>
     <cc:Agent>
      <dc:title>Matplotlib v3.10.8, https://matplotlib.org/</dc:title>
     </cc:Agent>
    </dc:creator>
   </cc:Work>
  </rdf:RDF>
 </metadata>
 <defs>
  <style type="text/css">*{stroke-linejoin: round; stroke-linecap: butt}</style>
 </defs>
 <g id="figure_1">
  <g id="patch_1">
   <path d="M 0 198.447726 
L 328.239055 198.447726 
L 328.239055 0 
L 0 0 
z
" style="fill: #ffffff"/>
  </g>
  <g id="axes_1">
   <g id="patch_2">
    <path d="M 34.74625 161.185741 
L 321.039055 161.185741 
L 321.039055 19.642031 
L 34.74625 19.642031 
z
" style="fill: #ffffff"/>
   </g>
   <g id="matplotlib.axis_1">
    <g id="xtick_1">
     <g id="line2d_1">
      <path d="M 34.74625 161.185741 
L 34.74625 19.642031 
" clip-path="url(#pc7e8dc363a)" style="fill: none; stroke: #b0b0b0; stroke-opacity: 0.12; stroke-width: 0.4; stroke-linecap: square"/>
     </g>
     <g id="line2d_2">
      <defs>
       <path id="mef620e2254" d="M 0 0 
L 0 3 
" style="stroke: #000000; stroke-width: 0.6"/>
      </defs>
      <g>
       <use xlink:href="#mef620e2254" x="34.74625" y="161.185741" style="stroke: #000000; stroke-width: 0.6"/>
      </g>
     </g>
     <g id="text_1">
      <!-- −15 -->
      <g transform="translate(30.920996 178.60058) rotate(-35) scale(0.07 -0.07)">
       <defs>
        <path id="ArialMT-2212" d="M 3381 1997 
L 356 1997 
L 356 2522 
L 3381 2522 
L 3381 1997 
z
" transform="scale(0.015625)"/>
        <path id="ArialMT-31" d="M 2384 0 
L 1822 0 
L 1822 3584 
Q 1619 3391 1289 3197 
Q 959 3003 697 2906 
L 697 3450 
Q 1169 3672 1522 3987 
Q 1875 4303 2022 4600 
L 2384 4600 
L 2384 0 
z
" transform="scale(0.015625)"/>
        <path id="ArialMT-35" d="M 266 1200 
L 856 1250 
Q 922 819 1161 601 
Q 1400 384 1738 384 
Q 2144 384 2425 690 
Q 2706 997 2706 1503 
Q 2706 1984 2436 2262 
Q 2166 2541 1728 2541 
Q 1456 2541 1237 2417 
Q 1019 2294 894 2097 
L 366 2166 
L 809 4519 
L 3088 4519 
L 3088 3981 
L 1259 3981 
L 1013 2750 
Q 1425 3038 1878 3038 
Q 2478 3038 2890 2622 
Q 3303 2206 3303 1553 
Q 3303 931 2941 478 
Q 2500 -78 1738 -78 
Q 1113 -78 717 272 
Q 322 622 266 1200 
z
" transform="scale(0.015625)"/>
       </defs>
       <use xlink:href="#ArialMT-2212"/>
       <use xlink:href="#ArialMT-31" transform="translate(58.398438 0)"/>
       <use xlink:href="#ArialMT-35" transform="translate(114.013672 0)"/>
      </g>
     </g>
    </g>
    <g id="xtick_2">
     <g id="line2d_3">
      <path d="M 91.251409 161.185741 
L 91.251409 19.642031 
" clip-path="url(#pc7e8dc363a)" style="fill: none; stroke: #b0b0b0; stroke-opacity: 0.12; stroke-width: 0.4; stroke-linecap: square"/>
     </g>
     <g id="line2d_4">
      <g>
       <use xlink:href="#mef620e2254" x="91.251409" y="161.185741" style="stroke: #000000; stroke-width: 0.6"/>
      </g>
     </g>
     <g id="text_2">
      <!-- −12 -->
      <g transform="translate(87.426155 178.60058) rotate(-35) scale(0.07 -0.07)">
       <defs>
        <path id="ArialMT-32" d="M 3222 541 
L 3222 0 
L 194 0 
Q 188 203 259 391 
Q 375 700 629 1000 
Q 884 1300 1366 1694 
Q 2113 2306 2375 2664 
Q 2638 3022 2638 3341 
Q 2638 3675 2398 3904 
Q 2159 4134 1775 4134 
Q 1369 4134 1125 3890 
Q 881 3647 878 3216 
L 300 3275 
Q 359 3922 746 4261 
Q 1134 4600 1788 4600 
Q 2447 4600 2831 4234 
Q 3216 3869 3216 3328 
Q 3216 3053 3103 2787 
Q 2991 2522 2730 2228 
Q 2469 1934 1863 1422 
Q 1356 997 1212 845 
Q 1069 694 975 541 
L 3222 541 
z
" transform="scale(0.015625)"/>
       </defs>
       <use xlink:href="#ArialMT-2212"/>
       <use xlink:href="#ArialMT-31" transform="translate(58.398438 0)"/>
       <use xlink:href="#ArialMT-32" transform="translate(114.013672 0)"/>
      </g>
     </g>
    </g>
    <g id="xtick_3">
     <g id="line2d_5">
      <path d="M 128.921515 161.185741 
L 128.921515 19.642031 
" clip-path="url(#pc7e8dc363a)" style="fill: none; stroke: #b0b0b0; stroke-opacity: 0.12; stroke-width: 0.4; stroke-linecap: square"/>
     </g>
     <g id="line2d_6">
      <g>
       <use xlink:href="#mef620e2254" x="128.921515" y="161.185741" style="stroke: #000000; stroke-width: 0.6"/>
      </g>
     </g>
     <g id="text_3">
      <!-- −10 -->
      <g transform="translate(125.096261 178.60058) rotate(-35) scale(0.07 -0.07)">
       <defs>
        <path id="ArialMT-30" d="M 266 2259 
Q 266 3072 433 3567 
Q 600 4063 929 4331 
Q 1259 4600 1759 4600 
Q 2128 4600 2406 4451 
Q 2684 4303 2865 4023 
Q 3047 3744 3150 3342 
Q 3253 2941 3253 2259 
Q 3253 1453 3087 958 
Q 2922 463 2592 192 
Q 2263 -78 1759 -78 
Q 1097 -78 719 397 
Q 266 969 266 2259 
z
M 844 2259 
Q 844 1131 1108 757 
Q 1372 384 1759 384 
Q 2147 384 2411 759 
Q 2675 1134 2675 2259 
Q 2675 3391 2411 3762 
Q 2147 4134 1753 4134 
Q 1366 4134 1134 3806 
Q 844 3388 844 2259 
z
" transform="scale(0.015625)"/>
       </defs>
       <use xlink:href="#ArialMT-2212"/>
       <use xlink:href="#ArialMT-31" transform="translate(58.398438 0)"/>
       <use xlink:href="#ArialMT-30" transform="translate(114.013672 0)"/>
      </g>
     </g>
    </g>
    <g id="xtick_4">
     <g id="line2d_7">
      <path d="M 166.591621 161.185741 
L 166.591621 19.642031 
" clip-path="url(#pc7e8dc363a)" style="fill: none; stroke: #b0b0b0; stroke-opacity: 0.12; stroke-width: 0.4; stroke-linecap: square"/>
     </g>
     <g id="line2d_8">
      <g>
       <use xlink:href="#mef620e2254" x="166.591621" y="161.185741" style="stroke: #000000; stroke-width: 0.6"/>
      </g>
     </g>
     <g id="text_4">
      <!-- −8 -->
      <g transform="translate(164.360705 176.367844) rotate(-35) scale(0.07 -0.07)">
       <defs>
        <path id="ArialMT-38" d="M 1131 2484 
Q 781 2613 612 2850 
Q 444 3088 444 3419 
Q 444 3919 803 4259 
Q 1163 4600 1759 4600 
Q 2359 4600 2725 4251 
Q 3091 3903 3091 3403 
Q 3091 3084 2923 2848 
Q 2756 2613 2416 2484 
Q 2838 2347 3058 2040 
Q 3278 1734 3278 1309 
Q 3278 722 2862 322 
Q 2447 -78 1769 -78 
Q 1091 -78 675 323 
Q 259 725 259 1325 
Q 259 1772 486 2073 
Q 713 2375 1131 2484 
z
M 1019 3438 
Q 1019 3113 1228 2906 
Q 1438 2700 1772 2700 
Q 2097 2700 2305 2904 
Q 2513 3109 2513 3406 
Q 2513 3716 2298 3927 
Q 2084 4138 1766 4138 
Q 1444 4138 1231 3931 
Q 1019 3725 1019 3438 
z
M 838 1322 
Q 838 1081 952 856 
Q 1066 631 1291 507 
Q 1516 384 1775 384 
Q 2178 384 2440 643 
Q 2703 903 2703 1303 
Q 2703 1709 2433 1975 
Q 2163 2241 1756 2241 
Q 1359 2241 1098 1978 
Q 838 1716 838 1322 
z
" transform="scale(0.015625)"/>
       </defs>
       <use xlink:href="#ArialMT-2212"/>
       <use xlink:href="#ArialMT-38" transform="translate(58.398438 0)"/>
      </g>
     </g>
    </g>
    <g id="xtick_5">
     <g id="line2d_9">
      <path d="M 185.426674 161.185741 
L 185.426674 19.642031 
" clip-path="url(#pc7e8dc363a)" style="fill: none; stroke: #b0b0b0; stroke-opacity: 0.12; stroke-width: 0.4; stroke-linecap: square"/>
     </g>
     <g id="line2d_10">
      <g>
       <use xlink:href="#mef620e2254" x="185.426674" y="161.185741" style="stroke: #000000; stroke-width: 0.6"/>
      </g>
     </g>
     <g id="text_5">
      <!-- −7 -->
      <g transform="translate(183.195758 176.367844) rotate(-35) scale(0.07 -0.07)">
       <defs>
        <path id="ArialMT-37" d="M 303 3981 
L 303 4522 
L 3269 4522 
L 3269 4084 
Q 2831 3619 2401 2847 
Q 1972 2075 1738 1259 
Q 1569 684 1522 0 
L 944 0 
Q 953 541 1156 1306 
Q 1359 2072 1739 2783 
Q 2119 3494 2547 3981 
L 303 3981 
z
" transform="scale(0.015625)"/>
       </defs>
       <use xlink:href="#ArialMT-2212"/>
       <use xlink:href="#ArialMT-37" transform="translate(58.398438 0)"/>
      </g>
     </g>
    </g>
    <g id="xtick_6">
     <g id="line2d_11">
      <path d="M 204.261727 161.185741 
L 204.261727 19.642031 
" clip-path="url(#pc7e8dc363a)" style="fill: none; stroke: #b0b0b0; stroke-opacity: 0.12; stroke-width: 0.4; stroke-linecap: square"/>
     </g>
     <g id="line2d_12">
      <g>
       <use xlink:href="#mef620e2254" x="204.261727" y="161.185741" style="stroke: #000000; stroke-width: 0.6"/>
      </g>
     </g>
     <g id="text_6">
      <!-- −6 -->
      <g transform="translate(202.030811 176.367844) rotate(-35) scale(0.07 -0.07)">
       <defs>
        <path id="ArialMT-36" d="M 3184 3459 
L 2625 3416 
Q 2550 3747 2413 3897 
Q 2184 4138 1850 4138 
Q 1581 4138 1378 3988 
Q 1113 3794 959 3422 
Q 806 3050 800 2363 
Q 1003 2672 1297 2822 
Q 1591 2972 1913 2972 
Q 2475 2972 2870 2558 
Q 3266 2144 3266 1488 
Q 3266 1056 3080 686 
Q 2894 316 2569 119 
Q 2244 -78 1831 -78 
Q 1128 -78 684 439 
Q 241 956 241 2144 
Q 241 3472 731 4075 
Q 1159 4600 1884 4600 
Q 2425 4600 2770 4297 
Q 3116 3994 3184 3459 
z
M 888 1484 
Q 888 1194 1011 928 
Q 1134 663 1356 523 
Q 1578 384 1822 384 
Q 2178 384 2434 671 
Q 2691 959 2691 1453 
Q 2691 1928 2437 2201 
Q 2184 2475 1800 2475 
Q 1419 2475 1153 2201 
Q 888 1928 888 1484 
z
" transform="scale(0.015625)"/>
       </defs>
       <use xlink:href="#ArialMT-2212"/>
       <use xlink:href="#ArialMT-36" transform="translate(58.398438 0)"/>
      </g>
     </g>
    </g>
    <g id="xtick_7">
     <g id="line2d_13">
      <path d="M 223.09678 161.185741 
L 223.09678 19.642031 
" clip-path="url(#pc7e8dc363a)" style="fill: none; stroke: #b0b0b0; stroke-opacity: 0.12; stroke-width: 0.4; stroke-linecap: square"/>
     </g>
     <g id="line2d_14">
      <g>
       <use xlink:href="#mef620e2254" x="223.09678" y="161.185741" style="stroke: #000000; stroke-width: 0.6"/>
      </g>
     </g>
     <g id="text_7">
      <!-- −5 -->
      <g transform="translate(220.865864 176.367844) rotate(-35) scale(0.07 -0.07)">
       <use xlink:href="#ArialMT-2212"/>
       <use xlink:href="#ArialMT-35" transform="translate(58.398438 0)"/>
      </g>
     </g>
    </g>
    <g id="xtick_8">
     <g id="line2d_15">
      <path d="M 241.931833 161.185741 
L 241.931833 19.642031 
" clip-path="url(#pc7e8dc363a)" style="fill: none; stroke: #b0b0b0; stroke-opacity: 0.12; stroke-width: 0.4; stroke-linecap: square"/>
     </g>
     <g id="line2d_16">
      <g>
       <use xlink:href="#mef620e2254" x="241.931833" y="161.185741" style="stroke: #000000; stroke-width: 0.6"/>
      </g>
     </g>
     <g id="text_8">
      <!-- −4 -->
      <g transform="translate(239.700917 176.367844) rotate(-35) scale(0.07 -0.07)">
       <defs>
        <path id="ArialMT-34" d="M 2069 0 
L 2069 1097 
L 81 1097 
L 81 1613 
L 2172 4581 
L 2631 4581 
L 2631 1613 
L 3250 1613 
L 3250 1097 
L 2631 1097 
L 2631 0 
L 2069 0 
z
M 2069 1613 
L 2069 3678 
L 634 1613 
L 2069 1613 
z
" transform="scale(0.015625)"/>
       </defs>
       <use xlink:href="#ArialMT-2212"/>
       <use xlink:href="#ArialMT-34" transform="translate(58.398438 0)"/>
      </g>
     </g>
    </g>
    <g id="xtick_9">
     <g id="line2d_17">
      <path d="M 260.766886 161.185741 
L 260.766886 19.642031 
" clip-path="url(#pc7e8dc363a)" style="fill: none; stroke: #b0b0b0; stroke-opacity: 0.12; stroke-width: 0.4; stroke-linecap: square"/>
     </g>
     <g id="line2d_18">
      <g>
       <use xlink:href="#mef620e2254" x="260.766886" y="161.185741" style="stroke: #000000; stroke-width: 0.6"/>
      </g>
     </g>
     <g id="text_9">
      <!-- −3 -->
      <g transform="translate(258.53597 176.367844) rotate(-35) scale(0.07 -0.07)">
       <defs>
        <path id="ArialMT-33" d="M 269 1209 
L 831 1284 
Q 928 806 1161 595 
Q 1394 384 1728 384 
Q 2125 384 2398 659 
Q 2672 934 2672 1341 
Q 2672 1728 2419 1979 
Q 2166 2231 1775 2231 
Q 1616 2231 1378 2169 
L 1441 2663 
Q 1497 2656 1531 2656 
Q 1891 2656 2178 2843 
Q 2466 3031 2466 3422 
Q 2466 3731 2256 3934 
Q 2047 4138 1716 4138 
Q 1388 4138 1169 3931 
Q 950 3725 888 3313 
L 325 3413 
Q 428 3978 793 4289 
Q 1159 4600 1703 4600 
Q 2078 4600 2393 4439 
Q 2709 4278 2876 4000 
Q 3044 3722 3044 3409 
Q 3044 3113 2884 2869 
Q 2725 2625 2413 2481 
Q 2819 2388 3044 2092 
Q 3269 1797 3269 1353 
Q 3269 753 2831 336 
Q 2394 -81 1725 -81 
Q 1122 -81 723 278 
Q 325 638 269 1209 
z
" transform="scale(0.015625)"/>
       </defs>
       <use xlink:href="#ArialMT-2212"/>
       <use xlink:href="#ArialMT-33" transform="translate(58.398438 0)"/>
      </g>
     </g>
    </g>
    <g id="xtick_10">
     <g id="line2d_19">
      <path d="M 279.601939 161.185741 
L 279.601939 19.642031 
" clip-path="url(#pc7e8dc363a)" style="fill: none; stroke: #b0b0b0; stroke-opacity: 0.12; stroke-width: 0.4; stroke-linecap: square"/>
     </g>
     <g id="line2d_20">
      <g>
       <use xlink:href="#mef620e2254" x="279.601939" y="161.185741" style="stroke: #000000; stroke-width: 0.6"/>
      </g>
     </g>
     <g id="text_10">
      <!-- −2 -->
      <g transform="translate(277.371023 176.367844) rotate(-35) scale(0.07 -0.07)">
       <use xlink:href="#ArialMT-2212"/>
       <use xlink:href="#ArialMT-32" transform="translate(58.398438 0)"/>
      </g>
     </g>
    </g>
    <g id="xtick_11">
     <g id="line2d_21">
      <path d="M 298.436992 161.185741 
L 298.436992 19.642031 
" clip-path="url(#pc7e8dc363a)" style="fill: none; stroke: #b0b0b0; stroke-opacity: 0.12; stroke-width: 0.4; stroke-linecap: square"/>
     </g>
     <g id="line2d_22">
      <g>
       <use xlink:href="#mef620e2254" x="298.436992" y="161.185741" style="stroke: #000000; stroke-width: 0.6"/>
      </g>
     </g>
     <g id="text_11">
      <!-- −1 -->
      <g transform="translate(296.206076 176.367844) rotate(-35) scale(0.07 -0.07)">
       <use xlink:href="#ArialMT-2212"/>
       <use xlink:href="#ArialMT-31" transform="translate(58.398438 0)"/>
      </g>
     </g>
    </g>
    <g id="xtick_12">
     <g id="line2d_23">
      <path d="M 317.272045 161.185741 
L 317.272045 19.642031 
" clip-path="url(#pc7e8dc363a)" style="fill: none; stroke: #b0b0b0; stroke-opacity: 0.12; stroke-width: 0.4; stroke-linecap: square"/>
     </g>
     <g id="line2d_24">
      <g>
       <use xlink:href="#mef620e2254" x="317.272045" y="161.185741" style="stroke: #000000; stroke-width: 0.6"/>
      </g>
     </g>
     <g id="text_12">
      <!-- 0 -->
      <g transform="translate(316.715655 174.022813) rotate(-35) scale(0.07 -0.07)">
       <use xlink:href="#ArialMT-30"/>
      </g>
     </g>
    </g>
    <g id="text_13">
     <!-- log10(BER), right-focused and clipped at -15 -->
     <g transform="translate(98.964528 189.563976) scale(0.08 -0.08)">
      <defs>
       <path id="ArialMT-6c" d="M 409 0 
L 409 4581 
L 972 4581 
L 972 0 
L 409 0 
z
" transform="scale(0.015625)"/>
       <path id="ArialMT-6f" d="M 213 1659 
Q 213 2581 725 3025 
Q 1153 3394 1769 3394 
Q 2453 3394 2887 2945 
Q 3322 2497 3322 1706 
Q 3322 1066 3130 698 
Q 2938 331 2570 128 
Q 2203 -75 1769 -75 
Q 1072 -75 642 372 
Q 213 819 213 1659 
z
M 791 1659 
Q 791 1022 1069 705 
Q 1347 388 1769 388 
Q 2188 388 2466 706 
Q 2744 1025 2744 1678 
Q 2744 2294 2464 2611 
Q 2184 2928 1769 2928 
Q 1347 2928 1069 2612 
Q 791 2297 791 1659 
z
" transform="scale(0.015625)"/>
       <path id="ArialMT-67" d="M 319 -275 
L 866 -356 
Q 900 -609 1056 -725 
Q 1266 -881 1628 -881 
Q 2019 -881 2231 -725 
Q 2444 -569 2519 -288 
Q 2563 -116 2559 434 
Q 2191 0 1641 0 
Q 956 0 581 494 
Q 206 988 206 1678 
Q 206 2153 378 2554 
Q 550 2956 876 3175 
Q 1203 3394 1644 3394 
Q 2231 3394 2613 2919 
L 2613 3319 
L 3131 3319 
L 3131 450 
Q 3131 -325 2973 -648 
Q 2816 -972 2473 -1159 
Q 2131 -1347 1631 -1347 
Q 1038 -1347 672 -1080 
Q 306 -813 319 -275 
z
M 784 1719 
Q 784 1066 1043 766 
Q 1303 466 1694 466 
Q 2081 466 2343 764 
Q 2606 1063 2606 1700 
Q 2606 2309 2336 2618 
Q 2066 2928 1684 2928 
Q 1309 2928 1046 2623 
Q 784 2319 784 1719 
z
" transform="scale(0.015625)"/>
       <path id="ArialMT-28" d="M 1497 -1347 
Q 1031 -759 709 28 
Q 388 816 388 1659 
Q 388 2403 628 3084 
Q 909 3875 1497 4659 
L 1900 4659 
Q 1522 4009 1400 3731 
Q 1209 3300 1100 2831 
Q 966 2247 966 1656 
Q 966 153 1900 -1347 
L 1497 -1347 
z
" transform="scale(0.015625)"/>
       <path id="ArialMT-42" d="M 469 0 
L 469 4581 
L 2188 4581 
Q 2713 4581 3030 4442 
Q 3347 4303 3526 4014 
Q 3706 3725 3706 3409 
Q 3706 3116 3547 2856 
Q 3388 2597 3066 2438 
Q 3481 2316 3704 2022 
Q 3928 1728 3928 1328 
Q 3928 1006 3792 729 
Q 3656 453 3456 303 
Q 3256 153 2954 76 
Q 2653 0 2216 0 
L 469 0 
z
M 1075 2656 
L 2066 2656 
Q 2469 2656 2644 2709 
Q 2875 2778 2992 2937 
Q 3109 3097 3109 3338 
Q 3109 3566 3000 3739 
Q 2891 3913 2687 3977 
Q 2484 4041 1991 4041 
L 1075 4041 
L 1075 2656 
z
M 1075 541 
L 2216 541 
Q 2509 541 2628 563 
Q 2838 600 2978 687 
Q 3119 775 3209 942 
Q 3300 1109 3300 1328 
Q 3300 1584 3169 1773 
Q 3038 1963 2805 2039 
Q 2572 2116 2134 2116 
L 1075 2116 
L 1075 541 
z
" transform="scale(0.015625)"/>
       <path id="ArialMT-45" d="M 506 0 
L 506 4581 
L 3819 4581 
L 3819 4041 
L 1113 4041 
L 1113 2638 
L 3647 2638 
L 3647 2100 
L 1113 2100 
L 1113 541 
L 3925 541 
L 3925 0 
L 506 0 
z
" transform="scale(0.015625)"/>
       <path id="ArialMT-52" d="M 503 0 
L 503 4581 
L 2534 4581 
Q 3147 4581 3465 4457 
Q 3784 4334 3975 4021 
Q 4166 3709 4166 3331 
Q 4166 2844 3850 2509 
Q 3534 2175 2875 2084 
Q 3116 1969 3241 1856 
Q 3506 1613 3744 1247 
L 4541 0 
L 3778 0 
L 3172 953 
Q 2906 1366 2734 1584 
Q 2563 1803 2427 1890 
Q 2291 1978 2150 2013 
Q 2047 2034 1813 2034 
L 1109 2034 
L 1109 0 
L 503 0 
z
M 1109 2559 
L 2413 2559 
Q 2828 2559 3062 2645 
Q 3297 2731 3419 2920 
Q 3541 3109 3541 3331 
Q 3541 3656 3305 3865 
Q 3069 4075 2559 4075 
L 1109 4075 
L 1109 2559 
z
" transform="scale(0.015625)"/>
       <path id="ArialMT-29" d="M 791 -1347 
L 388 -1347 
Q 1322 153 1322 1656 
Q 1322 2244 1188 2822 
Q 1081 3291 891 3722 
Q 769 4003 388 4659 
L 791 4659 
Q 1378 3875 1659 3084 
Q 1900 2403 1900 1659 
Q 1900 816 1576 28 
Q 1253 -759 791 -1347 
z
" transform="scale(0.015625)"/>
       <path id="ArialMT-2c" d="M 569 0 
L 569 641 
L 1209 641 
L 1209 0 
Q 1209 -353 1084 -570 
Q 959 -788 688 -906 
L 531 -666 
Q 709 -588 793 -436 
Q 878 -284 888 0 
L 569 0 
z
" transform="scale(0.015625)"/>
       <path id="ArialMT-20" transform="scale(0.015625)"/>
       <path id="ArialMT-72" d="M 416 0 
L 416 3319 
L 922 3319 
L 922 2816 
Q 1116 3169 1280 3281 
Q 1444 3394 1641 3394 
Q 1925 3394 2219 3213 
L 2025 2691 
Q 1819 2813 1613 2813 
Q 1428 2813 1281 2702 
Q 1134 2591 1072 2394 
Q 978 2094 978 1738 
L 978 0 
L 416 0 
z
" transform="scale(0.015625)"/>
       <path id="ArialMT-69" d="M 425 3934 
L 425 4581 
L 988 4581 
L 988 3934 
L 425 3934 
z
M 425 0 
L 425 3319 
L 988 3319 
L 988 0 
L 425 0 
z
" transform="scale(0.015625)"/>
       <path id="ArialMT-68" d="M 422 0 
L 422 4581 
L 984 4581 
L 984 2938 
Q 1378 3394 1978 3394 
Q 2347 3394 2619 3248 
Q 2891 3103 3008 2847 
Q 3125 2591 3125 2103 
L 3125 0 
L 2563 0 
L 2563 2103 
Q 2563 2525 2380 2717 
Q 2197 2909 1863 2909 
Q 1613 2909 1392 2779 
Q 1172 2650 1078 2428 
Q 984 2206 984 1816 
L 984 0 
L 422 0 
z
" transform="scale(0.015625)"/>
       <path id="ArialMT-74" d="M 1650 503 
L 1731 6 
Q 1494 -44 1306 -44 
Q 1000 -44 831 53 
Q 663 150 594 308 
Q 525 466 525 972 
L 525 2881 
L 113 2881 
L 113 3319 
L 525 3319 
L 525 4141 
L 1084 4478 
L 1084 3319 
L 1650 3319 
L 1650 2881 
L 1084 2881 
L 1084 941 
Q 1084 700 1114 631 
Q 1144 563 1211 522 
Q 1278 481 1403 481 
Q 1497 481 1650 503 
z
" transform="scale(0.015625)"/>
       <path id="ArialMT-2d" d="M 203 1375 
L 203 1941 
L 1931 1941 
L 1931 1375 
L 203 1375 
z
" transform="scale(0.015625)"/>
       <path id="ArialMT-66" d="M 556 0 
L 556 2881 
L 59 2881 
L 59 3319 
L 556 3319 
L 556 3672 
Q 556 4006 616 4169 
Q 697 4388 901 4523 
Q 1106 4659 1475 4659 
Q 1713 4659 2000 4603 
L 1916 4113 
Q 1741 4144 1584 4144 
Q 1328 4144 1222 4034 
Q 1116 3925 1116 3625 
L 1116 3319 
L 1763 3319 
L 1763 2881 
L 1116 2881 
L 1116 0 
L 556 0 
z
" transform="scale(0.015625)"/>
       <path id="ArialMT-63" d="M 2588 1216 
L 3141 1144 
Q 3050 572 2676 248 
Q 2303 -75 1759 -75 
Q 1078 -75 664 370 
Q 250 816 250 1647 
Q 250 2184 428 2587 
Q 606 2991 970 3192 
Q 1334 3394 1763 3394 
Q 2303 3394 2647 3120 
Q 2991 2847 3088 2344 
L 2541 2259 
Q 2463 2594 2264 2762 
Q 2066 2931 1784 2931 
Q 1359 2931 1093 2626 
Q 828 2322 828 1663 
Q 828 994 1084 691 
Q 1341 388 1753 388 
Q 2084 388 2306 591 
Q 2528 794 2588 1216 
z
" transform="scale(0.015625)"/>
       <path id="ArialMT-75" d="M 2597 0 
L 2597 488 
Q 2209 -75 1544 -75 
Q 1250 -75 995 37 
Q 741 150 617 320 
Q 494 491 444 738 
Q 409 903 409 1263 
L 409 3319 
L 972 3319 
L 972 1478 
Q 972 1038 1006 884 
Q 1059 663 1231 536 
Q 1403 409 1656 409 
Q 1909 409 2131 539 
Q 2353 669 2445 892 
Q 2538 1116 2538 1541 
L 2538 3319 
L 3100 3319 
L 3100 0 
L 2597 0 
z
" transform="scale(0.015625)"/>
       <path id="ArialMT-73" d="M 197 991 
L 753 1078 
Q 800 744 1014 566 
Q 1228 388 1613 388 
Q 2000 388 2187 545 
Q 2375 703 2375 916 
Q 2375 1106 2209 1216 
Q 2094 1291 1634 1406 
Q 1016 1563 777 1677 
Q 538 1791 414 1992 
Q 291 2194 291 2438 
Q 291 2659 392 2848 
Q 494 3038 669 3163 
Q 800 3259 1026 3326 
Q 1253 3394 1513 3394 
Q 1903 3394 2198 3281 
Q 2494 3169 2634 2976 
Q 2775 2784 2828 2463 
L 2278 2388 
Q 2241 2644 2061 2787 
Q 1881 2931 1553 2931 
Q 1166 2931 1000 2803 
Q 834 2675 834 2503 
Q 834 2394 903 2306 
Q 972 2216 1119 2156 
Q 1203 2125 1616 2013 
Q 2213 1853 2448 1751 
Q 2684 1650 2818 1456 
Q 2953 1263 2953 975 
Q 2953 694 2789 445 
Q 2625 197 2315 61 
Q 2006 -75 1616 -75 
Q 969 -75 630 194 
Q 291 463 197 991 
z
" transform="scale(0.015625)"/>
       <path id="ArialMT-65" d="M 2694 1069 
L 3275 997 
Q 3138 488 2766 206 
Q 2394 -75 1816 -75 
Q 1088 -75 661 373 
Q 234 822 234 1631 
Q 234 2469 665 2931 
Q 1097 3394 1784 3394 
Q 2450 3394 2872 2941 
Q 3294 2488 3294 1666 
Q 3294 1616 3291 1516 
L 816 1516 
Q 847 969 1125 678 
Q 1403 388 1819 388 
Q 2128 388 2347 550 
Q 2566 713 2694 1069 
z
M 847 1978 
L 2700 1978 
Q 2663 2397 2488 2606 
Q 2219 2931 1791 2931 
Q 1403 2931 1139 2672 
Q 875 2413 847 1978 
z
" transform="scale(0.015625)"/>
       <path id="ArialMT-64" d="M 2575 0 
L 2575 419 
Q 2259 -75 1647 -75 
Q 1250 -75 917 144 
Q 584 363 401 755 
Q 219 1147 219 1656 
Q 219 2153 384 2558 
Q 550 2963 881 3178 
Q 1213 3394 1622 3394 
Q 1922 3394 2156 3267 
Q 2391 3141 2538 2938 
L 2538 4581 
L 3097 4581 
L 3097 0 
L 2575 0 
z
M 797 1656 
Q 797 1019 1065 703 
Q 1334 388 1700 388 
Q 2069 388 2326 689 
Q 2584 991 2584 1609 
Q 2584 2291 2321 2609 
Q 2059 2928 1675 2928 
Q 1300 2928 1048 2622 
Q 797 2316 797 1656 
z
" transform="scale(0.015625)"/>
       <path id="ArialMT-61" d="M 2588 409 
Q 2275 144 1986 34 
Q 1697 -75 1366 -75 
Q 819 -75 525 192 
Q 231 459 231 875 
Q 231 1119 342 1320 
Q 453 1522 633 1644 
Q 813 1766 1038 1828 
Q 1203 1872 1538 1913 
Q 2219 1994 2541 2106 
Q 2544 2222 2544 2253 
Q 2544 2597 2384 2738 
Q 2169 2928 1744 2928 
Q 1347 2928 1158 2789 
Q 969 2650 878 2297 
L 328 2372 
Q 403 2725 575 2942 
Q 747 3159 1072 3276 
Q 1397 3394 1825 3394 
Q 2250 3394 2515 3294 
Q 2781 3194 2906 3042 
Q 3031 2891 3081 2659 
Q 3109 2516 3109 2141 
L 3109 1391 
Q 3109 606 3145 398 
Q 3181 191 3288 0 
L 2700 0 
Q 2613 175 2588 409 
z
M 2541 1666 
Q 2234 1541 1622 1453 
Q 1275 1403 1131 1340 
Q 988 1278 909 1158 
Q 831 1038 831 891 
Q 831 666 1001 516 
Q 1172 366 1500 366 
Q 1825 366 2078 508 
Q 2331 650 2450 897 
Q 2541 1088 2541 1459 
L 2541 1666 
z
" transform="scale(0.015625)"/>
       <path id="ArialMT-6e" d="M 422 0 
L 422 3319 
L 928 3319 
L 928 2847 
Q 1294 3394 1984 3394 
Q 2284 3394 2536 3286 
Q 2788 3178 2913 3003 
Q 3038 2828 3088 2588 
Q 3119 2431 3119 2041 
L 3119 0 
L 2556 0 
L 2556 2019 
Q 2556 2363 2490 2533 
Q 2425 2703 2258 2804 
Q 2091 2906 1866 2906 
Q 1506 2906 1245 2678 
Q 984 2450 984 1813 
L 984 0 
L 422 0 
z
" transform="scale(0.015625)"/>
       <path id="ArialMT-70" d="M 422 -1272 
L 422 3319 
L 934 3319 
L 934 2888 
Q 1116 3141 1344 3267 
Q 1572 3394 1897 3394 
Q 2322 3394 2647 3175 
Q 2972 2956 3137 2557 
Q 3303 2159 3303 1684 
Q 3303 1175 3120 767 
Q 2938 359 2589 142 
Q 2241 -75 1856 -75 
Q 1575 -75 1351 44 
Q 1128 163 984 344 
L 984 -1272 
L 422 -1272 
z
M 931 1641 
Q 931 1000 1190 694 
Q 1450 388 1819 388 
Q 2194 388 2461 705 
Q 2728 1022 2728 1688 
Q 2728 2322 2467 2637 
Q 2206 2953 1844 2953 
Q 1484 2953 1207 2617 
Q 931 2281 931 1641 
z
" transform="scale(0.015625)"/>
      </defs>
      <use xlink:href="#ArialMT-6c"/>
      <use xlink:href="#ArialMT-6f" transform="translate(22.216797 0)"/>
      <use xlink:href="#ArialMT-67" transform="translate(77.832031 0)"/>
      <use xlink:href="#ArialMT-31" transform="translate(133.447266 0)"/>
      <use xlink:href="#ArialMT-30" transform="translate(189.0625 0)"/>
      <use xlink:href="#ArialMT-28" transform="translate(244.677734 0)"/>
      <use xlink:href="#ArialMT-42" transform="translate(277.978516 0)"/>
      <use xlink:href="#ArialMT-45" transform="translate(344.677734 0)"/>
      <use xlink:href="#ArialMT-52" transform="translate(411.376953 0)"/>
      <use xlink:href="#ArialMT-29" transform="translate(483.59375 0)"/>
      <use xlink:href="#ArialMT-2c" transform="translate(516.894531 0)"/>
      <use xlink:href="#ArialMT-20" transform="translate(544.677734 0)"/>
      <use xlink:href="#ArialMT-72" transform="translate(572.460938 0)"/>
      <use xlink:href="#ArialMT-69" transform="translate(605.761719 0)"/>
      <use xlink:href="#ArialMT-67" transform="translate(627.978516 0)"/>
      <use xlink:href="#ArialMT-68" transform="translate(683.59375 0)"/>
      <use xlink:href="#ArialMT-74" transform="translate(739.208984 0)"/>
      <use xlink:href="#ArialMT-2d" transform="translate(766.992188 0)"/>
      <use xlink:href="#ArialMT-66" transform="translate(800.292969 0)"/>
      <use xlink:href="#ArialMT-6f" transform="translate(828.076172 0)"/>
      <use xlink:href="#ArialMT-63" transform="translate(883.691406 0)"/>
      <use xlink:href="#ArialMT-75" transform="translate(933.691406 0)"/>
      <use xlink:href="#ArialMT-73" transform="translate(989.306641 0)"/>
      <use xlink:href="#ArialMT-65" transform="translate(1039.306641 0)"/>
      <use xlink:href="#ArialMT-64" transform="translate(1094.921875 0)"/>
      <use xlink:href="#ArialMT-20" transform="translate(1150.537109 0)"/>
      <use xlink:href="#ArialMT-61" transform="translate(1178.320312 0)"/>
      <use xlink:href="#ArialMT-6e" transform="translate(1233.935547 0)"/>
      <use xlink:href="#ArialMT-64" transform="translate(1289.550781 0)"/>
      <use xlink:href="#ArialMT-20" transform="translate(1345.166016 0)"/>
      <use xlink:href="#ArialMT-63" transform="translate(1372.949219 0)"/>
      <use xlink:href="#ArialMT-6c" transform="translate(1422.949219 0)"/>
      <use xlink:href="#ArialMT-69" transform="translate(1445.166016 0)"/>
      <use xlink:href="#ArialMT-70" transform="translate(1467.382812 0)"/>
      <use xlink:href="#ArialMT-70" transform="translate(1522.998047 0)"/>
      <use xlink:href="#ArialMT-65" transform="translate(1578.613281 0)"/>
      <use xlink:href="#ArialMT-64" transform="translate(1634.228516 0)"/>
      <use xlink:href="#ArialMT-20" transform="translate(1689.84375 0)"/>
      <use xlink:href="#ArialMT-61" transform="translate(1717.626953 0)"/>
      <use xlink:href="#ArialMT-74" transform="translate(1773.242188 0)"/>
      <use xlink:href="#ArialMT-20" transform="translate(1801.025391 0)"/>
      <use xlink:href="#ArialMT-2d" transform="translate(1828.808594 0)"/>
      <use xlink:href="#ArialMT-31" transform="translate(1862.109375 0)"/>
      <use xlink:href="#ArialMT-35" transform="translate(1917.724609 0)"/>
     </g>
    </g>
   </g>
   <g id="matplotlib.axis_2">
    <g id="ytick_1">
     <g id="line2d_25">
      <defs>
       <path id="ma64cee2549" d="M 0 0 
L -3 0 
" style="stroke: #000000; stroke-width: 0.6"/>
      </defs>
      <g>
       <use xlink:href="#ma64cee2549" x="34.74625" y="161.185741" style="stroke: #000000; stroke-width: 0.6"/>
      </g>
     </g>
     <g id="text_14">
      <!-- 0.0 -->
      <g transform="translate(18.51625 163.690976) scale(0.07 -0.07)">
       <defs>
        <path id="ArialMT-2e" d="M 581 0 
L 581 641 
L 1222 641 
L 1222 0 
L 581 0 
z
" transform="scale(0.015625)"/>
       </defs>
       <use xlink:href="#ArialMT-30"/>
       <use xlink:href="#ArialMT-2e" transform="translate(55.615234 0)"/>
       <use xlink:href="#ArialMT-30" transform="translate(83.398438 0)"/>
      </g>
     </g>
    </g>
    <g id="ytick_2">
     <g id="line2d_26">
      <g>
       <use xlink:href="#ma64cee2549" x="34.74625" y="133.432073" style="stroke: #000000; stroke-width: 0.6"/>
      </g>
     </g>
     <g id="text_15">
      <!-- 0.2 -->
      <g transform="translate(18.51625 135.937307) scale(0.07 -0.07)">
       <use xlink:href="#ArialMT-30"/>
       <use xlink:href="#ArialMT-2e" transform="translate(55.615234 0)"/>
       <use xlink:href="#ArialMT-32" transform="translate(83.398438 0)"/>
      </g>
     </g>
    </g>
    <g id="ytick_3">
     <g id="line2d_27">
      <g>
       <use xlink:href="#ma64cee2549" x="34.74625" y="105.678404" style="stroke: #000000; stroke-width: 0.6"/>
      </g>
     </g>
     <g id="text_16">
      <!-- 0.4 -->
      <g transform="translate(18.51625 108.183638) scale(0.07 -0.07)">
       <use xlink:href="#ArialMT-30"/>
       <use xlink:href="#ArialMT-2e" transform="translate(55.615234 0)"/>
       <use xlink:href="#ArialMT-34" transform="translate(83.398438 0)"/>
      </g>
     </g>
    </g>
    <g id="ytick_4">
     <g id="line2d_28">
      <g>
       <use xlink:href="#ma64cee2549" x="34.74625" y="77.924735" style="stroke: #000000; stroke-width: 0.6"/>
      </g>
     </g>
     <g id="text_17">
      <!-- 0.6 -->
      <g transform="translate(18.51625 80.42997) scale(0.07 -0.07)">
       <use xlink:href="#ArialMT-30"/>
       <use xlink:href="#ArialMT-2e" transform="translate(55.615234 0)"/>
       <use xlink:href="#ArialMT-36" transform="translate(83.398438 0)"/>
      </g>
     </g>
    </g>
    <g id="ytick_5">
     <g id="line2d_29">
      <g>
       <use xlink:href="#ma64cee2549" x="34.74625" y="50.171067" style="stroke: #000000; stroke-width: 0.6"/>
      </g>
     </g>
     <g id="text_18">
      <!-- 0.8 -->
      <g transform="translate(18.51625 52.676301) scale(0.07 -0.07)">
       <use xlink:href="#ArialMT-30"/>
       <use xlink:href="#ArialMT-2e" transform="translate(55.615234 0)"/>
       <use xlink:href="#ArialMT-38" transform="translate(83.398438 0)"/>
      </g>
     </g>
    </g>
    <g id="ytick_6">
     <g id="line2d_30">
      <g>
       <use xlink:href="#ma64cee2549" x="34.74625" y="22.417398" style="stroke: #000000; stroke-width: 0.6"/>
      </g>
     </g>
     <g id="text_19">
      <!-- 1.0 -->
      <g transform="translate(18.51625 24.922632) scale(0.07 -0.07)">
       <use xlink:href="#ArialMT-31"/>
       <use xlink:href="#ArialMT-2e" transform="translate(55.615234 0)"/>
       <use xlink:href="#ArialMT-30" transform="translate(83.398438 0)"/>
      </g>
     </g>
    </g>
    <g id="text_20">
     <!-- CDF -->
     <g transform="translate(12.92625 98.634511) rotate(-90) scale(0.08 -0.08)">
      <defs>
       <path id="ArialMT-43" d="M 3763 1606 
L 4369 1453 
Q 4178 706 3683 314 
Q 3188 -78 2472 -78 
Q 1731 -78 1267 223 
Q 803 525 561 1097 
Q 319 1669 319 2325 
Q 319 3041 592 3573 
Q 866 4106 1370 4382 
Q 1875 4659 2481 4659 
Q 3169 4659 3637 4309 
Q 4106 3959 4291 3325 
L 3694 3184 
Q 3534 3684 3231 3912 
Q 2928 4141 2469 4141 
Q 1941 4141 1586 3887 
Q 1231 3634 1087 3207 
Q 944 2781 944 2328 
Q 944 1744 1114 1308 
Q 1284 872 1643 656 
Q 2003 441 2422 441 
Q 2931 441 3284 734 
Q 3638 1028 3763 1606 
z
" transform="scale(0.015625)"/>
       <path id="ArialMT-44" d="M 494 0 
L 494 4581 
L 2072 4581 
Q 2606 4581 2888 4516 
Q 3281 4425 3559 4188 
Q 3922 3881 4101 3404 
Q 4281 2928 4281 2316 
Q 4281 1794 4159 1391 
Q 4038 988 3847 723 
Q 3656 459 3429 307 
Q 3203 156 2883 78 
Q 2563 0 2147 0 
L 494 0 
z
M 1100 541 
L 2078 541 
Q 2531 541 2789 625 
Q 3047 709 3200 863 
Q 3416 1078 3536 1442 
Q 3656 1806 3656 2325 
Q 3656 3044 3420 3430 
Q 3184 3816 2847 3947 
Q 2603 4041 2063 4041 
L 1100 4041 
L 1100 541 
z
" transform="scale(0.015625)"/>
       <path id="ArialMT-46" d="M 525 0 
L 525 4581 
L 3616 4581 
L 3616 4041 
L 1131 4041 
L 1131 2622 
L 3281 2622 
L 3281 2081 
L 1131 2081 
L 1131 0 
L 525 0 
z
" transform="scale(0.015625)"/>
      </defs>
      <use xlink:href="#ArialMT-43"/>
      <use xlink:href="#ArialMT-44" transform="translate(72.216797 0)"/>
      <use xlink:href="#ArialMT-46" transform="translate(144.433594 0)"/>
     </g>
    </g>
   </g>
   <g id="line2d_31">
    <path d="M 34.74625 161.185741 
L 34.74625 145.767037 
L 43.143701 130.348332 
L 57.265713 114.929627 
L 84.053909 99.510922 
L 154.456764 84.092217 
L 154.580487 68.673513 
L 166.259133 53.254808 
L 179.209749 37.836103 
L 197.160446 22.417398 
" clip-path="url(#pc7e8dc363a)" style="fill: none; stroke: #009e73; stroke-width: 1.5; stroke-linecap: square"/>
   </g>
   <g id="line2d_32">
    <path d="M 34.74625 161.185741 
L 34.74625 158.353734 
L 34.74625 155.521727 
L 34.74625 152.68972 
L 34.74625 149.857713 
L 34.74625 147.025706 
L 34.74625 144.193699 
L 34.74625 141.361692 
L 34.74625 138.529685 
L 34.74625 135.697678 
L 34.74625 132.865671 
L 34.74625 130.033664 
L 34.949616 127.201657 
L 73.711129 124.36965 
L 81.086073 121.537643 
L 106.472081 118.705636 
L 106.614479 115.873629 
L 122.111552 113.041622 
L 124.278302 110.209615 
L 125.865027 107.377608 
L 131.9375 104.545601 
L 133.457788 101.713594 
L 146.677686 98.881587 
L 152.990981 96.04958 
L 153.412284 93.217573 
L 154.613364 90.385566 
L 156.869429 87.553559 
L 158.924853 84.721552 
L 160.177848 81.889545 
L 160.314364 79.057538 
L 167.16257 76.225531 
L 168.389162 73.393524 
L 176.823558 70.561517 
L 183.245411 67.72951 
L 190.30874 64.897503 
L 198.084386 62.065496 
L 200.119629 59.233489 
L 205.054339 56.401482 
L 209.668529 53.569475 
L 311.335479 50.737468 
L 311.335485 47.905461 
L 311.335486 45.073454 
L 311.335487 42.241447 
L 311.33549 39.40944 
L 311.335493 36.577433 
L 311.337046 33.745426 
L 311.337047 30.913419 
L 311.337047 28.081412 
L 311.337048 25.249405 
L 311.337048 22.417398 
" clip-path="url(#pc7e8dc363a)" style="fill: none; stroke: #e69f00; stroke-width: 1.5; stroke-linecap: square"/>
   </g>
   <g id="line2d_33">
    <path d="M 34.74625 161.185741 
L 34.74625 129.805965 
L 35.951293 129.108637 
L 38.902629 128.411309 
L 42.8693 127.016652 
L 47.376112 126.319324 
L 47.436671 125.621995 
L 48.563126 124.924667 
L 52.591557 124.227338 
L 55.125174 123.53001 
L 56.027114 122.135353 
L 56.306972 121.438025 
L 58.302643 120.740697 
L 58.641376 120.043368 
L 71.565834 119.34604 
L 73.941054 118.648712 
L 77.183824 117.951383 
L 80.397155 115.859398 
L 81.103973 114.464741 
L 83.515778 113.767413 
L 87.294858 113.070085 
L 88.808334 112.372756 
L 93.573278 111.675428 
L 100.08037 110.9781 
L 103.306202 110.280771 
L 103.507486 109.583443 
L 103.552446 108.886115 
L 106.337357 108.188786 
L 106.463574 107.491458 
L 106.796174 106.794129 
L 106.808159 106.096801 
L 107.611251 105.399473 
L 114.471244 104.702144 
L 124.206672 104.004816 
L 125.658264 103.307488 
L 126.384407 102.610159 
L 126.767012 101.912831 
L 134.14475 101.215503 
L 135.32042 99.820846 
L 137.927668 99.123518 
L 138.707015 98.426189 
L 138.895128 97.728861 
L 139.340867 97.031532 
L 140.582626 95.636876 
L 141.862517 94.939547 
L 142.797669 94.242219 
L 143.269554 93.544891 
L 144.171254 91.452906 
L 145.22717 90.755577 
L 145.238822 90.058249 
L 146.807914 89.360921 
L 147.159206 87.268935 
L 147.515726 86.571607 
L 154.860371 85.874279 
L 155.037412 84.479622 
L 155.435566 83.782294 
L 157.333318 83.084965 
L 158.628602 82.387637 
L 158.946736 81.690309 
L 159.090641 80.99298 
L 160.001037 80.295652 
L 160.281114 79.598324 
L 160.773925 78.900995 
L 163.711872 78.203667 
L 165.242794 77.506338 
L 165.646106 75.414353 
L 166.628888 74.717025 
L 166.762141 74.019697 
L 167.56321 73.322368 
L 169.767383 72.62504 
L 170.830058 71.927712 
L 170.834508 71.230383 
L 171.337215 70.533055 
L 172.228062 69.835726 
L 173.394417 69.138398 
L 173.83362 68.44107 
L 174.801668 67.743741 
L 175.002162 67.046413 
L 177.528715 66.349085 
L 178.103898 65.651756 
L 178.114709 64.954428 
L 179.360796 64.2571 
L 181.775266 63.559771 
L 182.845228 62.165115 
L 183.613756 61.467786 
L 183.635433 60.770458 
L 184.531323 60.073129 
L 189.256108 59.375801 
L 190.320953 58.678473 
L 190.715521 57.981144 
L 191.59021 57.283816 
L 191.763581 55.889159 
L 191.901049 55.191831 
L 193.055777 54.494503 
L 194.680284 53.797174 
L 194.705447 53.099846 
L 195.978265 51.705189 
L 196.94565 51.007861 
L 197.087008 49.613204 
L 197.267659 48.915876 
L 199.478931 48.218547 
L 200.869497 46.823891 
L 204.121894 46.126562 
L 204.564564 44.731906 
L 205.002606 44.034577 
L 205.233426 43.337249 
L 206.827981 42.639921 
L 211.87335 41.942592 
L 213.085294 41.245264 
L 311.335482 40.547935 
L 311.337047 22.417398 
L 311.337047 22.417398 
" clip-path="url(#pc7e8dc363a)" style="fill: none; stroke: #cc79a7; stroke-width: 1.5; stroke-linecap: square"/>
   </g>
   <g id="line2d_34">
    <path d="M 266.436802 161.185741 
L 266.436802 19.642031 
" clip-path="url(#pc7e8dc363a)" style="fill: none; stroke-dasharray: 2.96,1.28; stroke-dashoffset: 0; stroke: #d41159; stroke-width: 0.8"/>
   </g>
   <g id="line2d_35">
    <path d="M 185.426674 161.185741 
L 185.426674 19.642031 
" clip-path="url(#pc7e8dc363a)" style="fill: none; stroke-dasharray: 5.76,1.44,0.9,1.44; stroke-dashoffset: 0; stroke: #56b4e9; stroke-width: 0.9"/>
   </g>
   <g id="line2d_36">
    <path d="M 91.251409 161.185741 
L 91.251409 19.642031 
" clip-path="url(#pc7e8dc363a)" style="fill: none; stroke-dasharray: 0.6,0.99; stroke-dashoffset: 0; stroke: #000000; stroke-width: 0.6"/>
   </g>
   <g id="line2d_37">
    <path d="M 34.74625 161.185741 
L 34.74625 19.642031 
" clip-path="url(#pc7e8dc363a)" style="fill: none; stroke-dasharray: 0.6,0.99; stroke-dashoffset: 0; stroke: #888888; stroke-width: 0.6"/>
   </g>
   <g id="patch_3">
    <path d="M 34.74625 161.185741 
L 34.74625 19.642031 
" style="fill: none; stroke: #000000; stroke-width: 0.8; stroke-linejoin: miter; stroke-linecap: square"/>
   </g>
   <g id="patch_4">
    <path d="M 34.74625 161.185741 
L 321.039055 161.185741 
" style="fill: none; stroke: #000000; stroke-width: 0.8; stroke-linejoin: miter; stroke-linecap: square"/>
   </g>
   <g id="text_21">
    <!-- $\log_{10}(\mathrm{BER})&lt;-15$ clipped -->
    <g style="fill: #666666" transform="translate(41.979508 155.635008) rotate(-90) scale(0.058 -0.058)">
     <defs>
      <path id="DejaVuSans-6c" d="M 603 4863 
L 1178 4863 
L 1178 0 
L 603 0 
L 603 4863 
z
" transform="scale(0.015625)"/>
      <path id="DejaVuSans-6f" d="M 1959 3097 
Q 1497 3097 1228 2736 
Q 959 2375 959 1747 
Q 959 1119 1226 758 
Q 1494 397 1959 397 
Q 2419 397 2687 759 
Q 2956 1122 2956 1747 
Q 2956 2369 2687 2733 
Q 2419 3097 1959 3097 
z
M 1959 3584 
Q 2709 3584 3137 3096 
Q 3566 2609 3566 1747 
Q 3566 888 3137 398 
Q 2709 -91 1959 -91 
Q 1206 -91 779 398 
Q 353 888 353 1747 
Q 353 2609 779 3096 
Q 1206 3584 1959 3584 
z
" transform="scale(0.015625)"/>
      <path id="DejaVuSans-67" d="M 2906 1791 
Q 2906 2416 2648 2759 
Q 2391 3103 1925 3103 
Q 1463 3103 1205 2759 
Q 947 2416 947 1791 
Q 947 1169 1205 825 
Q 1463 481 1925 481 
Q 2391 481 2648 825 
Q 2906 1169 2906 1791 
z
M 3481 434 
Q 3481 -459 3084 -895 
Q 2688 -1331 1869 -1331 
Q 1566 -1331 1297 -1286 
Q 1028 -1241 775 -1147 
L 775 -588 
Q 1028 -725 1275 -790 
Q 1522 -856 1778 -856 
Q 2344 -856 2625 -561 
Q 2906 -266 2906 331 
L 2906 616 
Q 2728 306 2450 153 
Q 2172 0 1784 0 
Q 1141 0 747 490 
Q 353 981 353 1791 
Q 353 2603 747 3093 
Q 1141 3584 1784 3584 
Q 2172 3584 2450 3431 
Q 2728 3278 2906 2969 
L 2906 3500 
L 3481 3500 
L 3481 434 
z
" transform="scale(0.015625)"/>
      <path id="DejaVuSans-31" d="M 794 531 
L 1825 531 
L 1825 4091 
L 703 3866 
L 703 4441 
L 1819 4666 
L 2450 4666 
L 2450 531 
L 3481 531 
L 3481 0 
L 794 0 
L 794 531 
z
" transform="scale(0.015625)"/>
      <path id="DejaVuSans-30" d="M 2034 4250 
Q 1547 4250 1301 3770 
Q 1056 3291 1056 2328 
Q 1056 1369 1301 889 
Q 1547 409 2034 409 
Q 2525 409 2770 889 
Q 3016 1369 3016 2328 
Q 3016 3291 2770 3770 
Q 2525 4250 2034 4250 
z
M 2034 4750 
Q 2819 4750 3233 4129 
Q 3647 3509 3647 2328 
Q 3647 1150 3233 529 
Q 2819 -91 2034 -91 
Q 1250 -91 836 529 
Q 422 1150 422 2328 
Q 422 3509 836 4129 
Q 1250 4750 2034 4750 
z
" transform="scale(0.015625)"/>
      <path id="DejaVuSans-28" d="M 1984 4856 
Q 1566 4138 1362 3434 
Q 1159 2731 1159 2009 
Q 1159 1288 1364 580 
Q 1569 -128 1984 -844 
L 1484 -844 
Q 1016 -109 783 600 
Q 550 1309 550 2009 
Q 550 2706 781 3412 
Q 1013 4119 1484 4856 
L 1984 4856 
z
" transform="scale(0.015625)"/>
      <path id="DejaVuSans-42" d="M 1259 2228 
L 1259 519 
L 2272 519 
Q 2781 519 3026 730 
Q 3272 941 3272 1375 
Q 3272 1813 3026 2020 
Q 2781 2228 2272 2228 
L 1259 2228 
z
M 1259 4147 
L 1259 2741 
L 2194 2741 
Q 2656 2741 2882 2914 
Q 3109 3088 3109 3444 
Q 3109 3797 2882 3972 
Q 2656 4147 2194 4147 
L 1259 4147 
z
M 628 4666 
L 2241 4666 
Q 2963 4666 3353 4366 
Q 3744 4066 3744 3513 
Q 3744 3084 3544 2831 
Q 3344 2578 2956 2516 
Q 3422 2416 3680 2098 
Q 3938 1781 3938 1306 
Q 3938 681 3513 340 
Q 3088 0 2303 0 
L 628 0 
L 628 4666 
z
" transform="scale(0.015625)"/>
      <path id="DejaVuSans-45" d="M 628 4666 
L 3578 4666 
L 3578 4134 
L 1259 4134 
L 1259 2753 
L 3481 2753 
L 3481 2222 
L 1259 2222 
L 1259 531 
L 3634 531 
L 3634 0 
L 628 0 
L 628 4666 
z
" transform="scale(0.015625)"/>
      <path id="DejaVuSans-52" d="M 2841 2188 
Q 3044 2119 3236 1894 
Q 3428 1669 3622 1275 
L 4263 0 
L 3584 0 
L 2988 1197 
Q 2756 1666 2539 1819 
Q 2322 1972 1947 1972 
L 1259 1972 
L 1259 0 
L 628 0 
L 628 4666 
L 2053 4666 
Q 2853 4666 3247 4331 
Q 3641 3997 3641 3322 
Q 3641 2881 3436 2590 
Q 3231 2300 2841 2188 
z
M 1259 4147 
L 1259 2491 
L 2053 2491 
Q 2509 2491 2742 2702 
Q 2975 2913 2975 3322 
Q 2975 3731 2742 3939 
Q 2509 4147 2053 4147 
L 1259 4147 
z
" transform="scale(0.015625)"/>
      <path id="DejaVuSans-29" d="M 513 4856 
L 1013 4856 
Q 1481 4119 1714 3412 
Q 1947 2706 1947 2009 
Q 1947 1309 1714 600 
Q 1481 -109 1013 -844 
L 513 -844 
Q 928 -128 1133 580 
Q 1338 1288 1338 2009 
Q 1338 2731 1133 3434 
Q 928 4138 513 4856 
z
" transform="scale(0.015625)"/>
      <path id="DejaVuSans-3c" d="M 4684 3150 
L 1459 2003 
L 4684 863 
L 4684 294 
L 678 1747 
L 678 2266 
L 4684 3719 
L 4684 3150 
z
" transform="scale(0.015625)"/>
      <path id="DejaVuSans-2212" d="M 678 2272 
L 4684 2272 
L 4684 1741 
L 678 1741 
L 678 2272 
z
" transform="scale(0.015625)"/>
      <path id="DejaVuSans-35" d="M 691 4666 
L 3169 4666 
L 3169 4134 
L 1269 4134 
L 1269 2991 
Q 1406 3038 1543 3061 
Q 1681 3084 1819 3084 
Q 2600 3084 3056 2656 
Q 3513 2228 3513 1497 
Q 3513 744 3044 326 
Q 2575 -91 1722 -91 
Q 1428 -91 1123 -41 
Q 819 9 494 109 
L 494 744 
Q 775 591 1075 516 
Q 1375 441 1709 441 
Q 2250 441 2565 725 
Q 2881 1009 2881 1497 
Q 2881 1984 2565 2268 
Q 2250 2553 1709 2553 
Q 1456 2553 1204 2497 
Q 953 2441 691 2322 
L 691 4666 
z
" transform="scale(0.015625)"/>
     </defs>
     <use xlink:href="#DejaVuSans-6c" transform="translate(0 0.015625)"/>
     <use xlink:href="#DejaVuSans-6f" transform="translate(27.783203 0.015625)"/>
     <use xlink:href="#DejaVuSans-67" transform="translate(88.964844 0.015625)"/>
     <use xlink:href="#DejaVuSans-31" transform="translate(153.398438 -16.390625) scale(0.7)"/>
     <use xlink:href="#DejaVuSans-30" transform="translate(197.93457 -16.390625) scale(0.7)"/>
     <use xlink:href="#DejaVuSans-28" transform="translate(261.440754 0.015625)"/>
     <use xlink:href="#DejaVuSans-42" transform="translate(300.454426 0.015625)"/>
     <use xlink:href="#DejaVuSans-45" transform="translate(369.057942 0.015625)"/>
     <use xlink:href="#DejaVuSans-52" transform="translate(432.241536 0.015625)"/>
     <use xlink:href="#DejaVuSans-29" transform="translate(501.723958 0.015625)"/>
     <use xlink:href="#DejaVuSans-3c" transform="translate(560.220051 0.015625)"/>
     <use xlink:href="#DejaVuSans-2212" transform="translate(663.491536 0.015625)"/>
     <use xlink:href="#DejaVuSans-31" transform="translate(747.280598 0.015625)"/>
     <use xlink:href="#DejaVuSans-35" transform="translate(810.903645 0.015625)"/>
     <use xlink:href="#ArialMT-20" transform="translate(874.526692 0.015625)"/>
     <use xlink:href="#ArialMT-63" transform="translate(902.309895 0.015625)"/>
     <use xlink:href="#ArialMT-6c" transform="translate(952.309895 0.015625)"/>
     <use xlink:href="#ArialMT-69" transform="translate(974.526692 0.015625)"/>
     <use xlink:href="#ArialMT-70" transform="translate(996.743489 0.015625)"/>
     <use xlink:href="#ArialMT-70" transform="translate(1052.358723 0.015625)"/>
     <use xlink:href="#ArialMT-65" transform="translate(1107.973958 0.015625)"/>
     <use xlink:href="#ArialMT-64" transform="translate(1163.589192 0.015625)"/>
    </g>
   </g>
   <g id="text_22">
    <!-- c  End-to-end BER distribution -->
    <g transform="translate(117.365543 13.642031) scale(0.09 -0.09)">
     <defs>
      <path id="ArialMT-62" d="M 941 0 
L 419 0 
L 419 4581 
L 981 4581 
L 981 2947 
Q 1338 3394 1891 3394 
Q 2197 3394 2470 3270 
Q 2744 3147 2920 2923 
Q 3097 2700 3197 2384 
Q 3297 2069 3297 1709 
Q 3297 856 2875 390 
Q 2453 -75 1863 -75 
Q 1275 -75 941 416 
L 941 0 
z
M 934 1684 
Q 934 1088 1097 822 
Q 1363 388 1816 388 
Q 2184 388 2453 708 
Q 2722 1028 2722 1663 
Q 2722 2313 2464 2622 
Q 2206 2931 1841 2931 
Q 1472 2931 1203 2611 
Q 934 2291 934 1684 
z
" transform="scale(0.015625)"/>
     </defs>
     <use xlink:href="#ArialMT-63"/>
     <use xlink:href="#ArialMT-20" transform="translate(50 0)"/>
     <use xlink:href="#ArialMT-20" transform="translate(77.783203 0)"/>
     <use xlink:href="#ArialMT-45" transform="translate(105.566406 0)"/>
     <use xlink:href="#ArialMT-6e" transform="translate(172.265625 0)"/>
     <use xlink:href="#ArialMT-64" transform="translate(227.880859 0)"/>
     <use xlink:href="#ArialMT-2d" transform="translate(283.496094 0)"/>
     <use xlink:href="#ArialMT-74" transform="translate(316.796875 0)"/>
     <use xlink:href="#ArialMT-6f" transform="translate(344.580078 0)"/>
     <use xlink:href="#ArialMT-2d" transform="translate(400.195312 0)"/>
     <use xlink:href="#ArialMT-65" transform="translate(433.496094 0)"/>
     <use xlink:href="#ArialMT-6e" transform="translate(489.111328 0)"/>
     <use xlink:href="#ArialMT-64" transform="translate(544.726562 0)"/>
     <use xlink:href="#ArialMT-20" transform="translate(600.341797 0)"/>
     <use xlink:href="#ArialMT-42" transform="translate(628.125 0)"/>
     <use xlink:href="#ArialMT-45" transform="translate(694.824219 0)"/>
     <use xlink:href="#ArialMT-52" transform="translate(761.523438 0)"/>
     <use xlink:href="#ArialMT-20" transform="translate(833.740234 0)"/>
     <use xlink:href="#ArialMT-64" transform="translate(861.523438 0)"/>
     <use xlink:href="#ArialMT-69" transform="translate(917.138672 0)"/>
     <use xlink:href="#ArialMT-73" transform="translate(939.355469 0)"/>
     <use xlink:href="#ArialMT-74" transform="translate(989.355469 0)"/>
     <use xlink:href="#ArialMT-72" transform="translate(1017.138672 0)"/>
     <use xlink:href="#ArialMT-69" transform="translate(1050.439453 0)"/>
     <use xlink:href="#ArialMT-62" transform="translate(1072.65625 0)"/>
     <use xlink:href="#ArialMT-75" transform="translate(1128.271484 0)"/>
     <use xlink:href="#ArialMT-74" transform="translate(1183.886719 0)"/>
     <use xlink:href="#ArialMT-69" transform="translate(1211.669922 0)"/>
     <use xlink:href="#ArialMT-6f" transform="translate(1233.886719 0)"/>
     <use xlink:href="#ArialMT-6e" transform="translate(1289.501953 0)"/>
    </g>
   </g>
   <g id="legend_1">
    <g id="line2d_38">
     <path d="M 40.14625 27.309844 
L 46.14625 27.309844 
L 52.14625 27.309844 
" style="fill: none; stroke: #009e73; stroke-width: 1.5; stroke-linecap: square"/>
    </g>
    <g id="text_23">
     <!-- Low load (n=10) -->
     <g transform="translate(56.94625 29.409844) scale(0.06 -0.06)">
      <defs>
       <path id="ArialMT-4c" d="M 469 0 
L 469 4581 
L 1075 4581 
L 1075 541 
L 3331 541 
L 3331 0 
L 469 0 
z
" transform="scale(0.015625)"/>
       <path id="ArialMT-77" d="M 1034 0 
L 19 3319 
L 600 3319 
L 1128 1403 
L 1325 691 
Q 1338 744 1497 1375 
L 2025 3319 
L 2603 3319 
L 3100 1394 
L 3266 759 
L 3456 1400 
L 4025 3319 
L 4572 3319 
L 3534 0 
L 2950 0 
L 2422 1988 
L 2294 2553 
L 1622 0 
L 1034 0 
z
" transform="scale(0.015625)"/>
       <path id="ArialMT-3d" d="M 3381 2694 
L 356 2694 
L 356 3219 
L 3381 3219 
L 3381 2694 
z
M 3381 1303 
L 356 1303 
L 356 1828 
L 3381 1828 
L 3381 1303 
z
" transform="scale(0.015625)"/>
      </defs>
      <use xlink:href="#ArialMT-4c"/>
      <use xlink:href="#ArialMT-6f" transform="translate(55.615234 0)"/>
      <use xlink:href="#ArialMT-77" transform="translate(111.230469 0)"/>
      <use xlink:href="#ArialMT-20" transform="translate(183.447266 0)"/>
      <use xlink:href="#ArialMT-6c" transform="translate(211.230469 0)"/>
      <use xlink:href="#ArialMT-6f" transform="translate(233.447266 0)"/>
      <use xlink:href="#ArialMT-61" transform="translate(289.0625 0)"/>
      <use xlink:href="#ArialMT-64" transform="translate(344.677734 0)"/>
      <use xlink:href="#ArialMT-20" transform="translate(400.292969 0)"/>
      <use xlink:href="#ArialMT-28" transform="translate(428.076172 0)"/>
      <use xlink:href="#ArialMT-6e" transform="translate(461.376953 0)"/>
      <use xlink:href="#ArialMT-3d" transform="translate(516.992188 0)"/>
      <use xlink:href="#ArialMT-31" transform="translate(575.390625 0)"/>
      <use xlink:href="#ArialMT-30" transform="translate(631.005859 0)"/>
      <use xlink:href="#ArialMT-29" transform="translate(686.621094 0)"/>
     </g>
    </g>
    <g id="line2d_39">
     <path d="M 40.14625 35.940469 
L 46.14625 35.940469 
L 52.14625 35.940469 
" style="fill: none; stroke: #e69f00; stroke-width: 1.5; stroke-linecap: square"/>
    </g>
    <g id="text_24">
     <!-- Medium load (n=50) -->
     <g transform="translate(56.94625 38.040469) scale(0.06 -0.06)">
      <defs>
       <path id="ArialMT-4d" d="M 475 0 
L 475 4581 
L 1388 4581 
L 2472 1338 
Q 2622 884 2691 659 
Q 2769 909 2934 1394 
L 4031 4581 
L 4847 4581 
L 4847 0 
L 4263 0 
L 4263 3834 
L 2931 0 
L 2384 0 
L 1059 3900 
L 1059 0 
L 475 0 
z
" transform="scale(0.015625)"/>
       <path id="ArialMT-6d" d="M 422 0 
L 422 3319 
L 925 3319 
L 925 2853 
Q 1081 3097 1340 3245 
Q 1600 3394 1931 3394 
Q 2300 3394 2536 3241 
Q 2772 3088 2869 2813 
Q 3263 3394 3894 3394 
Q 4388 3394 4653 3120 
Q 4919 2847 4919 2278 
L 4919 0 
L 4359 0 
L 4359 2091 
Q 4359 2428 4304 2576 
Q 4250 2725 4106 2815 
Q 3963 2906 3769 2906 
Q 3419 2906 3187 2673 
Q 2956 2441 2956 1928 
L 2956 0 
L 2394 0 
L 2394 2156 
Q 2394 2531 2256 2718 
Q 2119 2906 1806 2906 
Q 1569 2906 1367 2781 
Q 1166 2656 1075 2415 
Q 984 2175 984 1722 
L 984 0 
L 422 0 
z
" transform="scale(0.015625)"/>
      </defs>
      <use xlink:href="#ArialMT-4d"/>
      <use xlink:href="#ArialMT-65" transform="translate(83.300781 0)"/>
      <use xlink:href="#ArialMT-64" transform="translate(138.916016 0)"/>
      <use xlink:href="#ArialMT-69" transform="translate(194.53125 0)"/>
      <use xlink:href="#ArialMT-75" transform="translate(216.748047 0)"/>
      <use xlink:href="#ArialMT-6d" transform="translate(272.363281 0)"/>
      <use xlink:href="#ArialMT-20" transform="translate(355.664062 0)"/>
      <use xlink:href="#ArialMT-6c" transform="translate(383.447266 0)"/>
      <use xlink:href="#ArialMT-6f" transform="translate(405.664062 0)"/>
      <use xlink:href="#ArialMT-61" transform="translate(461.279297 0)"/>
      <use xlink:href="#ArialMT-64" transform="translate(516.894531 0)"/>
      <use xlink:href="#ArialMT-20" transform="translate(572.509766 0)"/>
      <use xlink:href="#ArialMT-28" transform="translate(600.292969 0)"/>
      <use xlink:href="#ArialMT-6e" transform="translate(633.59375 0)"/>
      <use xlink:href="#ArialMT-3d" transform="translate(689.208984 0)"/>
      <use xlink:href="#ArialMT-35" transform="translate(747.607422 0)"/>
      <use xlink:href="#ArialMT-30" transform="translate(803.222656 0)"/>
      <use xlink:href="#ArialMT-29" transform="translate(858.837891 0)"/>
     </g>
    </g>
    <g id="line2d_40">
     <path d="M 40.14625 44.571094 
L 46.14625 44.571094 
L 52.14625 44.571094 
" style="fill: none; stroke: #cc79a7; stroke-width: 1.5; stroke-linecap: square"/>
    </g>
    <g id="text_25">
     <!-- High load (n=200) -->
     <g transform="translate(56.94625 46.671094) scale(0.06 -0.06)">
      <defs>
       <path id="ArialMT-48" d="M 513 0 
L 513 4581 
L 1119 4581 
L 1119 2700 
L 3500 2700 
L 3500 4581 
L 4106 4581 
L 4106 0 
L 3500 0 
L 3500 2159 
L 1119 2159 
L 1119 0 
L 513 0 
z
" transform="scale(0.015625)"/>
      </defs>
      <use xlink:href="#ArialMT-48"/>
      <use xlink:href="#ArialMT-69" transform="translate(72.216797 0)"/>
      <use xlink:href="#ArialMT-67" transform="translate(94.433594 0)"/>
      <use xlink:href="#ArialMT-68" transform="translate(150.048828 0)"/>
      <use xlink:href="#ArialMT-20" transform="translate(205.664062 0)"/>
      <use xlink:href="#ArialMT-6c" transform="translate(233.447266 0)"/>
      <use xlink:href="#ArialMT-6f" transform="translate(255.664062 0)"/>
      <use xlink:href="#ArialMT-61" transform="translate(311.279297 0)"/>
      <use xlink:href="#ArialMT-64" transform="translate(366.894531 0)"/>
      <use xlink:href="#ArialMT-20" transform="translate(422.509766 0)"/>
      <use xlink:href="#ArialMT-28" transform="translate(450.292969 0)"/>
      <use xlink:href="#ArialMT-6e" transform="translate(483.59375 0)"/>
      <use xlink:href="#ArialMT-3d" transform="translate(539.208984 0)"/>
      <use xlink:href="#ArialMT-32" transform="translate(597.607422 0)"/>
      <use xlink:href="#ArialMT-30" transform="translate(653.222656 0)"/>
      <use xlink:href="#ArialMT-30" transform="translate(708.837891 0)"/>
      <use xlink:href="#ArialMT-29" transform="translate(764.453125 0)"/>
     </g>
    </g>
    <g id="line2d_41">
     <path d="M 40.14625 53.201719 
L 46.14625 53.201719 
L 52.14625 53.201719 
" style="fill: none; stroke-dasharray: 2.96,1.28; stroke-dashoffset: 0; stroke: #d41159; stroke-width: 0.8"/>
    </g>
    <g id="text_26">
     <!-- FEC threshold (2e-03) -->
     <g transform="translate(56.94625 55.301719) scale(0.06 -0.06)">
      <use xlink:href="#ArialMT-46"/>
      <use xlink:href="#ArialMT-45" transform="translate(61.083984 0)"/>
      <use xlink:href="#ArialMT-43" transform="translate(127.783203 0)"/>
      <use xlink:href="#ArialMT-20" transform="translate(200 0)"/>
      <use xlink:href="#ArialMT-74" transform="translate(227.783203 0)"/>
      <use xlink:href="#ArialMT-68" transform="translate(255.566406 0)"/>
      <use xlink:href="#ArialMT-72" transform="translate(311.181641 0)"/>
      <use xlink:href="#ArialMT-65" transform="translate(344.482422 0)"/>
      <use xlink:href="#ArialMT-73" transform="translate(400.097656 0)"/>
      <use xlink:href="#ArialMT-68" transform="translate(450.097656 0)"/>
      <use xlink:href="#ArialMT-6f" transform="translate(505.712891 0)"/>
      <use xlink:href="#ArialMT-6c" transform="translate(561.328125 0)"/>
      <use xlink:href="#ArialMT-64" transform="translate(583.544922 0)"/>
      <use xlink:href="#ArialMT-20" transform="translate(639.160156 0)"/>
      <use xlink:href="#ArialMT-28" transform="translate(666.943359 0)"/>
      <use xlink:href="#ArialMT-32" transform="translate(700.244141 0)"/>
      <use xlink:href="#ArialMT-65" transform="translate(755.859375 0)"/>
      <use xlink:href="#ArialMT-2d" transform="translate(811.474609 0)"/>
      <use xlink:href="#ArialMT-30" transform="translate(844.775391 0)"/>
      <use xlink:href="#ArialMT-33" transform="translate(900.390625 0)"/>
      <use xlink:href="#ArialMT-29" transform="translate(956.005859 0)"/>
     </g>
    </g>
    <g id="line2d_42">
     <path d="M 40.14625 61.836094 
L 46.14625 61.836094 
L 52.14625 61.836094 
" style="fill: none; stroke-dasharray: 5.76,1.44,0.9,1.44; stroke-dashoffset: 0; stroke: #56b4e9; stroke-width: 0.9"/>
    </g>
    <g id="text_27">
     <!-- QoT degradation (1e-7) -->
     <g transform="translate(56.94625 63.936094) scale(0.06 -0.06)">
      <defs>
       <path id="ArialMT-51" d="M 3966 491 
Q 4388 200 4744 66 
L 4566 -356 
Q 4072 -178 3581 206 
Q 3072 -78 2456 -78 
Q 1834 -78 1328 222 
Q 822 522 548 1065 
Q 275 1609 275 2291 
Q 275 2969 550 3525 
Q 825 4081 1333 4372 
Q 1841 4663 2469 4663 
Q 3103 4663 3612 4361 
Q 4122 4059 4389 3517 
Q 4656 2975 4656 2294 
Q 4656 1728 4484 1276 
Q 4313 825 3966 491 
z
M 2631 1266 
Q 3156 1119 3497 828 
Q 4031 1316 4031 2294 
Q 4031 2850 3842 3265 
Q 3653 3681 3289 3911 
Q 2925 4141 2472 4141 
Q 1794 4141 1347 3677 
Q 900 3213 900 2291 
Q 900 1397 1342 919 
Q 1784 441 2472 441 
Q 2797 441 3084 563 
Q 2800 747 2484 825 
L 2631 1266 
z
" transform="scale(0.015625)"/>
       <path id="ArialMT-54" d="M 1659 0 
L 1659 4041 
L 150 4041 
L 150 4581 
L 3781 4581 
L 3781 4041 
L 2266 4041 
L 2266 0 
L 1659 0 
z
" transform="scale(0.015625)"/>
      </defs>
      <use xlink:href="#ArialMT-51"/>
      <use xlink:href="#ArialMT-6f" transform="translate(77.783203 0)"/>
      <use xlink:href="#ArialMT-54" transform="translate(133.398438 0)"/>
      <use xlink:href="#ArialMT-20" transform="translate(192.732422 0)"/>
      <use xlink:href="#ArialMT-64" transform="translate(220.515625 0)"/>
      <use xlink:href="#ArialMT-65" transform="translate(276.130859 0)"/>
      <use xlink:href="#ArialMT-67" transform="translate(331.746094 0)"/>
      <use xlink:href="#ArialMT-72" transform="translate(387.361328 0)"/>
      <use xlink:href="#ArialMT-61" transform="translate(420.662109 0)"/>
      <use xlink:href="#ArialMT-64" transform="translate(476.277344 0)"/>
      <use xlink:href="#ArialMT-61" transform="translate(531.892578 0)"/>
      <use xlink:href="#ArialMT-74" transform="translate(587.507812 0)"/>
      <use xlink:href="#ArialMT-69" transform="translate(615.291016 0)"/>
      <use xlink:href="#ArialMT-6f" transform="translate(637.507812 0)"/>
      <use xlink:href="#ArialMT-6e" transform="translate(693.123047 0)"/>
      <use xlink:href="#ArialMT-20" transform="translate(748.738281 0)"/>
      <use xlink:href="#ArialMT-28" transform="translate(776.521484 0)"/>
      <use xlink:href="#ArialMT-31" transform="translate(809.822266 0)"/>
      <use xlink:href="#ArialMT-65" transform="translate(865.4375 0)"/>
      <use xlink:href="#ArialMT-2d" transform="translate(921.052734 0)"/>
      <use xlink:href="#ArialMT-37" transform="translate(954.353516 0)"/>
      <use xlink:href="#ArialMT-29" transform="translate(1009.96875 0)"/>
     </g>
    </g>
    <g id="line2d_43">
     <path d="M 40.14625 70.466719 
L 46.14625 70.466719 
L 52.14625 70.466719 
" style="fill: none; stroke-dasharray: 0.6,0.99; stroke-dashoffset: 0; stroke: #000000; stroke-width: 0.6"/>
    </g>
    <g id="text_28">
     <!-- No-FEC threshold (1e-12) -->
     <g transform="translate(56.94625 72.566719) scale(0.06 -0.06)">
      <defs>
       <path id="ArialMT-4e" d="M 488 0 
L 488 4581 
L 1109 4581 
L 3516 984 
L 3516 4581 
L 4097 4581 
L 4097 0 
L 3475 0 
L 1069 3600 
L 1069 0 
L 488 0 
z
" transform="scale(0.015625)"/>
      </defs>
      <use xlink:href="#ArialMT-4e"/>
      <use xlink:href="#ArialMT-6f" transform="translate(72.216797 0)"/>
      <use xlink:href="#ArialMT-2d" transform="translate(127.832031 0)"/>
      <use xlink:href="#ArialMT-46" transform="translate(161.132812 0)"/>
      <use xlink:href="#ArialMT-45" transform="translate(222.216797 0)"/>
      <use xlink:href="#ArialMT-43" transform="translate(288.916016 0)"/>
      <use xlink:href="#ArialMT-20" transform="translate(361.132812 0)"/>
      <use xlink:href="#ArialMT-74" transform="translate(388.916016 0)"/>
      <use xlink:href="#ArialMT-68" transform="translate(416.699219 0)"/>
      <use xlink:href="#ArialMT-72" transform="translate(472.314453 0)"/>
      <use xlink:href="#ArialMT-65" transform="translate(505.615234 0)"/>
      <use xlink:href="#ArialMT-73" transform="translate(561.230469 0)"/>
      <use xlink:href="#ArialMT-68" transform="translate(611.230469 0)"/>
      <use xlink:href="#ArialMT-6f" transform="translate(666.845703 0)"/>
      <use xlink:href="#ArialMT-6c" transform="translate(722.460938 0)"/>
      <use xlink:href="#ArialMT-64" transform="translate(744.677734 0)"/>
      <use xlink:href="#ArialMT-20" transform="translate(800.292969 0)"/>
      <use xlink:href="#ArialMT-28" transform="translate(828.076172 0)"/>
      <use xlink:href="#ArialMT-31" transform="translate(861.376953 0)"/>
      <use xlink:href="#ArialMT-65" transform="translate(916.992188 0)"/>
      <use xlink:href="#ArialMT-2d" transform="translate(972.607422 0)"/>
      <use xlink:href="#ArialMT-31" transform="translate(1005.908203 0)"/>
      <use xlink:href="#ArialMT-32" transform="translate(1061.523438 0)"/>
      <use xlink:href="#ArialMT-29" transform="translate(1117.138672 0)"/>
     </g>
    </g>
   </g>
  </g>
 </g>
 <defs>
  <clipPath id="pc7e8dc363a">
   <rect x="34.74625" y="19.642031" width="286.292805" height="141.54371"/>
  </clipPath>
 </defs>
</svg>
