<?xml version="1.0" encoding="utf-8" standalone="no"?>
<!DOCTYPE svg PUBLIC "-//W3C//DTD SVG 1.1//EN"
  "http://www.w3.org/Graphics/SVG/1.1/DTD/svg11.dtd">
<svg xmlns:xlink="http://www.w3.org/1999/xlink" width="501.214219pt" height="189.167719pt" viewBox="0 0 501.214219 189.167719" xmlns="http://www.w3.org/2000/svg" version="1.1">
 <metadata>
  <rdf:RDF xmlns:dc="http://purl.org/dc/elements/1.1/" xmlns:cc="http://creativecommons.org/ns#" xmlns:rdf="http://www.w3.org/1999/02/22-rdf-syntax-ns#">
   <cc:Work>
    <dc:type rdf:resource="http://purl.org/dc/dcmitype/StillImage"/>
    <dc:date>2026-06-12T05:01:30.993507</dc:date>
    <dc:format>image/svg+xml</dc:format>
    <dc:creator>
     <cc:Agent>
      <dc:title>Matplotlib v3.10.8, https://matplotlib.org/</dc:title>
     </cc:Agent>
    </dc:creator>
   </cc:Work>
  </rdf:RDF>
 </metadata>
 <defs>
  <style type="text/css">*{stroke-linejoin: round; stroke-linecap: butt}</style>
 </defs>
 <g id="figure_1">
  <g id="patch_1">
   <path d="M 0 189.167719 
L 501.214219 189.167719 
L 501.214219 0 
L 0 0 
z
" style="fill: #ffffff"/>
  </g>
  <g id="axes_1">
   <g id="patch_2">
    <path d="M 36.694219 157.5585 
L 246.334219 157.5585 
L 246.334219 42.096 
L 36.694219 42.096 
z
" style="fill: #ffffff"/>
   </g>
   <g id="patch_3">
    <path d="M 46.22331 157.5585 
L 52.576037 157.5585 
L 52.576037 47.594214 
L 46.22331 47.594214 
z
" clip-path="url(#p326d81592d)" style="fill: #d41159; opacity: 0.7; stroke: #ffffff; stroke-width: 0.3; stroke-linejoin: miter"/>
   </g>
   <g id="patch_4">
    <path d="M 52.576037 157.5585 
L 58.928764 157.5585 
L 58.928764 151.020083 
L 52.576037 151.020083 
z
" clip-path="url(#p326d81592d)" style="fill: #d41159; opacity: 0.7; stroke: #ffffff; stroke-width: 0.3; stroke-linejoin: miter"/>
   </g>
   <g id="patch_5">
    <path d="M 58.928764 157.5585 
L 65.281491 157.5585 
L 65.281491 152.208886 
L 58.928764 152.208886 
z
" clip-path="url(#p326d81592d)" style="fill: #d41159; opacity: 0.7; stroke: #ffffff; stroke-width: 0.3; stroke-linejoin: miter"/>
   </g>
   <g id="patch_6">
    <path d="M 65.281491 157.5585 
L 71.634219 157.5585 
L 71.634219 153.397689 
L 65.281491 153.397689 
z
" clip-path="url(#p326d81592d)" style="fill: #d41159; opacity: 0.7; stroke: #ffffff; stroke-width: 0.3; stroke-linejoin: miter"/>
   </g>
   <g id="patch_7">
    <path d="M 71.634219 157.5585 
L 77.986946 157.5585 
L 77.986946 156.369697 
L 71.634219 156.369697 
z
" clip-path="url(#p326d81592d)" style="fill: #d41159; opacity: 0.7; stroke: #ffffff; stroke-width: 0.3; stroke-linejoin: miter"/>
   </g>
   <g id="patch_8">
    <path d="M 77.986946 157.5585 
L 84.339673 157.5585 
L 84.339673 155.775295 
L 77.986946 155.775295 
z
" clip-path="url(#p326d81592d)" style="fill: #d41159; opacity: 0.7; stroke: #ffffff; stroke-width: 0.3; stroke-linejoin: miter"/>
   </g>
   <g id="patch_9">
    <path d="M 84.339673 157.5585 
L 90.692401 157.5585 
L 90.692401 156.369697 
L 84.339673 156.369697 
z
" clip-path="url(#p326d81592d)" style="fill: #d41159; opacity: 0.7; stroke: #ffffff; stroke-width: 0.3; stroke-linejoin: miter"/>
   </g>
   <g id="patch_10">
    <path d="M 90.692401 157.5585 
L 97.045128 157.5585 
L 97.045128 156.964098 
L 90.692401 156.964098 
z
" clip-path="url(#p326d81592d)" style="fill: #d41159; opacity: 0.7; stroke: #ffffff; stroke-width: 0.3; stroke-linejoin: miter"/>
   </g>
   <g id="patch_11">
    <path d="M 97.045128 157.5585 
L 103.397855 157.5585 
L 103.397855 155.180894 
L 97.045128 155.180894 
z
" clip-path="url(#p326d81592d)" style="fill: #d41159; opacity: 0.7; stroke: #ffffff; stroke-width: 0.3; stroke-linejoin: miter"/>
   </g>
   <g id="patch_12">
    <path d="M 103.397855 157.5585 
L 109.750582 157.5585 
L 109.750582 155.180894 
L 103.397855 155.180894 
z
" clip-path="url(#p326d81592d)" style="fill: #d41159; opacity: 0.7; stroke: #ffffff; stroke-width: 0.3; stroke-linejoin: miter"/>
   </g>
   <g id="patch_13">
    <path d="M 109.750582 157.5585 
L 116.10331 157.5585 
L 116.10331 156.369697 
L 109.750582 156.369697 
z
" clip-path="url(#p326d81592d)" style="fill: #d41159; opacity: 0.7; stroke: #ffffff; stroke-width: 0.3; stroke-linejoin: miter"/>
   </g>
   <g id="patch_14">
    <path d="M 116.10331 157.5585 
L 122.456037 157.5585 
L 122.456037 156.369697 
L 116.10331 156.369697 
z
" clip-path="url(#p326d81592d)" style="fill: #d41159; opacity: 0.7; stroke: #ffffff; stroke-width: 0.3; stroke-linejoin: miter"/>
   </g>
   <g id="patch_15">
    <path d="M 122.456037 157.5585 
L 128.808764 157.5585 
L 128.808764 156.369697 
L 122.456037 156.369697 
z
" clip-path="url(#p326d81592d)" style="fill: #d41159; opacity: 0.7; stroke: #ffffff; stroke-width: 0.3; stroke-linejoin: miter"/>
   </g>
   <g id="patch_16">
    <path d="M 128.808764 157.5585 
L 135.161491 157.5585 
L 135.161491 156.964098 
L 128.808764 156.964098 
z
" clip-path="url(#p326d81592d)" style="fill: #d41159; opacity: 0.7; stroke: #ffffff; stroke-width: 0.3; stroke-linejoin: miter"/>
   </g>
   <g id="patch_17">
    <path d="M 135.161491 157.5585 
L 141.514219 157.5585 
L 141.514219 155.775295 
L 135.161491 155.775295 
z
" clip-path="url(#p326d81592d)" style="fill: #d41159; opacity: 0.7; stroke: #ffffff; stroke-width: 0.3; stroke-linejoin: miter"/>
   </g>
   <g id="patch_18">
    <path d="M 141.514219 157.5585 
L 147.866946 157.5585 
L 147.866946 156.964098 
L 141.514219 156.964098 
z
" clip-path="url(#p326d81592d)" style="fill: #d41159; opacity: 0.7; stroke: #ffffff; stroke-width: 0.3; stroke-linejoin: miter"/>
   </g>
   <g id="patch_19">
    <path d="M 147.866946 157.5585 
L 154.219673 157.5585 
L 154.219673 157.5585 
L 147.866946 157.5585 
z
" clip-path="url(#p326d81592d)" style="fill: #d41159; opacity: 0.7; stroke: #ffffff; stroke-width: 0.3; stroke-linejoin: miter"/>
   </g>
   <g id="patch_20">
    <path d="M 154.219673 157.5585 
L 160.572401 157.5585 
L 160.572401 156.964098 
L 154.219673 156.964098 
z
" clip-path="url(#p326d81592d)" style="fill: #d41159; opacity: 0.7; stroke: #ffffff; stroke-width: 0.3; stroke-linejoin: miter"/>
   </g>
   <g id="patch_21">
    <path d="M 160.572401 157.5585 
L 166.925128 157.5585 
L 166.925128 157.5585 
L 160.572401 157.5585 
z
" clip-path="url(#p326d81592d)" style="fill: #d41159; opacity: 0.7; stroke: #ffffff; stroke-width: 0.3; stroke-linejoin: miter"/>
   </g>
   <g id="patch_22">
    <path d="M 166.925128 157.5585 
L 173.277855 157.5585 
L 173.277855 157.5585 
L 166.925128 157.5585 
z
" clip-path="url(#p326d81592d)" style="fill: #d41159; opacity: 0.7; stroke: #ffffff; stroke-width: 0.3; stroke-linejoin: miter"/>
   </g>
   <g id="patch_23">
    <path d="M 173.277855 157.5585 
L 179.630582 157.5585 
L 179.630582 156.369697 
L 173.277855 156.369697 
z
" clip-path="url(#p326d81592d)" style="fill: #d41159; opacity: 0.7; stroke: #ffffff; stroke-width: 0.3; stroke-linejoin: miter"/>
   </g>
   <g id="patch_24">
    <path d="M 179.630582 157.5585 
L 185.98331 157.5585 
L 185.98331 155.775295 
L 179.630582 155.775295 
z
" clip-path="url(#p326d81592d)" style="fill: #d41159; opacity: 0.7; stroke: #ffffff; stroke-width: 0.3; stroke-linejoin: miter"/>
   </g>
   <g id="patch_25">
    <path d="M 185.98331 157.5585 
L 192.336037 157.5585 
L 192.336037 156.964098 
L 185.98331 156.964098 
z
" clip-path="url(#p326d81592d)" style="fill: #d41159; opacity: 0.7; stroke: #ffffff; stroke-width: 0.3; stroke-linejoin: miter"/>
   </g>
   <g id="patch_26">
    <path d="M 192.336037 157.5585 
L 198.688764 157.5585 
L 198.688764 156.964098 
L 192.336037 156.964098 
z
" clip-path="url(#p326d81592d)" style="fill: #d41159; opacity: 0.7; stroke: #ffffff; stroke-width: 0.3; stroke-linejoin: miter"/>
   </g>
   <g id="patch_27">
    <path d="M 198.688764 157.5585 
L 205.041491 157.5585 
L 205.041491 156.369697 
L 198.688764 156.369697 
z
" clip-path="url(#p326d81592d)" style="fill: #d41159; opacity: 0.7; stroke: #ffffff; stroke-width: 0.3; stroke-linejoin: miter"/>
   </g>
   <g id="patch_28">
    <path d="M 205.041491 157.5585 
L 211.394219 157.5585 
L 211.394219 156.964098 
L 205.041491 156.964098 
z
" clip-path="url(#p326d81592d)" style="fill: #d41159; opacity: 0.7; stroke: #ffffff; stroke-width: 0.3; stroke-linejoin: miter"/>
   </g>
   <g id="patch_29">
    <path d="M 211.394219 157.5585 
L 217.746946 157.5585 
L 217.746946 156.964098 
L 211.394219 156.964098 
z
" clip-path="url(#p326d81592d)" style="fill: #d41159; opacity: 0.7; stroke: #ffffff; stroke-width: 0.3; stroke-linejoin: miter"/>
   </g>
   <g id="patch_30">
    <path d="M 217.746946 157.5585 
L 224.099673 157.5585 
L 224.099673 157.5585 
L 217.746946 157.5585 
z
" clip-path="url(#p326d81592d)" style="fill: #d41159; opacity: 0.7; stroke: #ffffff; stroke-width: 0.3; stroke-linejoin: miter"/>
   </g>
   <g id="patch_31">
    <path d="M 224.099673 157.5585 
L 230.452401 157.5585 
L 230.452401 157.5585 
L 224.099673 157.5585 
z
" clip-path="url(#p326d81592d)" style="fill: #d41159; opacity: 0.7; stroke: #ffffff; stroke-width: 0.3; stroke-linejoin: miter"/>
   </g>
   <g id="patch_32">
    <path d="M 230.452401 157.5585 
L 236.805128 157.5585 
L 236.805128 156.964098 
L 230.452401 156.964098 
z
" clip-path="url(#p326d81592d)" style="fill: #d41159; opacity: 0.7; stroke: #ffffff; stroke-width: 0.3; stroke-linejoin: miter"/>
   </g>
   <g id="matplotlib.axis_1">
    <g id="xtick_1">
     <g id="line2d_1">
      <defs>
       <path id="m3f22ccfccd" d="M 0 0 
L 0 3 
" style="stroke: #000000; stroke-width: 0.6"/>
      </defs>
      <g>
       <use xlink:href="#m3f22ccfccd" x="41.475465" y="157.5585" style="stroke: #000000; stroke-width: 0.6"/>
      </g>
     </g>
     <g id="text_1">
      <!-- 0.025 -->
      <g transform="translate(32.717809 169.068969) scale(0.07 -0.07)">
       <defs>
        <path id="ArialMT-30" d="M 266 2259 
Q 266 3072 433 3567 
Q 600 4063 929 4331 
Q 1259 4600 1759 4600 
Q 2128 4600 2406 4451 
Q 2684 4303 2865 4023 
Q 3047 3744 3150 3342 
Q 3253 2941 3253 2259 
Q 3253 1453 3087 958 
Q 2922 463 2592 192 
Q 2263 -78 1759 -78 
Q 1097 -78 719 397 
Q 266 969 266 2259 
z
M 844 2259 
Q 844 1131 1108 757 
Q 1372 384 1759 384 
Q 2147 384 2411 759 
Q 2675 1134 2675 2259 
Q 2675 3391 2411 3762 
Q 2147 4134 1753 4134 
Q 1366 4134 1134 3806 
Q 844 3388 844 2259 
z
" transform="scale(0.015625)"/>
        <path id="ArialMT-2e" d="M 581 0 
L 581 641 
L 1222 641 
L 1222 0 
L 581 0 
z
" transform="scale(0.015625)"/>
        <path id="ArialMT-32" d="M 3222 541 
L 3222 0 
L 194 0 
Q 188 203 259 391 
Q 375 700 629 1000 
Q 884 1300 1366 1694 
Q 2113 2306 2375 2664 
Q 2638 3022 2638 3341 
Q 2638 3675 2398 3904 
Q 2159 4134 1775 4134 
Q 1369 4134 1125 3890 
Q 881 3647 878 3216 
L 300 3275 
Q 359 3922 746 4261 
Q 1134 4600 1788 4600 
Q 2447 4600 2831 4234 
Q 3216 3869 3216 3328 
Q 3216 3053 3103 2787 
Q 2991 2522 2730 2228 
Q 2469 1934 1863 1422 
Q 1356 997 1212 845 
Q 1069 694 975 541 
L 3222 541 
z
" transform="scale(0.015625)"/>
        <path id="ArialMT-35" d="M 266 1200 
L 856 1250 
Q 922 819 1161 601 
Q 1400 384 1738 384 
Q 2144 384 2425 690 
Q 2706 997 2706 1503 
Q 2706 1984 2436 2262 
Q 2166 2541 1728 2541 
Q 1456 2541 1237 2417 
Q 1019 2294 894 2097 
L 366 2166 
L 809 4519 
L 3088 4519 
L 3088 3981 
L 1259 3981 
L 1013 2750 
Q 1425 3038 1878 3038 
Q 2478 3038 2890 2622 
Q 3303 2206 3303 1553 
Q 3303 931 2941 478 
Q 2500 -78 1738 -78 
Q 1113 -78 717 272 
Q 322 622 266 1200 
z
" transform="scale(0.015625)"/>
       </defs>
       <use xlink:href="#ArialMT-30"/>
       <use xlink:href="#ArialMT-2e" transform="translate(55.615234 0)"/>
       <use xlink:href="#ArialMT-30" transform="translate(83.398438 0)"/>
       <use xlink:href="#ArialMT-32" transform="translate(139.013672 0)"/>
       <use xlink:href="#ArialMT-35" transform="translate(194.628906 0)"/>
      </g>
     </g>
    </g>
    <g id="xtick_2">
     <g id="line2d_2">
      <g>
       <use xlink:href="#m3f22ccfccd" x="65.214688" y="157.5585" style="stroke: #000000; stroke-width: 0.6"/>
      </g>
     </g>
     <g id="text_2">
      <!-- 0.050 -->
      <g transform="translate(56.457032 169.068969) scale(0.07 -0.07)">
       <use xlink:href="#ArialMT-30"/>
       <use xlink:href="#ArialMT-2e" transform="translate(55.615234 0)"/>
       <use xlink:href="#ArialMT-30" transform="translate(83.398438 0)"/>
       <use xlink:href="#ArialMT-35" transform="translate(139.013672 0)"/>
       <use xlink:href="#ArialMT-30" transform="translate(194.628906 0)"/>
      </g>
     </g>
    </g>
    <g id="xtick_3">
     <g id="line2d_3">
      <g>
       <use xlink:href="#m3f22ccfccd" x="88.953911" y="157.5585" style="stroke: #000000; stroke-width: 0.6"/>
      </g>
     </g>
     <g id="text_3">
      <!-- 0.075 -->
      <g transform="translate(80.196255 169.068969) scale(0.07 -0.07)">
       <defs>
        <path id="ArialMT-37" d="M 303 3981 
L 303 4522 
L 3269 4522 
L 3269 4084 
Q 2831 3619 2401 2847 
Q 1972 2075 1738 1259 
Q 1569 684 1522 0 
L 944 0 
Q 953 541 1156 1306 
Q 1359 2072 1739 2783 
Q 2119 3494 2547 3981 
L 303 3981 
z
" transform="scale(0.015625)"/>
       </defs>
       <use xlink:href="#ArialMT-30"/>
       <use xlink:href="#ArialMT-2e" transform="translate(55.615234 0)"/>
       <use xlink:href="#ArialMT-30" transform="translate(83.398438 0)"/>
       <use xlink:href="#ArialMT-37" transform="translate(139.013672 0)"/>
       <use xlink:href="#ArialMT-35" transform="translate(194.628906 0)"/>
      </g>
     </g>
    </g>
    <g id="xtick_4">
     <g id="line2d_4">
      <g>
       <use xlink:href="#m3f22ccfccd" x="112.693135" y="157.5585" style="stroke: #000000; stroke-width: 0.6"/>
      </g>
     </g>
     <g id="text_4">
      <!-- 0.100 -->
      <g transform="translate(103.935478 169.068969) scale(0.07 -0.07)">
       <defs>
        <path id="ArialMT-31" d="M 2384 0 
L 1822 0 
L 1822 3584 
Q 1619 3391 1289 3197 
Q 959 3003 697 2906 
L 697 3450 
Q 1169 3672 1522 3987 
Q 1875 4303 2022 4600 
L 2384 4600 
L 2384 0 
z
" transform="scale(0.015625)"/>
       </defs>
       <use xlink:href="#ArialMT-30"/>
       <use xlink:href="#ArialMT-2e" transform="translate(55.615234 0)"/>
       <use xlink:href="#ArialMT-31" transform="translate(83.398438 0)"/>
       <use xlink:href="#ArialMT-30" transform="translate(139.013672 0)"/>
       <use xlink:href="#ArialMT-30" transform="translate(194.628906 0)"/>
      </g>
     </g>
    </g>
    <g id="xtick_5">
     <g id="line2d_5">
      <g>
       <use xlink:href="#m3f22ccfccd" x="136.432358" y="157.5585" style="stroke: #000000; stroke-width: 0.6"/>
      </g>
     </g>
     <g id="text_5">
      <!-- 0.125 -->
      <g transform="translate(127.674702 169.068969) scale(0.07 -0.07)">
       <use xlink:href="#ArialMT-30"/>
       <use xlink:href="#ArialMT-2e" transform="translate(55.615234 0)"/>
       <use xlink:href="#ArialMT-31" transform="translate(83.398438 0)"/>
       <use xlink:href="#ArialMT-32" transform="translate(139.013672 0)"/>
       <use xlink:href="#ArialMT-35" transform="translate(194.628906 0)"/>
      </g>
     </g>
    </g>
    <g id="xtick_6">
     <g id="line2d_6">
      <g>
       <use xlink:href="#m3f22ccfccd" x="160.171581" y="157.5585" style="stroke: #000000; stroke-width: 0.6"/>
      </g>
     </g>
     <g id="text_6">
      <!-- 0.150 -->
      <g transform="translate(151.413925 169.068969) scale(0.07 -0.07)">
       <use xlink:href="#ArialMT-30"/>
       <use xlink:href="#ArialMT-2e" transform="translate(55.615234 0)"/>
       <use xlink:href="#ArialMT-31" transform="translate(83.398438 0)"/>
       <use xlink:href="#ArialMT-35" transform="translate(139.013672 0)"/>
       <use xlink:href="#ArialMT-30" transform="translate(194.628906 0)"/>
      </g>
     </g>
    </g>
    <g id="xtick_7">
     <g id="line2d_7">
      <g>
       <use xlink:href="#m3f22ccfccd" x="183.910804" y="157.5585" style="stroke: #000000; stroke-width: 0.6"/>
      </g>
     </g>
     <g id="text_7">
      <!-- 0.175 -->
      <g transform="translate(175.153148 169.068969) scale(0.07 -0.07)">
       <use xlink:href="#ArialMT-30"/>
       <use xlink:href="#ArialMT-2e" transform="translate(55.615234 0)"/>
       <use xlink:href="#ArialMT-31" transform="translate(83.398438 0)"/>
       <use xlink:href="#ArialMT-37" transform="translate(139.013672 0)"/>
       <use xlink:href="#ArialMT-35" transform="translate(194.628906 0)"/>
      </g>
     </g>
    </g>
    <g id="xtick_8">
     <g id="line2d_8">
      <g>
       <use xlink:href="#m3f22ccfccd" x="207.650028" y="157.5585" style="stroke: #000000; stroke-width: 0.6"/>
      </g>
     </g>
     <g id="text_8">
      <!-- 0.200 -->
      <g transform="translate(198.892371 169.068969) scale(0.07 -0.07)">
       <use xlink:href="#ArialMT-30"/>
       <use xlink:href="#ArialMT-2e" transform="translate(55.615234 0)"/>
       <use xlink:href="#ArialMT-32" transform="translate(83.398438 0)"/>
       <use xlink:href="#ArialMT-30" transform="translate(139.013672 0)"/>
       <use xlink:href="#ArialMT-30" transform="translate(194.628906 0)"/>
      </g>
     </g>
    </g>
    <g id="xtick_9">
     <g id="line2d_9">
      <g>
       <use xlink:href="#m3f22ccfccd" x="231.389251" y="157.5585" style="stroke: #000000; stroke-width: 0.6"/>
      </g>
     </g>
     <g id="text_9">
      <!-- 0.225 -->
      <g transform="translate(222.631595 169.068969) scale(0.07 -0.07)">
       <use xlink:href="#ArialMT-30"/>
       <use xlink:href="#ArialMT-2e" transform="translate(55.615234 0)"/>
       <use xlink:href="#ArialMT-32" transform="translate(83.398438 0)"/>
       <use xlink:href="#ArialMT-32" transform="translate(139.013672 0)"/>
       <use xlink:href="#ArialMT-35" transform="translate(194.628906 0)"/>
      </g>
     </g>
    </g>
    <g id="text_10">
     <!-- Gain degradation (dB) -->
     <g transform="translate(102.159844 180.283969) scale(0.08 -0.08)">
      <defs>
       <path id="ArialMT-47" d="M 2638 1797 
L 2638 2334 
L 4578 2338 
L 4578 638 
Q 4131 281 3656 101 
Q 3181 -78 2681 -78 
Q 2006 -78 1454 211 
Q 903 500 622 1047 
Q 341 1594 341 2269 
Q 341 2938 620 3517 
Q 900 4097 1425 4378 
Q 1950 4659 2634 4659 
Q 3131 4659 3532 4498 
Q 3934 4338 4162 4050 
Q 4391 3763 4509 3300 
L 3963 3150 
Q 3859 3500 3706 3700 
Q 3553 3900 3268 4020 
Q 2984 4141 2638 4141 
Q 2222 4141 1919 4014 
Q 1616 3888 1430 3681 
Q 1244 3475 1141 3228 
Q 966 2803 966 2306 
Q 966 1694 1177 1281 
Q 1388 869 1791 669 
Q 2194 469 2647 469 
Q 3041 469 3416 620 
Q 3791 772 3984 944 
L 3984 1797 
L 2638 1797 
z
" transform="scale(0.015625)"/>
       <path id="ArialMT-61" d="M 2588 409 
Q 2275 144 1986 34 
Q 1697 -75 1366 -75 
Q 819 -75 525 192 
Q 231 459 231 875 
Q 231 1119 342 1320 
Q 453 1522 633 1644 
Q 813 1766 1038 1828 
Q 1203 1872 1538 1913 
Q 2219 1994 2541 2106 
Q 2544 2222 2544 2253 
Q 2544 2597 2384 2738 
Q 2169 2928 1744 2928 
Q 1347 2928 1158 2789 
Q 969 2650 878 2297 
L 328 2372 
Q 403 2725 575 2942 
Q 747 3159 1072 3276 
Q 1397 3394 1825 3394 
Q 2250 3394 2515 3294 
Q 2781 3194 2906 3042 
Q 3031 2891 3081 2659 
Q 3109 2516 3109 2141 
L 3109 1391 
Q 3109 606 3145 398 
Q 3181 191 3288 0 
L 2700 0 
Q 2613 175 2588 409 
z
M 2541 1666 
Q 2234 1541 1622 1453 
Q 1275 1403 1131 1340 
Q 988 1278 909 1158 
Q 831 1038 831 891 
Q 831 666 1001 516 
Q 1172 366 1500 366 
Q 1825 366 2078 508 
Q 2331 650 2450 897 
Q 2541 1088 2541 1459 
L 2541 1666 
z
" transform="scale(0.015625)"/>
       <path id="ArialMT-69" d="M 425 3934 
L 425 4581 
L 988 4581 
L 988 3934 
L 425 3934 
z
M 425 0 
L 425 3319 
L 988 3319 
L 988 0 
L 425 0 
z
" transform="scale(0.015625)"/>
       <path id="ArialMT-6e" d="M 422 0 
L 422 3319 
L 928 3319 
L 928 2847 
Q 1294 3394 1984 3394 
Q 2284 3394 2536 3286 
Q 2788 3178 2913 3003 
Q 3038 2828 3088 2588 
Q 3119 2431 3119 2041 
L 3119 0 
L 2556 0 
L 2556 2019 
Q 2556 2363 2490 2533 
Q 2425 2703 2258 2804 
Q 2091 2906 1866 2906 
Q 1506 2906 1245 2678 
Q 984 2450 984 1813 
L 984 0 
L 422 0 
z
" transform="scale(0.015625)"/>
       <path id="ArialMT-20" transform="scale(0.015625)"/>
       <path id="ArialMT-64" d="M 2575 0 
L 2575 419 
Q 2259 -75 1647 -75 
Q 1250 -75 917 144 
Q 584 363 401 755 
Q 219 1147 219 1656 
Q 219 2153 384 2558 
Q 550 2963 881 3178 
Q 1213 3394 1622 3394 
Q 1922 3394 2156 3267 
Q 2391 3141 2538 2938 
L 2538 4581 
L 3097 4581 
L 3097 0 
L 2575 0 
z
M 797 1656 
Q 797 1019 1065 703 
Q 1334 388 1700 388 
Q 2069 388 2326 689 
Q 2584 991 2584 1609 
Q 2584 2291 2321 2609 
Q 2059 2928 1675 2928 
Q 1300 2928 1048 2622 
Q 797 2316 797 1656 
z
" transform="scale(0.015625)"/>
       <path id="ArialMT-65" d="M 2694 1069 
L 3275 997 
Q 3138 488 2766 206 
Q 2394 -75 1816 -75 
Q 1088 -75 661 373 
Q 234 822 234 1631 
Q 234 2469 665 2931 
Q 1097 3394 1784 3394 
Q 2450 3394 2872 2941 
Q 3294 2488 3294 1666 
Q 3294 1616 3291 1516 
L 816 1516 
Q 847 969 1125 678 
Q 1403 388 1819 388 
Q 2128 388 2347 550 
Q 2566 713 2694 1069 
z
M 847 1978 
L 2700 1978 
Q 2663 2397 2488 2606 
Q 2219 2931 1791 2931 
Q 1403 2931 1139 2672 
Q 875 2413 847 1978 
z
" transform="scale(0.015625)"/>
       <path id="ArialMT-67" d="M 319 -275 
L 866 -356 
Q 900 -609 1056 -725 
Q 1266 -881 1628 -881 
Q 2019 -881 2231 -725 
Q 2444 -569 2519 -288 
Q 2563 -116 2559 434 
Q 2191 0 1641 0 
Q 956 0 581 494 
Q 206 988 206 1678 
Q 206 2153 378 2554 
Q 550 2956 876 3175 
Q 1203 3394 1644 3394 
Q 2231 3394 2613 2919 
L 2613 3319 
L 3131 3319 
L 3131 450 
Q 3131 -325 2973 -648 
Q 2816 -972 2473 -1159 
Q 2131 -1347 1631 -1347 
Q 1038 -1347 672 -1080 
Q 306 -813 319 -275 
z
M 784 1719 
Q 784 1066 1043 766 
Q 1303 466 1694 466 
Q 2081 466 2343 764 
Q 2606 1063 2606 1700 
Q 2606 2309 2336 2618 
Q 2066 2928 1684 2928 
Q 1309 2928 1046 2623 
Q 784 2319 784 1719 
z
" transform="scale(0.015625)"/>
       <path id="ArialMT-72" d="M 416 0 
L 416 3319 
L 922 3319 
L 922 2816 
Q 1116 3169 1280 3281 
Q 1444 3394 1641 3394 
Q 1925 3394 2219 3213 
L 2025 2691 
Q 1819 2813 1613 2813 
Q 1428 2813 1281 2702 
Q 1134 2591 1072 2394 
Q 978 2094 978 1738 
L 978 0 
L 416 0 
z
" transform="scale(0.015625)"/>
       <path id="ArialMT-74" d="M 1650 503 
L 1731 6 
Q 1494 -44 1306 -44 
Q 1000 -44 831 53 
Q 663 150 594 308 
Q 525 466 525 972 
L 525 2881 
L 113 2881 
L 113 3319 
L 525 3319 
L 525 4141 
L 1084 4478 
L 1084 3319 
L 1650 3319 
L 1650 2881 
L 1084 2881 
L 1084 941 
Q 1084 700 1114 631 
Q 1144 563 1211 522 
Q 1278 481 1403 481 
Q 1497 481 1650 503 
z
" transform="scale(0.015625)"/>
       <path id="ArialMT-6f" d="M 213 1659 
Q 213 2581 725 3025 
Q 1153 3394 1769 3394 
Q 2453 3394 2887 2945 
Q 3322 2497 3322 1706 
Q 3322 1066 3130 698 
Q 2938 331 2570 128 
Q 2203 -75 1769 -75 
Q 1072 -75 642 372 
Q 213 819 213 1659 
z
M 791 1659 
Q 791 1022 1069 705 
Q 1347 388 1769 388 
Q 2188 388 2466 706 
Q 2744 1025 2744 1678 
Q 2744 2294 2464 2611 
Q 2184 2928 1769 2928 
Q 1347 2928 1069 2612 
Q 791 2297 791 1659 
z
" transform="scale(0.015625)"/>
       <path id="ArialMT-28" d="M 1497 -1347 
Q 1031 -759 709 28 
Q 388 816 388 1659 
Q 388 2403 628 3084 
Q 909 3875 1497 4659 
L 1900 4659 
Q 1522 4009 1400 3731 
Q 1209 3300 1100 2831 
Q 966 2247 966 1656 
Q 966 153 1900 -1347 
L 1497 -1347 
z
" transform="scale(0.015625)"/>
       <path id="ArialMT-42" d="M 469 0 
L 469 4581 
L 2188 4581 
Q 2713 4581 3030 4442 
Q 3347 4303 3526 4014 
Q 3706 3725 3706 3409 
Q 3706 3116 3547 2856 
Q 3388 2597 3066 2438 
Q 3481 2316 3704 2022 
Q 3928 1728 3928 1328 
Q 3928 1006 3792 729 
Q 3656 453 3456 303 
Q 3256 153 2954 76 
Q 2653 0 2216 0 
L 469 0 
z
M 1075 2656 
L 2066 2656 
Q 2469 2656 2644 2709 
Q 2875 2778 2992 2937 
Q 3109 3097 3109 3338 
Q 3109 3566 3000 3739 
Q 2891 3913 2687 3977 
Q 2484 4041 1991 4041 
L 1075 4041 
L 1075 2656 
z
M 1075 541 
L 2216 541 
Q 2509 541 2628 563 
Q 2838 600 2978 687 
Q 3119 775 3209 942 
Q 3300 1109 3300 1328 
Q 3300 1584 3169 1773 
Q 3038 1963 2805 2039 
Q 2572 2116 2134 2116 
L 1075 2116 
L 1075 541 
z
" transform="scale(0.015625)"/>
       <path id="ArialMT-29" d="M 791 -1347 
L 388 -1347 
Q 1322 153 1322 1656 
Q 1322 2244 1188 2822 
Q 1081 3291 891 3722 
Q 769 4003 388 4659 
L 791 4659 
Q 1378 3875 1659 3084 
Q 1900 2403 1900 1659 
Q 1900 816 1576 28 
Q 1253 -759 791 -1347 
z
" transform="scale(0.015625)"/>
      </defs>
      <use xlink:href="#ArialMT-47"/>
      <use xlink:href="#ArialMT-61" transform="translate(77.783203 0)"/>
      <use xlink:href="#ArialMT-69" transform="translate(133.398438 0)"/>
      <use xlink:href="#ArialMT-6e" transform="translate(155.615234 0)"/>
      <use xlink:href="#ArialMT-20" transform="translate(211.230469 0)"/>
      <use xlink:href="#ArialMT-64" transform="translate(239.013672 0)"/>
      <use xlink:href="#ArialMT-65" transform="translate(294.628906 0)"/>
      <use xlink:href="#ArialMT-67" transform="translate(350.244141 0)"/>
      <use xlink:href="#ArialMT-72" transform="translate(405.859375 0)"/>
      <use xlink:href="#ArialMT-61" transform="translate(439.160156 0)"/>
      <use xlink:href="#ArialMT-64" transform="translate(494.775391 0)"/>
      <use xlink:href="#ArialMT-61" transform="translate(550.390625 0)"/>
      <use xlink:href="#ArialMT-74" transform="translate(606.005859 0)"/>
      <use xlink:href="#ArialMT-69" transform="translate(633.789062 0)"/>
      <use xlink:href="#ArialMT-6f" transform="translate(656.005859 0)"/>
      <use xlink:href="#ArialMT-6e" transform="translate(711.621094 0)"/>
      <use xlink:href="#ArialMT-20" transform="translate(767.236328 0)"/>
      <use xlink:href="#ArialMT-28" transform="translate(795.019531 0)"/>
      <use xlink:href="#ArialMT-64" transform="translate(828.320312 0)"/>
      <use xlink:href="#ArialMT-42" transform="translate(883.935547 0)"/>
      <use xlink:href="#ArialMT-29" transform="translate(950.634766 0)"/>
     </g>
    </g>
   </g>
   <g id="matplotlib.axis_2">
    <g id="ytick_1">
     <g id="line2d_10">
      <defs>
       <path id="m6bd257b00d" d="M 0 0 
L -3 0 
" style="stroke: #000000; stroke-width: 0.6"/>
      </defs>
      <g>
       <use xlink:href="#m6bd257b00d" x="36.694219" y="157.5585" style="stroke: #000000; stroke-width: 0.6"/>
      </g>
     </g>
     <g id="text_11">
      <!-- 0 -->
      <g transform="translate(26.301563 160.063734) scale(0.07 -0.07)">
       <use xlink:href="#ArialMT-30"/>
      </g>
     </g>
    </g>
    <g id="ytick_2">
     <g id="line2d_11">
      <g>
       <use xlink:href="#m6bd257b00d" x="36.694219" y="142.698461" style="stroke: #000000; stroke-width: 0.6"/>
      </g>
     </g>
     <g id="text_12">
      <!-- 25 -->
      <g transform="translate(22.408906 145.203696) scale(0.07 -0.07)">
       <use xlink:href="#ArialMT-32"/>
       <use xlink:href="#ArialMT-35" transform="translate(55.615234 0)"/>
      </g>
     </g>
    </g>
    <g id="ytick_3">
     <g id="line2d_12">
      <g>
       <use xlink:href="#m6bd257b00d" x="36.694219" y="127.838423" style="stroke: #000000; stroke-width: 0.6"/>
      </g>
     </g>
     <g id="text_13">
      <!-- 50 -->
      <g transform="translate(22.408906 130.343657) scale(0.07 -0.07)">
       <use xlink:href="#ArialMT-35"/>
       <use xlink:href="#ArialMT-30" transform="translate(55.615234 0)"/>
      </g>
     </g>
    </g>
    <g id="ytick_4">
     <g id="line2d_13">
      <g>
       <use xlink:href="#m6bd257b00d" x="36.694219" y="112.978384" style="stroke: #000000; stroke-width: 0.6"/>
      </g>
     </g>
     <g id="text_14">
      <!-- 75 -->
      <g transform="translate(22.408906 115.483619) scale(0.07 -0.07)">
       <use xlink:href="#ArialMT-37"/>
       <use xlink:href="#ArialMT-35" transform="translate(55.615234 0)"/>
      </g>
     </g>
    </g>
    <g id="ytick_5">
     <g id="line2d_14">
      <g>
       <use xlink:href="#m6bd257b00d" x="36.694219" y="98.118346" style="stroke: #000000; stroke-width: 0.6"/>
      </g>
     </g>
     <g id="text_15">
      <!-- 100 -->
      <g transform="translate(18.51625 100.62358) scale(0.07 -0.07)">
       <use xlink:href="#ArialMT-31"/>
       <use xlink:href="#ArialMT-30" transform="translate(55.615234 0)"/>
       <use xlink:href="#ArialMT-30" transform="translate(111.230469 0)"/>
      </g>
     </g>
    </g>
    <g id="ytick_6">
     <g id="line2d_15">
      <g>
       <use xlink:href="#m6bd257b00d" x="36.694219" y="83.258307" style="stroke: #000000; stroke-width: 0.6"/>
      </g>
     </g>
     <g id="text_16">
      <!-- 125 -->
      <g transform="translate(18.51625 85.763541) scale(0.07 -0.07)">
       <use xlink:href="#ArialMT-31"/>
       <use xlink:href="#ArialMT-32" transform="translate(55.615234 0)"/>
       <use xlink:href="#ArialMT-35" transform="translate(111.230469 0)"/>
      </g>
     </g>
    </g>
    <g id="ytick_7">
     <g id="line2d_16">
      <g>
       <use xlink:href="#m6bd257b00d" x="36.694219" y="68.398268" style="stroke: #000000; stroke-width: 0.6"/>
      </g>
     </g>
     <g id="text_17">
      <!-- 150 -->
      <g transform="translate(18.51625 70.903503) scale(0.07 -0.07)">
       <use xlink:href="#ArialMT-31"/>
       <use xlink:href="#ArialMT-35" transform="translate(55.615234 0)"/>
       <use xlink:href="#ArialMT-30" transform="translate(111.230469 0)"/>
      </g>
     </g>
    </g>
    <g id="ytick_8">
     <g id="line2d_17">
      <g>
       <use xlink:href="#m6bd257b00d" x="36.694219" y="53.53823" style="stroke: #000000; stroke-width: 0.6"/>
      </g>
     </g>
     <g id="text_18">
      <!-- 175 -->
      <g transform="translate(18.51625 56.043464) scale(0.07 -0.07)">
       <use xlink:href="#ArialMT-31"/>
       <use xlink:href="#ArialMT-37" transform="translate(55.615234 0)"/>
       <use xlink:href="#ArialMT-35" transform="translate(111.230469 0)"/>
      </g>
     </g>
    </g>
    <g id="text_19">
     <!-- Link count -->
     <g transform="translate(12.92625 118.060375) rotate(-90) scale(0.08 -0.08)">
      <defs>
       <path id="ArialMT-4c" d="M 469 0 
L 469 4581 
L 1075 4581 
L 1075 541 
L 3331 541 
L 3331 0 
L 469 0 
z
" transform="scale(0.015625)"/>
       <path id="ArialMT-6b" d="M 425 0 
L 425 4581 
L 988 4581 
L 988 1969 
L 2319 3319 
L 3047 3319 
L 1778 2088 
L 3175 0 
L 2481 0 
L 1384 1697 
L 988 1316 
L 988 0 
L 425 0 
z
" transform="scale(0.015625)"/>
       <path id="ArialMT-63" d="M 2588 1216 
L 3141 1144 
Q 3050 572 2676 248 
Q 2303 -75 1759 -75 
Q 1078 -75 664 370 
Q 250 816 250 1647 
Q 250 2184 428 2587 
Q 606 2991 970 3192 
Q 1334 3394 1763 3394 
Q 2303 3394 2647 3120 
Q 2991 2847 3088 2344 
L 2541 2259 
Q 2463 2594 2264 2762 
Q 2066 2931 1784 2931 
Q 1359 2931 1093 2626 
Q 828 2322 828 1663 
Q 828 994 1084 691 
Q 1341 388 1753 388 
Q 2084 388 2306 591 
Q 2528 794 2588 1216 
z
" transform="scale(0.015625)"/>
       <path id="ArialMT-75" d="M 2597 0 
L 2597 488 
Q 2209 -75 1544 -75 
Q 1250 -75 995 37 
Q 741 150 617 320 
Q 494 491 444 738 
Q 409 903 409 1263 
L 409 3319 
L 972 3319 
L 972 1478 
Q 972 1038 1006 884 
Q 1059 663 1231 536 
Q 1403 409 1656 409 
Q 1909 409 2131 539 
Q 2353 669 2445 892 
Q 2538 1116 2538 1541 
L 2538 3319 
L 3100 3319 
L 3100 0 
L 2597 0 
z
" transform="scale(0.015625)"/>
      </defs>
      <use xlink:href="#ArialMT-4c"/>
      <use xlink:href="#ArialMT-69" transform="translate(55.615234 0)"/>
      <use xlink:href="#ArialMT-6e" transform="translate(77.832031 0)"/>
      <use xlink:href="#ArialMT-6b" transform="translate(133.447266 0)"/>
      <use xlink:href="#ArialMT-20" transform="translate(183.447266 0)"/>
      <use xlink:href="#ArialMT-63" transform="translate(211.230469 0)"/>
      <use xlink:href="#ArialMT-6f" transform="translate(261.230469 0)"/>
      <use xlink:href="#ArialMT-75" transform="translate(316.845703 0)"/>
      <use xlink:href="#ArialMT-6e" transform="translate(372.460938 0)"/>
      <use xlink:href="#ArialMT-74" transform="translate(428.076172 0)"/>
     </g>
    </g>
   </g>
   <g id="line2d_18">
    <path d="M 62.105994 157.5585 
L 62.105994 42.096 
" clip-path="url(#p326d81592d)" style="fill: none; stroke-dasharray: 2.22,0.96; stroke-dashoffset: 0; stroke: #000000; stroke-width: 0.6"/>
   </g>
   <g id="patch_33">
    <path d="M 36.694219 157.5585 
L 36.694219 42.096 
" style="fill: none; stroke: #000000; stroke-width: 0.8; stroke-linejoin: miter; stroke-linecap: square"/>
   </g>
   <g id="patch_34">
    <path d="M 36.694219 157.5585 
L 246.334219 157.5585 
" style="fill: none; stroke: #000000; stroke-width: 0.8; stroke-linejoin: miter; stroke-linecap: square"/>
   </g>
   <g id="text_20">
    <!-- a  EDFA gain loss -->
    <g transform="translate(105.995156 36.096) scale(0.09 -0.09)">
     <defs>
      <path id="ArialMT-45" d="M 506 0 
L 506 4581 
L 3819 4581 
L 3819 4041 
L 1113 4041 
L 1113 2638 
L 3647 2638 
L 3647 2100 
L 1113 2100 
L 1113 541 
L 3925 541 
L 3925 0 
L 506 0 
z
" transform="scale(0.015625)"/>
      <path id="ArialMT-44" d="M 494 0 
L 494 4581 
L 2072 4581 
Q 2606 4581 2888 4516 
Q 3281 4425 3559 4188 
Q 3922 3881 4101 3404 
Q 4281 2928 4281 2316 
Q 4281 1794 4159 1391 
Q 4038 988 3847 723 
Q 3656 459 3429 307 
Q 3203 156 2883 78 
Q 2563 0 2147 0 
L 494 0 
z
M 1100 541 
L 2078 541 
Q 2531 541 2789 625 
Q 3047 709 3200 863 
Q 3416 1078 3536 1442 
Q 3656 1806 3656 2325 
Q 3656 3044 3420 3430 
Q 3184 3816 2847 3947 
Q 2603 4041 2063 4041 
L 1100 4041 
L 1100 541 
z
" transform="scale(0.015625)"/>
      <path id="ArialMT-46" d="M 525 0 
L 525 4581 
L 3616 4581 
L 3616 4041 
L 1131 4041 
L 1131 2622 
L 3281 2622 
L 3281 2081 
L 1131 2081 
L 1131 0 
L 525 0 
z
" transform="scale(0.015625)"/>
      <path id="ArialMT-41" d="M -9 0 
L 1750 4581 
L 2403 4581 
L 4278 0 
L 3588 0 
L 3053 1388 
L 1138 1388 
L 634 0 
L -9 0 
z
M 1313 1881 
L 2866 1881 
L 2388 3150 
Q 2169 3728 2063 4100 
Q 1975 3659 1816 3225 
L 1313 1881 
z
" transform="scale(0.015625)"/>
      <path id="ArialMT-6c" d="M 409 0 
L 409 4581 
L 972 4581 
L 972 0 
L 409 0 
z
" transform="scale(0.015625)"/>
      <path id="ArialMT-73" d="M 197 991 
L 753 1078 
Q 800 744 1014 566 
Q 1228 388 1613 388 
Q 2000 388 2187 545 
Q 2375 703 2375 916 
Q 2375 1106 2209 1216 
Q 2094 1291 1634 1406 
Q 1016 1563 777 1677 
Q 538 1791 414 1992 
Q 291 2194 291 2438 
Q 291 2659 392 2848 
Q 494 3038 669 3163 
Q 800 3259 1026 3326 
Q 1253 3394 1513 3394 
Q 1903 3394 2198 3281 
Q 2494 3169 2634 2976 
Q 2775 2784 2828 2463 
L 2278 2388 
Q 2241 2644 2061 2787 
Q 1881 2931 1553 2931 
Q 1166 2931 1000 2803 
Q 834 2675 834 2503 
Q 834 2394 903 2306 
Q 972 2216 1119 2156 
Q 1203 2125 1616 2013 
Q 2213 1853 2448 1751 
Q 2684 1650 2818 1456 
Q 2953 1263 2953 975 
Q 2953 694 2789 445 
Q 2625 197 2315 61 
Q 2006 -75 1616 -75 
Q 969 -75 630 194 
Q 291 463 197 991 
z
" transform="scale(0.015625)"/>
     </defs>
     <use xlink:href="#ArialMT-61"/>
     <use xlink:href="#ArialMT-20" transform="translate(55.615234 0)"/>
     <use xlink:href="#ArialMT-20" transform="translate(83.398438 0)"/>
     <use xlink:href="#ArialMT-45" transform="translate(111.181641 0)"/>
     <use xlink:href="#ArialMT-44" transform="translate(177.880859 0)"/>
     <use xlink:href="#ArialMT-46" transform="translate(250.097656 0)"/>
     <use xlink:href="#ArialMT-41" transform="translate(305.681641 0)"/>
     <use xlink:href="#ArialMT-20" transform="translate(366.880859 0)"/>
     <use xlink:href="#ArialMT-67" transform="translate(394.664062 0)"/>
     <use xlink:href="#ArialMT-61" transform="translate(450.279297 0)"/>
     <use xlink:href="#ArialMT-69" transform="translate(505.894531 0)"/>
     <use xlink:href="#ArialMT-6e" transform="translate(528.111328 0)"/>
     <use xlink:href="#ArialMT-20" transform="translate(583.726562 0)"/>
     <use xlink:href="#ArialMT-6c" transform="translate(611.509766 0)"/>
     <use xlink:href="#ArialMT-6f" transform="translate(633.726562 0)"/>
     <use xlink:href="#ArialMT-73" transform="translate(689.341797 0)"/>
     <use xlink:href="#ArialMT-73" transform="translate(739.341797 0)"/>
    </g>
   </g>
  </g>
  <g id="axes_2">
   <g id="patch_35">
    <path d="M 284.374219 157.5585 
L 494.014219 157.5585 
L 494.014219 42.096 
L 284.374219 42.096 
z
" style="fill: #ffffff"/>
   </g>
   <g id="patch_36">
    <path d="M 293.90331 157.5585 
L 300.256037 157.5585 
L 300.256037 47.594214 
L 293.90331 47.594214 
z
" clip-path="url(#pacb178170f)" style="fill: #e69f00; opacity: 0.7; stroke: #ffffff; stroke-width: 0.3; stroke-linejoin: miter"/>
   </g>
   <g id="patch_37">
    <path d="M 300.256037 157.5585 
L 306.608764 157.5585 
L 306.608764 151.020083 
L 300.256037 151.020083 
z
" clip-path="url(#pacb178170f)" style="fill: #e69f00; opacity: 0.7; stroke: #ffffff; stroke-width: 0.3; stroke-linejoin: miter"/>
   </g>
   <g id="patch_38">
    <path d="M 306.608764 157.5585 
L 312.961491 157.5585 
L 312.961491 152.208886 
L 306.608764 152.208886 
z
" clip-path="url(#pacb178170f)" style="fill: #e69f00; opacity: 0.7; stroke: #ffffff; stroke-width: 0.3; stroke-linejoin: miter"/>
   </g>
   <g id="patch_39">
    <path d="M 312.961491 157.5585 
L 319.314219 157.5585 
L 319.314219 153.397689 
L 312.961491 153.397689 
z
" clip-path="url(#pacb178170f)" style="fill: #e69f00; opacity: 0.7; stroke: #ffffff; stroke-width: 0.3; stroke-linejoin: miter"/>
   </g>
   <g id="patch_40">
    <path d="M 319.314219 157.5585 
L 325.666946 157.5585 
L 325.666946 156.369697 
L 319.314219 156.369697 
z
" clip-path="url(#pacb178170f)" style="fill: #e69f00; opacity: 0.7; stroke: #ffffff; stroke-width: 0.3; stroke-linejoin: miter"/>
   </g>
   <g id="patch_41">
    <path d="M 325.666946 157.5585 
L 332.019673 157.5585 
L 332.019673 155.775295 
L 325.666946 155.775295 
z
" clip-path="url(#pacb178170f)" style="fill: #e69f00; opacity: 0.7; stroke: #ffffff; stroke-width: 0.3; stroke-linejoin: miter"/>
   </g>
   <g id="patch_42">
    <path d="M 332.019673 157.5585 
L 338.372401 157.5585 
L 338.372401 156.369697 
L 332.019673 156.369697 
z
" clip-path="url(#pacb178170f)" style="fill: #e69f00; opacity: 0.7; stroke: #ffffff; stroke-width: 0.3; stroke-linejoin: miter"/>
   </g>
   <g id="patch_43">
    <path d="M 338.372401 157.5585 
L 344.725128 157.5585 
L 344.725128 156.964098 
L 338.372401 156.964098 
z
" clip-path="url(#pacb178170f)" style="fill: #e69f00; opacity: 0.7; stroke: #ffffff; stroke-width: 0.3; stroke-linejoin: miter"/>
   </g>
   <g id="patch_44">
    <path d="M 344.725128 157.5585 
L 351.077855 157.5585 
L 351.077855 155.180894 
L 344.725128 155.180894 
z
" clip-path="url(#pacb178170f)" style="fill: #e69f00; opacity: 0.7; stroke: #ffffff; stroke-width: 0.3; stroke-linejoin: miter"/>
   </g>
   <g id="patch_45">
    <path d="M 351.077855 157.5585 
L 357.430582 157.5585 
L 357.430582 155.180894 
L 351.077855 155.180894 
z
" clip-path="url(#pacb178170f)" style="fill: #e69f00; opacity: 0.7; stroke: #ffffff; stroke-width: 0.3; stroke-linejoin: miter"/>
   </g>
   <g id="patch_46">
    <path d="M 357.430582 157.5585 
L 363.78331 157.5585 
L 363.78331 156.369697 
L 357.430582 156.369697 
z
" clip-path="url(#pacb178170f)" style="fill: #e69f00; opacity: 0.7; stroke: #ffffff; stroke-width: 0.3; stroke-linejoin: miter"/>
   </g>
   <g id="patch_47">
    <path d="M 363.78331 157.5585 
L 370.136037 157.5585 
L 370.136037 156.369697 
L 363.78331 156.369697 
z
" clip-path="url(#pacb178170f)" style="fill: #e69f00; opacity: 0.7; stroke: #ffffff; stroke-width: 0.3; stroke-linejoin: miter"/>
   </g>
   <g id="patch_48">
    <path d="M 370.136037 157.5585 
L 376.488764 157.5585 
L 376.488764 156.369697 
L 370.136037 156.369697 
z
" clip-path="url(#pacb178170f)" style="fill: #e69f00; opacity: 0.7; stroke: #ffffff; stroke-width: 0.3; stroke-linejoin: miter"/>
   </g>
   <g id="patch_49">
    <path d="M 376.488764 157.5585 
L 382.841491 157.5585 
L 382.841491 156.964098 
L 376.488764 156.964098 
z
" clip-path="url(#pacb178170f)" style="fill: #e69f00; opacity: 0.7; stroke: #ffffff; stroke-width: 0.3; stroke-linejoin: miter"/>
   </g>
   <g id="patch_50">
    <path d="M 382.841491 157.5585 
L 389.194219 157.5585 
L 389.194219 155.775295 
L 382.841491 155.775295 
z
" clip-path="url(#pacb178170f)" style="fill: #e69f00; opacity: 0.7; stroke: #ffffff; stroke-width: 0.3; stroke-linejoin: miter"/>
   </g>
   <g id="patch_51">
    <path d="M 389.194219 157.5585 
L 395.546946 157.5585 
L 395.546946 156.964098 
L 389.194219 156.964098 
z
" clip-path="url(#pacb178170f)" style="fill: #e69f00; opacity: 0.7; stroke: #ffffff; stroke-width: 0.3; stroke-linejoin: miter"/>
   </g>
   <g id="patch_52">
    <path d="M 395.546946 157.5585 
L 401.899673 157.5585 
L 401.899673 157.5585 
L 395.546946 157.5585 
z
" clip-path="url(#pacb178170f)" style="fill: #e69f00; opacity: 0.7; stroke: #ffffff; stroke-width: 0.3; stroke-linejoin: miter"/>
   </g>
   <g id="patch_53">
    <path d="M 401.899673 157.5585 
L 408.252401 157.5585 
L 408.252401 156.964098 
L 401.899673 156.964098 
z
" clip-path="url(#pacb178170f)" style="fill: #e69f00; opacity: 0.7; stroke: #ffffff; stroke-width: 0.3; stroke-linejoin: miter"/>
   </g>
   <g id="patch_54">
    <path d="M 408.252401 157.5585 
L 414.605128 157.5585 
L 414.605128 157.5585 
L 408.252401 157.5585 
z
" clip-path="url(#pacb178170f)" style="fill: #e69f00; opacity: 0.7; stroke: #ffffff; stroke-width: 0.3; stroke-linejoin: miter"/>
   </g>
   <g id="patch_55">
    <path d="M 414.605128 157.5585 
L 420.957855 157.5585 
L 420.957855 157.5585 
L 414.605128 157.5585 
z
" clip-path="url(#pacb178170f)" style="fill: #e69f00; opacity: 0.7; stroke: #ffffff; stroke-width: 0.3; stroke-linejoin: miter"/>
   </g>
   <g id="patch_56">
    <path d="M 420.957855 157.5585 
L 427.310582 157.5585 
L 427.310582 156.369697 
L 420.957855 156.369697 
z
" clip-path="url(#pacb178170f)" style="fill: #e69f00; opacity: 0.7; stroke: #ffffff; stroke-width: 0.3; stroke-linejoin: miter"/>
   </g>
   <g id="patch_57">
    <path d="M 427.310582 157.5585 
L 433.66331 157.5585 
L 433.66331 155.775295 
L 427.310582 155.775295 
z
" clip-path="url(#pacb178170f)" style="fill: #e69f00; opacity: 0.7; stroke: #ffffff; stroke-width: 0.3; stroke-linejoin: miter"/>
   </g>
   <g id="patch_58">
    <path d="M 433.66331 157.5585 
L 440.016037 157.5585 
L 440.016037 156.964098 
L 433.66331 156.964098 
z
" clip-path="url(#pacb178170f)" style="fill: #e69f00; opacity: 0.7; stroke: #ffffff; stroke-width: 0.3; stroke-linejoin: miter"/>
   </g>
   <g id="patch_59">
    <path d="M 440.016037 157.5585 
L 446.368764 157.5585 
L 446.368764 156.964098 
L 440.016037 156.964098 
z
" clip-path="url(#pacb178170f)" style="fill: #e69f00; opacity: 0.7; stroke: #ffffff; stroke-width: 0.3; stroke-linejoin: miter"/>
   </g>
   <g id="patch_60">
    <path d="M 446.368764 157.5585 
L 452.721491 157.5585 
L 452.721491 156.369697 
L 446.368764 156.369697 
z
" clip-path="url(#pacb178170f)" style="fill: #e69f00; opacity: 0.7; stroke: #ffffff; stroke-width: 0.3; stroke-linejoin: miter"/>
   </g>
   <g id="patch_61">
    <path d="M 452.721491 157.5585 
L 459.074219 157.5585 
L 459.074219 156.964098 
L 452.721491 156.964098 
z
" clip-path="url(#pacb178170f)" style="fill: #e69f00; opacity: 0.7; stroke: #ffffff; stroke-width: 0.3; stroke-linejoin: miter"/>
   </g>
   <g id="patch_62">
    <path d="M 459.074219 157.5585 
L 465.426946 157.5585 
L 465.426946 156.964098 
L 459.074219 156.964098 
z
" clip-path="url(#pacb178170f)" style="fill: #e69f00; opacity: 0.7; stroke: #ffffff; stroke-width: 0.3; stroke-linejoin: miter"/>
   </g>
   <g id="patch_63">
    <path d="M 465.426946 157.5585 
L 471.779673 157.5585 
L 471.779673 157.5585 
L 465.426946 157.5585 
z
" clip-path="url(#pacb178170f)" style="fill: #e69f00; opacity: 0.7; stroke: #ffffff; stroke-width: 0.3; stroke-linejoin: miter"/>
   </g>
   <g id="patch_64">
    <path d="M 471.779673 157.5585 
L 478.132401 157.5585 
L 478.132401 157.5585 
L 471.779673 157.5585 
z
" clip-path="url(#pacb178170f)" style="fill: #e69f00; opacity: 0.7; stroke: #ffffff; stroke-width: 0.3; stroke-linejoin: miter"/>
   </g>
   <g id="patch_65">
    <path d="M 478.132401 157.5585 
L 484.485128 157.5585 
L 484.485128 156.964098 
L 478.132401 156.964098 
z
" clip-path="url(#pacb178170f)" style="fill: #e69f00; opacity: 0.7; stroke: #ffffff; stroke-width: 0.3; stroke-linejoin: miter"/>
   </g>
   <g id="matplotlib.axis_3">
    <g id="xtick_10">
     <g id="line2d_19">
      <g>
       <use xlink:href="#m3f22ccfccd" x="289.155465" y="157.5585" style="stroke: #000000; stroke-width: 0.6"/>
      </g>
     </g>
     <g id="text_21">
      <!-- 0.05 -->
      <g transform="translate(282.344137 169.068969) scale(0.07 -0.07)">
       <use xlink:href="#ArialMT-30"/>
       <use xlink:href="#ArialMT-2e" transform="translate(55.615234 0)"/>
       <use xlink:href="#ArialMT-30" transform="translate(83.398438 0)"/>
       <use xlink:href="#ArialMT-35" transform="translate(139.013672 0)"/>
      </g>
     </g>
    </g>
    <g id="xtick_11">
     <g id="line2d_20">
      <g>
       <use xlink:href="#m3f22ccfccd" x="312.894688" y="157.5585" style="stroke: #000000; stroke-width: 0.6"/>
      </g>
     </g>
     <g id="text_22">
      <!-- 0.10 -->
      <g transform="translate(306.08336 169.068969) scale(0.07 -0.07)">
       <use xlink:href="#ArialMT-30"/>
       <use xlink:href="#ArialMT-2e" transform="translate(55.615234 0)"/>
       <use xlink:href="#ArialMT-31" transform="translate(83.398438 0)"/>
       <use xlink:href="#ArialMT-30" transform="translate(139.013672 0)"/>
      </g>
     </g>
    </g>
    <g id="xtick_12">
     <g id="line2d_21">
      <g>
       <use xlink:href="#m3f22ccfccd" x="336.633911" y="157.5585" style="stroke: #000000; stroke-width: 0.6"/>
      </g>
     </g>
     <g id="text_23">
      <!-- 0.15 -->
      <g transform="translate(329.822583 169.068969) scale(0.07 -0.07)">
       <use xlink:href="#ArialMT-30"/>
       <use xlink:href="#ArialMT-2e" transform="translate(55.615234 0)"/>
       <use xlink:href="#ArialMT-31" transform="translate(83.398438 0)"/>
       <use xlink:href="#ArialMT-35" transform="translate(139.013672 0)"/>
      </g>
     </g>
    </g>
    <g id="xtick_13">
     <g id="line2d_22">
      <g>
       <use xlink:href="#m3f22ccfccd" x="360.373135" y="157.5585" style="stroke: #000000; stroke-width: 0.6"/>
      </g>
     </g>
     <g id="text_24">
      <!-- 0.20 -->
      <g transform="translate(353.561807 169.068969) scale(0.07 -0.07)">
       <use xlink:href="#ArialMT-30"/>
       <use xlink:href="#ArialMT-2e" transform="translate(55.615234 0)"/>
       <use xlink:href="#ArialMT-32" transform="translate(83.398438 0)"/>
       <use xlink:href="#ArialMT-30" transform="translate(139.013672 0)"/>
      </g>
     </g>
    </g>
    <g id="xtick_14">
     <g id="line2d_23">
      <g>
       <use xlink:href="#m3f22ccfccd" x="384.112358" y="157.5585" style="stroke: #000000; stroke-width: 0.6"/>
      </g>
     </g>
     <g id="text_25">
      <!-- 0.25 -->
      <g transform="translate(377.30103 169.068969) scale(0.07 -0.07)">
       <use xlink:href="#ArialMT-30"/>
       <use xlink:href="#ArialMT-2e" transform="translate(55.615234 0)"/>
       <use xlink:href="#ArialMT-32" transform="translate(83.398438 0)"/>
       <use xlink:href="#ArialMT-35" transform="translate(139.013672 0)"/>
      </g>
     </g>
    </g>
    <g id="xtick_15">
     <g id="line2d_24">
      <g>
       <use xlink:href="#m3f22ccfccd" x="407.851581" y="157.5585" style="stroke: #000000; stroke-width: 0.6"/>
      </g>
     </g>
     <g id="text_26">
      <!-- 0.30 -->
      <g transform="translate(401.040253 169.068969) scale(0.07 -0.07)">
       <defs>
        <path id="ArialMT-33" d="M 269 1209 
L 831 1284 
Q 928 806 1161 595 
Q 1394 384 1728 384 
Q 2125 384 2398 659 
Q 2672 934 2672 1341 
Q 2672 1728 2419 1979 
Q 2166 2231 1775 2231 
Q 1616 2231 1378 2169 
L 1441 2663 
Q 1497 2656 1531 2656 
Q 1891 2656 2178 2843 
Q 2466 3031 2466 3422 
Q 2466 3731 2256 3934 
Q 2047 4138 1716 4138 
Q 1388 4138 1169 3931 
Q 950 3725 888 3313 
L 325 3413 
Q 428 3978 793 4289 
Q 1159 4600 1703 4600 
Q 2078 4600 2393 4439 
Q 2709 4278 2876 4000 
Q 3044 3722 3044 3409 
Q 3044 3113 2884 2869 
Q 2725 2625 2413 2481 
Q 2819 2388 3044 2092 
Q 3269 1797 3269 1353 
Q 3269 753 2831 336 
Q 2394 -81 1725 -81 
Q 1122 -81 723 278 
Q 325 638 269 1209 
z
" transform="scale(0.015625)"/>
       </defs>
       <use xlink:href="#ArialMT-30"/>
       <use xlink:href="#ArialMT-2e" transform="translate(55.615234 0)"/>
       <use xlink:href="#ArialMT-33" transform="translate(83.398438 0)"/>
       <use xlink:href="#ArialMT-30" transform="translate(139.013672 0)"/>
      </g>
     </g>
    </g>
    <g id="xtick_16">
     <g id="line2d_25">
      <g>
       <use xlink:href="#m3f22ccfccd" x="431.590804" y="157.5585" style="stroke: #000000; stroke-width: 0.6"/>
      </g>
     </g>
     <g id="text_27">
      <!-- 0.35 -->
      <g transform="translate(424.779476 169.068969) scale(0.07 -0.07)">
       <use xlink:href="#ArialMT-30"/>
       <use xlink:href="#ArialMT-2e" transform="translate(55.615234 0)"/>
       <use xlink:href="#ArialMT-33" transform="translate(83.398438 0)"/>
       <use xlink:href="#ArialMT-35" transform="translate(139.013672 0)"/>
      </g>
     </g>
    </g>
    <g id="xtick_17">
     <g id="line2d_26">
      <g>
       <use xlink:href="#m3f22ccfccd" x="455.330028" y="157.5585" style="stroke: #000000; stroke-width: 0.6"/>
      </g>
     </g>
     <g id="text_28">
      <!-- 0.40 -->
      <g transform="translate(448.518699 169.068969) scale(0.07 -0.07)">
       <defs>
        <path id="ArialMT-34" d="M 2069 0 
L 2069 1097 
L 81 1097 
L 81 1613 
L 2172 4581 
L 2631 4581 
L 2631 1613 
L 3250 1613 
L 3250 1097 
L 2631 1097 
L 2631 0 
L 2069 0 
z
M 2069 1613 
L 2069 3678 
L 634 1613 
L 2069 1613 
z
" transform="scale(0.015625)"/>
       </defs>
       <use xlink:href="#ArialMT-30"/>
       <use xlink:href="#ArialMT-2e" transform="translate(55.615234 0)"/>
       <use xlink:href="#ArialMT-34" transform="translate(83.398438 0)"/>
       <use xlink:href="#ArialMT-30" transform="translate(139.013672 0)"/>
      </g>
     </g>
    </g>
    <g id="xtick_18">
     <g id="line2d_27">
      <g>
       <use xlink:href="#m3f22ccfccd" x="479.069251" y="157.5585" style="stroke: #000000; stroke-width: 0.6"/>
      </g>
     </g>
     <g id="text_29">
      <!-- 0.45 -->
      <g transform="translate(472.257923 169.068969) scale(0.07 -0.07)">
       <use xlink:href="#ArialMT-30"/>
       <use xlink:href="#ArialMT-2e" transform="translate(55.615234 0)"/>
       <use xlink:href="#ArialMT-34" transform="translate(83.398438 0)"/>
       <use xlink:href="#ArialMT-35" transform="translate(139.013672 0)"/>
      </g>
     </g>
    </g>
    <g id="text_30">
     <!-- NF increase (dB) -->
     <g transform="translate(358.965469 180.283969) scale(0.08 -0.08)">
      <defs>
       <path id="ArialMT-4e" d="M 488 0 
L 488 4581 
L 1109 4581 
L 3516 984 
L 3516 4581 
L 4097 4581 
L 4097 0 
L 3475 0 
L 1069 3600 
L 1069 0 
L 488 0 
z
" transform="scale(0.015625)"/>
      </defs>
      <use xlink:href="#ArialMT-4e"/>
      <use xlink:href="#ArialMT-46" transform="translate(72.216797 0)"/>
      <use xlink:href="#ArialMT-20" transform="translate(133.300781 0)"/>
      <use xlink:href="#ArialMT-69" transform="translate(161.083984 0)"/>
      <use xlink:href="#ArialMT-6e" transform="translate(183.300781 0)"/>
      <use xlink:href="#ArialMT-63" transform="translate(238.916016 0)"/>
      <use xlink:href="#ArialMT-72" transform="translate(288.916016 0)"/>
      <use xlink:href="#ArialMT-65" transform="translate(322.216797 0)"/>
      <use xlink:href="#ArialMT-61" transform="translate(377.832031 0)"/>
      <use xlink:href="#ArialMT-73" transform="translate(433.447266 0)"/>
      <use xlink:href="#ArialMT-65" transform="translate(483.447266 0)"/>
      <use xlink:href="#ArialMT-20" transform="translate(539.0625 0)"/>
      <use xlink:href="#ArialMT-28" transform="translate(566.845703 0)"/>
      <use xlink:href="#ArialMT-64" transform="translate(600.146484 0)"/>
      <use xlink:href="#ArialMT-42" transform="translate(655.761719 0)"/>
      <use xlink:href="#ArialMT-29" transform="translate(722.460938 0)"/>
     </g>
    </g>
   </g>
   <g id="matplotlib.axis_4">
    <g id="ytick_9">
     <g id="line2d_28">
      <g>
       <use xlink:href="#m6bd257b00d" x="284.374219" y="157.5585" style="stroke: #000000; stroke-width: 0.6"/>
      </g>
     </g>
     <g id="text_31">
      <!-- 0 -->
      <g transform="translate(273.981562 160.063734) scale(0.07 -0.07)">
       <use xlink:href="#ArialMT-30"/>
      </g>
     </g>
    </g>
    <g id="ytick_10">
     <g id="line2d_29">
      <g>
       <use xlink:href="#m6bd257b00d" x="284.374219" y="142.698461" style="stroke: #000000; stroke-width: 0.6"/>
      </g>
     </g>
     <g id="text_32">
      <!-- 25 -->
      <g transform="translate(270.088906 145.203696) scale(0.07 -0.07)">
       <use xlink:href="#ArialMT-32"/>
       <use xlink:href="#ArialMT-35" transform="translate(55.615234 0)"/>
      </g>
     </g>
    </g>
    <g id="ytick_11">
     <g id="line2d_30">
      <g>
       <use xlink:href="#m6bd257b00d" x="284.374219" y="127.838423" style="stroke: #000000; stroke-width: 0.6"/>
      </g>
     </g>
     <g id="text_33">
      <!-- 50 -->
      <g transform="translate(270.088906 130.343657) scale(0.07 -0.07)">
       <use xlink:href="#ArialMT-35"/>
       <use xlink:href="#ArialMT-30" transform="translate(55.615234 0)"/>
      </g>
     </g>
    </g>
    <g id="ytick_12">
     <g id="line2d_31">
      <g>
       <use xlink:href="#m6bd257b00d" x="284.374219" y="112.978384" style="stroke: #000000; stroke-width: 0.6"/>
      </g>
     </g>
     <g id="text_34">
      <!-- 75 -->
      <g transform="translate(270.088906 115.483619) scale(0.07 -0.07)">
       <use xlink:href="#ArialMT-37"/>
       <use xlink:href="#ArialMT-35" transform="translate(55.615234 0)"/>
      </g>
     </g>
    </g>
    <g id="ytick_13">
     <g id="line2d_32">
      <g>
       <use xlink:href="#m6bd257b00d" x="284.374219" y="98.118346" style="stroke: #000000; stroke-width: 0.6"/>
      </g>
     </g>
     <g id="text_35">
      <!-- 100 -->
      <g transform="translate(266.19625 100.62358) scale(0.07 -0.07)">
       <use xlink:href="#ArialMT-31"/>
       <use xlink:href="#ArialMT-30" transform="translate(55.615234 0)"/>
       <use xlink:href="#ArialMT-30" transform="translate(111.230469 0)"/>
      </g>
     </g>
    </g>
    <g id="ytick_14">
     <g id="line2d_33">
      <g>
       <use xlink:href="#m6bd257b00d" x="284.374219" y="83.258307" style="stroke: #000000; stroke-width: 0.6"/>
      </g>
     </g>
     <g id="text_36">
      <!-- 125 -->
      <g transform="translate(266.19625 85.763541) scale(0.07 -0.07)">
       <use xlink:href="#ArialMT-31"/>
       <use xlink:href="#ArialMT-32" transform="translate(55.615234 0)"/>
       <use xlink:href="#ArialMT-35" transform="translate(111.230469 0)"/>
      </g>
     </g>
    </g>
    <g id="ytick_15">
     <g id="line2d_34">
      <g>
       <use xlink:href="#m6bd257b00d" x="284.374219" y="68.398268" style="stroke: #000000; stroke-width: 0.6"/>
      </g>
     </g>
     <g id="text_37">
      <!-- 150 -->
      <g transform="translate(266.19625 70.903503) scale(0.07 -0.07)">
       <use xlink:href="#ArialMT-31"/>
       <use xlink:href="#ArialMT-35" transform="translate(55.615234 0)"/>
       <use xlink:href="#ArialMT-30" transform="translate(111.230469 0)"/>
      </g>
     </g>
    </g>
    <g id="ytick_16">
     <g id="line2d_35">
      <g>
       <use xlink:href="#m6bd257b00d" x="284.374219" y="53.53823" style="stroke: #000000; stroke-width: 0.6"/>
      </g>
     </g>
     <g id="text_38">
      <!-- 175 -->
      <g transform="translate(266.19625 56.043464) scale(0.07 -0.07)">
       <use xlink:href="#ArialMT-31"/>
       <use xlink:href="#ArialMT-37" transform="translate(55.615234 0)"/>
       <use xlink:href="#ArialMT-35" transform="translate(111.230469 0)"/>
      </g>
     </g>
    </g>
    <g id="text_39">
     <!-- Link count -->
     <g transform="translate(260.60625 118.060375) rotate(-90) scale(0.08 -0.08)">
      <use xlink:href="#ArialMT-4c"/>
      <use xlink:href="#ArialMT-69" transform="translate(55.615234 0)"/>
      <use xlink:href="#ArialMT-6e" transform="translate(77.832031 0)"/>
      <use xlink:href="#ArialMT-6b" transform="translate(133.447266 0)"/>
      <use xlink:href="#ArialMT-20" transform="translate(183.447266 0)"/>
      <use xlink:href="#ArialMT-63" transform="translate(211.230469 0)"/>
      <use xlink:href="#ArialMT-6f" transform="translate(261.230469 0)"/>
      <use xlink:href="#ArialMT-75" transform="translate(316.845703 0)"/>
      <use xlink:href="#ArialMT-6e" transform="translate(372.460938 0)"/>
      <use xlink:href="#ArialMT-74" transform="translate(428.076172 0)"/>
     </g>
    </g>
   </g>
   <g id="line2d_36">
    <path d="M 309.785994 157.5585 
L 309.785994 42.096 
" clip-path="url(#pacb178170f)" style="fill: none; stroke-dasharray: 2.22,0.96; stroke-dashoffset: 0; stroke: #000000; stroke-width: 0.6"/>
   </g>
   <g id="patch_66">
    <path d="M 284.374219 157.5585 
L 284.374219 42.096 
" style="fill: none; stroke: #000000; stroke-width: 0.8; stroke-linejoin: miter; stroke-linecap: square"/>
   </g>
   <g id="patch_67">
    <path d="M 284.374219 157.5585 
L 494.014219 157.5585 
" style="fill: none; stroke: #000000; stroke-width: 0.8; stroke-linejoin: miter; stroke-linecap: square"/>
   </g>
   <g id="text_40">
    <!-- b  EDFA noise-figure rise -->
    <g transform="translate(339.422813 36.096) scale(0.09 -0.09)">
     <defs>
      <path id="ArialMT-62" d="M 941 0 
L 419 0 
L 419 4581 
L 981 4581 
L 981 2947 
Q 1338 3394 1891 3394 
Q 2197 3394 2470 3270 
Q 2744 3147 2920 2923 
Q 3097 2700 3197 2384 
Q 3297 2069 3297 1709 
Q 3297 856 2875 390 
Q 2453 -75 1863 -75 
Q 1275 -75 941 416 
L 941 0 
z
M 934 1684 
Q 934 1088 1097 822 
Q 1363 388 1816 388 
Q 2184 388 2453 708 
Q 2722 1028 2722 1663 
Q 2722 2313 2464 2622 
Q 2206 2931 1841 2931 
Q 1472 2931 1203 2611 
Q 934 2291 934 1684 
z
" transform="scale(0.015625)"/>
      <path id="ArialMT-2d" d="M 203 1375 
L 203 1941 
L 1931 1941 
L 1931 1375 
L 203 1375 
z
" transform="scale(0.015625)"/>
      <path id="ArialMT-66" d="M 556 0 
L 556 2881 
L 59 2881 
L 59 3319 
L 556 3319 
L 556 3672 
Q 556 4006 616 4169 
Q 697 4388 901 4523 
Q 1106 4659 1475 4659 
Q 1713 4659 2000 4603 
L 1916 4113 
Q 1741 4144 1584 4144 
Q 1328 4144 1222 4034 
Q 1116 3925 1116 3625 
L 1116 3319 
L 1763 3319 
L 1763 2881 
L 1116 2881 
L 1116 0 
L 556 0 
z
" transform="scale(0.015625)"/>
     </defs>
     <use xlink:href="#ArialMT-62"/>
     <use xlink:href="#ArialMT-20" transform="translate(55.615234 0)"/>
     <use xlink:href="#ArialMT-20" transform="translate(83.398438 0)"/>
     <use xlink:href="#ArialMT-45" transform="translate(111.181641 0)"/>
     <use xlink:href="#ArialMT-44" transform="translate(177.880859 0)"/>
     <use xlink:href="#ArialMT-46" transform="translate(250.097656 0)"/>
     <use xlink:href="#ArialMT-41" transform="translate(305.681641 0)"/>
     <use xlink:href="#ArialMT-20" transform="translate(366.880859 0)"/>
     <use xlink:href="#ArialMT-6e" transform="translate(394.664062 0)"/>
     <use xlink:href="#ArialMT-6f" transform="translate(450.279297 0)"/>
     <use xlink:href="#ArialMT-69" transform="translate(505.894531 0)"/>
     <use xlink:href="#ArialMT-73" transform="translate(528.111328 0)"/>
     <use xlink:href="#ArialMT-65" transform="translate(578.111328 0)"/>
     <use xlink:href="#ArialMT-2d" transform="translate(633.726562 0)"/>
     <use xlink:href="#ArialMT-66" transform="translate(667.027344 0)"/>
     <use xlink:href="#ArialMT-69" transform="translate(694.810547 0)"/>
     <use xlink:href="#ArialMT-67" transform="translate(717.027344 0)"/>
     <use xlink:href="#ArialMT-75" transform="translate(772.642578 0)"/>
     <use xlink:href="#ArialMT-72" transform="translate(828.257812 0)"/>
     <use xlink:href="#ArialMT-65" transform="translate(861.558594 0)"/>
     <use xlink:href="#ArialMT-20" transform="translate(917.173828 0)"/>
     <use xlink:href="#ArialMT-72" transform="translate(944.957031 0)"/>
     <use xlink:href="#ArialMT-69" transform="translate(978.257812 0)"/>
     <use xlink:href="#ArialMT-73" transform="translate(1000.474609 0)"/>
     <use xlink:href="#ArialMT-65" transform="translate(1050.474609 0)"/>
    </g>
   </g>
  </g>
  <g id="text_41">
   <!-- f  EDFA radiation degradation - High -->
   <g transform="translate(178.615547 13.751719) scale(0.09 -0.09)">
    <defs>
     <path id="ArialMT-48" d="M 513 0 
L 513 4581 
L 1119 4581 
L 1119 2700 
L 3500 2700 
L 3500 4581 
L 4106 4581 
L 4106 0 
L 3500 0 
L 3500 2159 
L 1119 2159 
L 1119 0 
L 513 0 
z
" transform="scale(0.015625)"/>
     <path id="ArialMT-68" d="M 422 0 
L 422 4581 
L 984 4581 
L 984 2938 
Q 1378 3394 1978 3394 
Q 2347 3394 2619 3248 
Q 2891 3103 3008 2847 
Q 3125 2591 3125 2103 
L 3125 0 
L 2563 0 
L 2563 2103 
Q 2563 2525 2380 2717 
Q 2197 2909 1863 2909 
Q 1613 2909 1392 2779 
Q 1172 2650 1078 2428 
Q 984 2206 984 1816 
L 984 0 
L 422 0 
z
" transform="scale(0.015625)"/>
    </defs>
    <use xlink:href="#ArialMT-66"/>
    <use xlink:href="#ArialMT-20" transform="translate(27.783203 0)"/>
    <use xlink:href="#ArialMT-20" transform="translate(55.566406 0)"/>
    <use xlink:href="#ArialMT-45" transform="translate(83.349609 0)"/>
    <use xlink:href="#ArialMT-44" transform="translate(150.048828 0)"/>
    <use xlink:href="#ArialMT-46" transform="translate(222.265625 0)"/>
    <use xlink:href="#ArialMT-41" transform="translate(277.849609 0)"/>
    <use xlink:href="#ArialMT-20" transform="translate(339.048828 0)"/>
    <use xlink:href="#ArialMT-72" transform="translate(366.832031 0)"/>
    <use xlink:href="#ArialMT-61" transform="translate(400.132812 0)"/>
    <use xlink:href="#ArialMT-64" transform="translate(455.748047 0)"/>
    <use xlink:href="#ArialMT-69" transform="translate(511.363281 0)"/>
    <use xlink:href="#ArialMT-61" transform="translate(533.580078 0)"/>
    <use xlink:href="#ArialMT-74" transform="translate(589.195312 0)"/>
    <use xlink:href="#ArialMT-69" transform="translate(616.978516 0)"/>
    <use xlink:href="#ArialMT-6f" transform="translate(639.195312 0)"/>
    <use xlink:href="#ArialMT-6e" transform="translate(694.810547 0)"/>
    <use xlink:href="#ArialMT-20" transform="translate(750.425781 0)"/>
    <use xlink:href="#ArialMT-64" transform="translate(778.208984 0)"/>
    <use xlink:href="#ArialMT-65" transform="translate(833.824219 0)"/>
    <use xlink:href="#ArialMT-67" transform="translate(889.439453 0)"/>
    <use xlink:href="#ArialMT-72" transform="translate(945.054688 0)"/>
    <use xlink:href="#ArialMT-61" transform="translate(978.355469 0)"/>
    <use xlink:href="#ArialMT-64" transform="translate(1033.970703 0)"/>
    <use xlink:href="#ArialMT-61" transform="translate(1089.585938 0)"/>
    <use xlink:href="#ArialMT-74" transform="translate(1145.201172 0)"/>
    <use xlink:href="#ArialMT-69" transform="translate(1172.984375 0)"/>
    <use xlink:href="#ArialMT-6f" transform="translate(1195.201172 0)"/>
    <use xlink:href="#ArialMT-6e" transform="translate(1250.816406 0)"/>
    <use xlink:href="#ArialMT-20" transform="translate(1306.431641 0)"/>
    <use xlink:href="#ArialMT-2d" transform="translate(1334.214844 0)"/>
    <use xlink:href="#ArialMT-20" transform="translate(1367.515625 0)"/>
    <use xlink:href="#ArialMT-48" transform="translate(1395.298828 0)"/>
    <use xlink:href="#ArialMT-69" transform="translate(1467.515625 0)"/>
    <use xlink:href="#ArialMT-67" transform="translate(1489.732422 0)"/>
    <use xlink:href="#ArialMT-68" transform="translate(1545.347656 0)"/>
   </g>
  </g>
 </g>
 <defs>
  <clipPath id="p326d81592d">
   <rect x="36.694219" y="42.096" width="209.64" height="115.4625"/>
  </clipPath>
  <clipPath id="pacb178170f">
   <rect x="284.374219" y="42.096" width="209.64" height="115.4625"/>
  </clipPath>
 </defs>
</svg>
